RobotoFlex_opsz144_wght1000_wdth151_slnt-10.ufo
<glyph name="exclam" format="2">
  <advance width="776"/>
  <unicode hex="0021"/>
  <outline>
    <contour>
      <point x="-5.036619919341433" y="255.0" type="qcurve" smooth="yes"/>
      <point x="14.359347958589723" y="365.0"/>
      <point x="201.86635694911024" y="521.0"/>
      <point x="348.86635694911024" y="521.0" type="qcurve" smooth="yes"/>
      <point x="500.86635694911024" y="521.0"/>
      <point x="634.3593479585898" y="365.0"/>
      <point x="614.9633800806586" y="255.0" type="qcurve" smooth="yes"/>
      <point x="595.391085222019" y="144.0"/>
      <point x="407.8840762314984" y="-12.0"/>
      <point x="258.8840762314984" y="-12.0" type="qcurve" smooth="yes"/>
      <point x="107.88407623149843" y="-12.0"/>
      <point x="-24.432587797272575" y="145.0"/>
    </contour>
    <contour>
      <point x="110.85903296524197" y="572.0" type="line"/>
      <point x="257.732083911525" y="1456.0" type="line"/>
      <point x="775.732083911525" y="1456.0" type="line"/>
      <point x="609.859032965242" y="572.0" type="line"/>
    </contour>
  </outline>
</glyph>
<glyph name="quotedbl" format="2">
  <advance width="1227"/>
  <unicode hex="0022"/>
  <outline>
    <contour>
      <point x="88.12687043489106" y="755.0" type="line"/>
      <point x="147.18176100449023" y="1192.0" type="line"/>
      <point x="193.73208391152502" y="1456.0" type="line"/>
      <point x="709.732083911525" y="1456.0" type="line"/>
      <point x="663.1817610044902" y="1192.0" type="line"/>
      <point x="569.1268704348911" y="755.0" type="line"/>
    </contour>
    <contour>
      <point x="669.1268704348911" y="755.0" type="line"/>
      <point x="728.1817610044902" y="1192.0" type="line"/>
      <point x="774.732083911525" y="1456.0" type="line"/>
      <point x="1290.732083911525" y="1456.0" type="line"/>
      <point x="1244.1817610044902" y="1192.0" type="line"/>
      <point x="1149.126870434891" y="755.0" type="line"/>
    </contour>
  </outline>
</glyph>
<glyph name="dollar" format="2">
  <advance width="1589"/>
  <unicode hex="0024"/>
  <outline>
    <contour>
      <point x="-2.0" y="387.0" type="qcurve" smooth="yes"/>
      <point x="2.0" y="484.0" type="line"/>
      <point x="530.0" y="484.0" type="line"/>
      <point x="527.0" y="449.0" type="line" smooth="yes"/>
      <point x="523" y="397"/>
      <point x="631" y="350.0"/>
      <point x="725" y="350.0" type="qcurve" smooth="yes"/>
      <point x="821" y="350"/>
      <point x="952.0" y="378.0"/>
      <point x="959.0" y="413.0" type="qcurve" smooth="yes"/>
      <point x="965" y="445"/>
      <point x="913.0" y="475.0"/>
      <point x="670.0" y="528.0" type="qcurve" smooth="yes"/>
      <point x="365" y="594"/>
      <point x="118.0" y="836.0"/>
      <point x="146" y="1052" type="qcurve" smooth="yes"/>
      <point x="173.0" y="1262.0"/>
      <point x="601.0" y="1474.0"/>
      <point x="928.0" y="1474.0" type="qcurve" smooth="yes"/>
      <point x="1259.0" y="1474.0"/>
      <point x="1607" y="1275"/>
      <point x="1595.0" y="1085.0" type="qcurve" smooth="yes"/>
      <point x="1590.0" y="1005.0" type="line"/>
      <point x="1072.0" y="1005.0" type="line"/>
      <point x="1072.0" y="1018.0" type="line" smooth="yes"/>
      <point x="1072.0" y="1054.0"/>
      <point x="987" y="1090"/>
      <point x="875" y="1090.0" type="qcurve" smooth="yes"/>
      <point x="754" y="1090.0"/>
      <point x="691" y="1076"/>
      <point x="688.0" y="1053.0" type="qcurve" smooth="yes"/>
      <point x="685" y="1030"/>
      <point x="746.0" y="1007.0"/>
      <point x="1014.0" y="953.0" type="qcurve" smooth="yes"/>
      <point x="1274" y="901"/>
      <point x="1530.0" y="669.0"/>
      <point x="1502" y="449" type="qcurve" smooth="yes"/>
      <point x="1473.0" y="221.0"/>
      <point x="1037.0" y="-20.0"/>
      <point x="701.0" y="-20.0" type="qcurve" smooth="yes"/>
      <point x="363.0" y="-20.0"/>
      <point x="-10" y="183"/>
    </contour>
    <contour>
      <point x="432.0" y="-151.0" type="line"/>
      <point x="632.0" y="760.0" type="line"/>
      <point x="1053.0" y="760.0" type="line"/>
      <point x="942.0" y="99.0" type="line"/>
      <point x="944.0" y="89.0" type="line"/>
      <point x="901.0" y="-151.0" type="line"/>
    </contour>
    <contour>
      <point x="611.0" y="760.0" type="line"/>
      <point x="717.0" y="1356.0" type="line"/>
      <point x="714.0" y="1366.0" type="line"/>
      <point x="748.0" y="1606.0" type="line"/>
      <point x="1217.0" y="1606.0" type="line"/>
      <point x="1041.0" y="760.0" type="line"/>
    </contour>
  </outline>
</glyph>
<glyph name="ampersand" format="2">
  <advance width="1883"/>
  <unicode hex="0026"/>
  <outline>
    <contour>
      <point x="-22.759017137867957" y="370.0" type="qcurve" smooth="yes"/>
      <point x="4.2190109105271745" y="523.0"/>
      <point x="266.83706101363714" y="725.0"/>
      <point x="529.8803749301513" y="833.0" type="qcurve" smooth="yes"/>
      <point x="734.162860367537" y="914.0" type="line" smooth="yes"/>
      <point x="873.389825248628" y="972.0"/>
      <point x="1031.0176406635624" y="1106.0"/>
      <point x="1039.6576627182772" y="1155.0" type="qcurve" smooth="yes"/>
      <point x="1046.0054340237818" y="1191.0"/>
      <point x="978.7058592907035" y="1229.0"/>
      <point x="931.7058592907035" y="1229.0" type="qcurve" smooth="yes"/>
      <point x="884.7058592907034" y="1229.0"/>
      <point x="797.0054340237818" y="1191.0"/>
      <point x="791.1866436604024" y="1158.0" type="qcurve" smooth="yes"/>
      <point x="781.8413136828538" y="1105.0"/>
      <point x="927.1579777116249" y="948.0"/>
      <point x="1040.646086065192" y="826.0" type="qcurve" smooth="yes"/>
      <point x="1805.0" y="0.0" type="line"/>
      <point x="1173.0" y="0.0" type="line"/>
      <point x="491.1945976309662" y="693.0" type="line" smooth="yes"/>
      <point x="360.17506700731747" y="829.0"/>
      <point x="246.61679012971894" y="1030.0"/>
      <point x="265.3074500848162" y="1136.0" type="qcurve" smooth="yes"/>
      <point x="294.5777288824214" y="1302.0"/>
      <point x="652.021893332779" y="1486.0"/>
      <point x="988.021893332779" y="1486.0" type="qcurve" smooth="yes"/>
      <point x="1315.021893332779" y="1486.0"/>
      <point x="1583.693652650923" y="1314.0"/>
      <point x="1552.8364310269417" y="1139.0" type="qcurve" smooth="yes"/>
      <point x="1527.0926918435057" y="993.0"/>
      <point x="1239.6534100490603" y="775.0"/>
      <point x="1028.4313278238815" y="683.0" type="qcurve"/>
      <point x="900.4966136920007" y="638.0" type="line"/>
      <point x="631.2190109105272" y="523.0"/>
      <point x="527.050007913687" y="471.0"/>
      <point x="519.2916207625145" y="427.0" type="qcurve" smooth="yes"/>
      <point x="509.4173098428405" y="371.0"/>
      <point x="609.4221924987527" y="337.0"/>
      <point x="728.4221924987527" y="337.0" type="qcurve" smooth="yes"/>
      <point x="915.4221924987528" y="337.0"/>
      <point x="1332.629626756195" y="531.0"/>
      <point x="1412.3611592998502" y="762.0" type="qcurve"/>
      <point x="1924.3611592998504" y="762.0" type="line"/>
      <point x="1872.5210269715617" y="468.0"/>
      <point x="1086.4734603858308" y="-20.0"/>
      <point x="657.4734603858307" y="-20.0" type="qcurve" smooth="yes"/>
      <point x="267.4734603858307" y="-20.0"/>
      <point x="-54.49787366539165" y="190.0"/>
    </contour>
  </outline>
</glyph>
<glyph name="quotesingle" format="2">
  <advance width="634"/>
  <unicode hex="0027"/>
  <outline>
    <contour>
      <point x="81.12687043489106" y="755.0" type="line"/>
      <point x="147.18176100449023" y="1192.0" type="line"/>
      <point x="193.73208391152502" y="1456.0" type="line"/>
      <point x="697.732083911525" y="1456.0" type="line"/>
      <point x="651.1817610044902" y="1192.0" type="line"/>
      <point x="562.1268704348911" y="755.0" type="line"/>
    </contour>
  </outline>
</glyph>
<glyph name="parenleft" format="2">
  <advance width="981"/>
  <unicode hex="0028"/>
  <outline>
    <contour>
      <point x="735.1214364111092" y="-436.0" type="line"/>
      <point x="375.93778544653253" y="-386.0"/>
      <point x="-42.89384154332281" y="80.0"/>
      <point x="33.632068084151" y="514.0" type="qcurve" smooth="yes"/>
      <point x="35.57166487194411" y="525.0" type="line" smooth="yes"/>
      <point x="112.0975744994179" y="959.0"/>
      <point x="695.4422744902711" y="1426.0"/>
      <point x="1072.2586235256942" y="1476.0" type="qcurve"/>
      <point x="1013.1890849883584" y="1141.0" type="line"/>
      <point x="873.6649867021454" y="1104.0"/>
      <point x="712.5203969848661" y="882.0"/>
      <point x="650.8059537369033" y="532.0" type="qcurve" smooth="yes"/>
      <point x="646.5741061999003" y="508.0" type="line" smooth="yes"/>
      <point x="584.8596629519375" y="158.0"/>
      <point x="667.7150732346582" y="-64.0"/>
      <point x="794.190974948445" y="-101.0" type="qcurve"/>
    </contour>
  </outline>
</glyph>
<glyph name="parenright" format="2">
  <advance width="981"/>
  <unicode hex="0029"/>
  <outline>
    <contour>
      <point x="-162.87856358889073" y="-436.0" type="qcurve"/>
      <point x="-103.80902505155495" y="-101.0" type="line"/>
      <point x="34.715073234658234" y="-64.0"/>
      <point x="195.85966295193748" y="158.0"/>
      <point x="257.5741061999002" y="508.0" type="qcurve" smooth="yes"/>
      <point x="261.80595373690335" y="532.0" type="line" smooth="yes"/>
      <point x="323.5203969848661" y="882.0"/>
      <point x="240.66498670214537" y="1104.0"/>
      <point x="115.18908498835853" y="1141.0" type="qcurve"/>
      <point x="174.2586235256943" y="1476.0" type="line"/>
      <point x="531.4422744902711" y="1426.0"/>
      <point x="951.2739014801264" y="960.0"/>
      <point x="874.7479918526526" y="526.0" type="qcurve" smooth="yes"/>
      <point x="872.8083950648595" y="515.0" type="line" smooth="yes"/>
      <point x="796.2824854373856" y="81.0"/>
      <point x="211.93778544653253" y="-386.0"/>
    </contour>
  </outline>
</glyph>
<glyph name="asterisk" format="2">
  <advance width="1052"/>
  <unicode hex="002A"/>
  <outline>
    <contour>
      <point x="24.336746020289354" y="932.0" type="line"/>
      <point x="224.86753830367536" y="1332.0" type="line"/>
      <point x="435.64789740645267" y="1223.0" type="line"/>
      <point x="448.25862352569425" y="1476.0" type="line"/>
      <point x="867.2586235256942" y="1476.0" type="line"/>
      <point x="792.6478974064527" y="1223.0" type="line"/>
      <point x="1042.0438652843839" y="1333.0" type="line"/>
      <point x="1100.5130730009978" y="933.0" type="line"/>
      <point x="842.0493779269915" y="885.0" type="line"/>
      <point x="985.252559515217" y="699.0" type="line"/>
      <point x="601.8761222609346" y="453.0" type="line"/>
      <point x="518.1970389589223" y="676.0" type="line"/>
      <point x="355.8761222609346" y="453.0" type="line"/>
      <point x="60.252559515217" y="699.0" type="line"/>
      <point x="266.0493779269915" y="885.0" type="line"/>
    </contour>
  </outline>
</glyph>
<glyph name="plus" format="2">
  <advance width="1346"/>
  <unicode hex="002B"/>
  <outline>
    <contour>
      <point x="25.115293781806088" y="426.0" type="line"/>
      <point x="113.27878413603858" y="926.0" type="line"/>
      <point x="1302.2787841360387" y="926.0" type="line"/>
      <point x="1214.115293781806" y="426.0" type="line"/>
    </contour>
    <contour>
      <point x="310.3959678779311" y="110.0" type="line"/>
      <point x="509.29280211707965" y="1238.0" type="line"/>
      <point x="1017.2928021170796" y="1238.0" type="line"/>
      <point x="818.3959678779312" y="110.0" type="line"/>
    </contour>
  </outline>
</glyph>
<glyph name="comma" format="2">
  <advance width="675"/>
  <unicode hex="002C"/>
  <outline>
    <contour>
      <point x="-160.0" y="-140.0" type="line"/>
      <point x="-77.0" y="-85.0"/>
      <point x="-9.0" y="39.0"/>
      <point x="7.0" y="111.0" type="qcurve" smooth="yes"/>
      <point x="73.0" y="496.0" type="line"/>
      <point x="582.0" y="496.0" type="line"/>
      <point x="517.0" y="115.0" type="line" smooth="yes"/>
      <point x="501" y="20"/>
      <point x="368.0" y="-162.0"/>
      <point x="293.0" y="-197.0" type="qcurve"/>
    </contour>
  </outline>
</glyph>
<glyph name="hyphen" format="2">
  <advance width="1054"/>
  <unicode hex="002D"/>
  <outline>
    <contour>
      <point x="24.06221455346747" y="386.0" type="line"/>
      <point x="108.34651133211375" y="864.0" type="line"/>
      <point x="996.3465113321138" y="864.0" type="line"/>
      <point x="912.0622145534676" y="386.0" type="line"/>
    </contour>
  </outline>
</glyph>
<glyph name="period" format="2">
  <advance width="720"/>
  <unicode hex="002E"/>
  <outline>
    <contour>
      <point x="-31.097023131548326" y="266.0" type="qcurve" smooth="yes"/>
      <point x="-10.466766388657916" y="383.0"/>
      <point x="177.56922354398802" y="542.0"/>
      <point x="327.569223543988" y="542.0" type="qcurve" smooth="yes"/>
      <point x="477.5692235439881" y="542.0"/>
      <point x="609.5332336113421" y="383.0"/>
      <point x="588.7266498877432" y="265.0" type="qcurve" smooth="yes"/>
      <point x="567.9200661641444" y="147.0"/>
      <point x="379.8840762314984" y="-12.0"/>
      <point x="229.8840762314984" y="-12.0" type="qcurve" smooth="yes"/>
      <point x="79.88407623149843" y="-12.0"/>
      <point x="-51.550952893730255" y="150.0"/>
    </contour>
  </outline>
</glyph>
<glyph name="slash" format="2">
  <advance width="1284"/>
  <unicode hex="002F"/>
  <outline>
    <contour>
      <point x="-247.04087258855813" y="-125.0" type="line"/>
      <point x="885.732083911525" y="1456.0" type="line"/>
      <point x="1400.732083911525" y="1456.0" type="line"/>
      <point x="266.9591274114419" y="-125.0" type="line"/>
    </contour>
  </outline>
</glyph>
<glyph name="zero" format="2">
  <advance width="1901"/>
  <unicode hex="0030"/>
  <outline>
    <contour>
      <point x="44.24767685930482" y="733.0" type="qcurve" smooth="yes"/>
      <point x="47.42156251205719" y="751.0" type="line" smooth="yes"/>
      <point x="112.13356443206385" y="1118.0"/>
      <point x="647.9639314485282" y="1480.0"/>
      <point x="1082.9639314485282" y="1480.0" type="qcurve" smooth="yes"/>
      <point x="1517.9639314485282" y="1480.0"/>
      <point x="1928.8968342391486" y="1128.0"/>
      <point x="1862.5978894927657" y="752.0" type="qcurve" smooth="yes"/>
      <point x="1858.8950228978879" y="731.0" type="line" smooth="yes"/>
      <point x="1789.9511734408782" y="340.0"/>
      <point x="1225.7681524629968" y="-24.0"/>
      <point x="817.7681524629968" y="-24.0" type="qcurve" smooth="yes"/>
      <point x="378.76815246299685" y="-24.0"/>
      <point x="-22.40392184849493" y="355.0"/>
    </contour>
    <contour>
      <point x="635.4844070522201" y="723.0" type="line" smooth="yes"/>
      <point x="601.276972794778" y="529.0"/>
      <point x="723.1250590936305" y="358.0"/>
      <point x="885.1250590936305" y="358.0" type="qcurve" smooth="yes"/>
      <point x="1046.1250590936304" y="358.0"/>
      <point x="1230.276972794778" y="529.0"/>
      <point x="1264.1317530908032" y="721.0" type="qcurve" smooth="yes"/>
      <point x="1271.3611592998502" y="762.0" type="line" smooth="yes"/>
      <point x="1303.2763428080825" y="943.0"/>
      <point x="1170.491101049393" y="1086.0"/>
      <point x="1013.4911010493929" y="1086.0" type="qcurve" smooth="yes"/>
      <point x="855.4911010493929" y="1086.0"/>
      <point x="674.4526697887909" y="944.0"/>
      <point x="642.5374862805588" y="763.0" type="qcurve" smooth="yes"/>
    </contour>
  </outline>
</glyph>
<glyph name="one" format="2">
  <advance width="1901"/>
  <unicode hex="0031"/>
  <outline>
    <contour>
      <point x="717.0" y="0.0" type="line"/>
      <point x="882.0420539431232" y="936.0" type="line"/>
      <point x="261.0664672226842" y="766.0" type="line"/>
      <point x="344.6454560784966" y="1240.0" type="line"/>
      <point x="1062.6161601430235" y="1444.0" type="line"/>
      <point x="1566.6161601430235" y="1444.0" type="line"/>
      <point x="1312.0" y="0.0" type="line"/>
    </contour>
  </outline>
</glyph>
<glyph name="two" format="2">
  <advance width="1901"/>
  <unicode hex="0032"/>
  <outline>
    <contour>
      <point x="-10.0" y="0.0" type="line"/>
      <point x="45.366671942458" y="314.0" type="line"/>
      <point x="937.1219877789788" y="789.0" type="line" smooth="yes"/>
      <point x="1008.8224130459005" y="827.0"/>
      <point x="1117.9865333868286" y="913.0"/>
      <point x="1128.7424792100448" y="974.0" type="qcurve" smooth="yes"/>
      <point x="1140.9090408789289" y="1043.0"/>
      <point x="1042.5490629336437" y="1092.0"/>
      <point x="972.5490629336437" y="1092.0" type="qcurve" smooth="yes"/>
      <point x="886.5490629336438" y="1092.0"/>
      <point x="763.911482206885" y="1026.0"/>
      <point x="746.2787841360386" y="926.0" type="qcurve" smooth="yes"/>
      <point x="736.580800197073" y="871.0" type="line"/>
      <point x="145.58080019707302" y="871.0" type="line"/>
      <point x="155.45511111674705" y="927.0" type="line" smooth="yes"/>
      <point x="196.1866436604024" y="1158.0"/>
      <point x="676.9639314485282" y="1480.0"/>
      <point x="1045.9639314485282" y="1480.0" type="qcurve" smooth="yes"/>
      <point x="1425.9639314485282" y="1480.0"/>
      <point x="1758.594818178114" y="1183.0"/>
      <point x="1723.7424792100448" y="974.0" type="qcurve" smooth="yes"/>
      <point x="1694.7089306053551" y="798.0"/>
      <point x="1446.7986297530351" y="583.0"/>
      <point x="1315.8663569491102" y="521.0" type="qcurve" smooth="yes"/>
      <point x="983.0066939971728" y="363.0" type="line"/>
      <point x="1675.0066939971728" y="363.0" type="line"/>
      <point x="1611.0" y="0.0" type="line"/>
    </contour>
  </outline>
</glyph>
<glyph name="three" format="2">
  <advance width="1901"/>
  <unicode hex="0033"/>
  <outline>
    <contour>
      <point x="49.93408414518541" y="459.0" type="qcurve" smooth="yes"/>
      <point x="69.6827059845335" y="571.0" type="line"/>
      <point x="644.6827059845335" y="571.0" type="line"/>
      <point x="628.4606237593547" y="479.0" type="line" smooth="yes"/>
      <point x="616.9993700133045" y="414.0"/>
      <point x="756.596078151505" y="355.0"/>
      <point x="869.596078151505" y="355.0" type="qcurve" smooth="yes"/>
      <point x="976.596078151505" y="355.0"/>
      <point x="1134.8834462448028" y="402.0"/>
      <point x="1149.694912624314" y="486.0" type="qcurve" smooth="yes"/>
      <point x="1163.2720901388657" y="563.0"/>
      <point x="1030.2647661549975" y="614.0"/>
      <point x="869.2647661549975" y="614.0" type="qcurve" smooth="yes"/>
      <point x="679.2647661549975" y="614.0" type="line"/>
      <point x="725.4624351006153" y="876.0" type="line"/>
      <point x="914.4624351006153" y="876.0" type="line" smooth="yes"/>
      <point x="1036.4624351006153" y="876.0"/>
      <point x="1209.5130730009978" y="933.0"/>
      <point x="1221.1506537277564" y="999.0" type="qcurve" smooth="yes"/>
      <point x="1230.3196567245966" y="1051.0"/>
      <point x="1107.783351798603" y="1099.0"/>
      <point x="1000.783351798603" y="1099.0" type="qcurve" smooth="yes"/>
      <point x="885.783351798603" y="1099.0"/>
      <point x="739.4404631490105" y="1029.0"/>
      <point x="730.2714601521702" y="977.0" type="qcurve" smooth="yes"/>
      <point x="719.3391873482454" y="915.0" type="line"/>
      <point x="165.33918734824545" y="915.0" type="line"/>
      <point x="179.79799976633956" y="997.0" type="line" smooth="yes"/>
      <point x="220.70585929070342" y="1229.0"/>
      <point x="701.9639314485282" y="1480.0"/>
      <point x="1076.9639314485282" y="1480.0" type="qcurve" smooth="yes"/>
      <point x="1468.9639314485282" y="1480.0"/>
      <point x="1847.9377068277067" y="1253.0"/>
      <point x="1816.3751772808914" y="1074.0" type="qcurve" smooth="yes"/>
      <point x="1798.3898252486279" y="972.0"/>
      <point x="1593.059143238816" y="817.0"/>
      <point x="1448.2427942033926" y="767.0" type="qcurve"/>
      <point x="1447.5374862805588" y="763.0" type="line"/>
      <point x="1586.481965724264" y="740.0"/>
      <point x="1777.2116869266588" y="574.0"/>
      <point x="1753.0548905695991" y="437.0" type="qcurve" smooth="yes"/>
      <point x="1719.200110273574" y="245.0"/>
      <point x="1219.7681524629968" y="-24.0"/>
      <point x="823.7681524629968" y="-24.0" type="qcurve" smooth="yes"/>
      <point x="426.7681524629968" y="-24.0"/>
      <point x="9.026224620821552" y="227.0"/>
    </contour>
  </outline>
</glyph>
<glyph name="four" format="2">
  <advance width="1901"/>
  <unicode hex="0034"/>
  <outline>
    <contour>
      <point x="871.0" y="0.0" type="line"/>
      <point x="931.1275004215865" y="341.0" type="line"/>
      <point x="976.596078151505" y="355.0" type="line"/>
      <point x="1077.807765078164" y="929.0" type="line"/>
      <point x="1068.807765078164" y="929.0" type="line"/>
      <point x="672.9676327498753" y="635.0" type="line"/>
      <point x="1236.9676327498753" y="635.0" type="line"/>
      <point x="1270.2574421711292" y="665.0" type="line"/>
      <point x="1795.2574421711292" y="665.0" type="line"/>
      <point x="1716.6156087751538" y="219.0" type="line"/>
      <point x="11.615608775153817" y="219.0" type="line"/>
      <point x="86.20192161483453" y="642.0" type="line"/>
      <point x="1193.732083911525" y="1456.0" type="line"/>
      <point x="1660.732083911525" y="1456.0" type="line"/>
      <point x="1404.0" y="0.0" type="line"/>
    </contour>
  </outline>
</glyph>
<glyph name="five" format="2">
  <advance width="1866"/>
  <unicode hex="0035"/>
  <outline>
    <contour>
      <point x="58.0" y="477.0" type="qcurve" smooth="yes"/>
      <point x="64.0" y="549.0" type="line"/>
      <point x="629.0" y="549.0" type="line"/>
      <point x="626.0" y="497.0" type="line" smooth="yes"/>
      <point x="622" y="421"/>
      <point x="768" y="357"/>
      <point x="885.0" y="357.0" type="qcurve" smooth="yes"/>
      <point x="997" y="357.0"/>
      <point x="1135" y="432"/>
      <point x="1151.0" y="518.0" type="qcurve" smooth="yes"/>
      <point x="1166.0" y="598.0"/>
      <point x="1069" y="678.0"/>
      <point x="961.0" y="678.0" type="qcurve" smooth="yes"/>
      <point x="868" y="678"/>
      <point x="739.0" y="630.0"/>
      <point x="687.0" y="589.0" type="qcurve"/>
      <point x="173.0" y="678.0" type="line"/>
      <point x="402.0" y="1456.0" type="line"/>
      <point x="1781.0" y="1456.0" type="line"/>
      <point x="1751.0" y="1069.0" type="line"/>
      <point x="747.0" y="1069.0" type="line"/>
      <point x="711.0" y="931.0" type="line"/>
      <point x="793.0" y="963.0"/>
      <point x="1007.0" y="1014.0"/>
      <point x="1167.0" y="1014.0" type="qcurve" smooth="yes"/>
      <point x="1478.0" y="1014.0"/>
      <point x="1781.0" y="747.0"/>
      <point x="1740.0" y="530.0" type="qcurve" smooth="yes"/>
      <point x="1700.0" y="291.0"/>
      <point x="1272.0" y="-24.0"/>
      <point x="840.0" y="-24.0" type="qcurve" smooth="yes"/>
      <point x="419.0" y="-24.0"/>
      <point x="39" y="243"/>
    </contour>
  </outline>
</glyph>
<glyph name="six" format="2">
  <advance width="1901"/>
  <unicode hex="0036"/>
  <outline>
    <contour>
      <point x="60.26476615499749" y="614.0" type="qcurve" smooth="yes"/>
      <point x="65.55457557625144" y="644.0" type="line" smooth="yes"/>
      <point x="130.61923145767503" y="1013.0"/>
      <point x="937.2586235256942" y="1476.0"/>
      <point x="1660.2586235256942" y="1476.0" type="qcurve" smooth="yes"/>
      <point x="1737.2586235256942" y="1476.0" type="line"/>
      <point x="1663.201291628139" y="1056.0" type="line"/>
      <point x="1606.201291628139" y="1056.0" type="line" smooth="yes"/>
      <point x="1154.201291628139" y="1056.0"/>
      <point x="697.3465113321138" y="864.0"/>
      <point x="641.6271854282388" y="548.0" type="qcurve" smooth="yes"/>
      <point x="638.1006458140695" y="528.0" type="line" smooth="yes"/>
      <point x="621.5259096274738" y="434.0"/>
      <point x="757.7724051322135" y="356.0"/>
      <point x="895.7724051322135" y="356.0" type="qcurve" smooth="yes"/>
      <point x="1033.7724051322136" y="356.0"/>
      <point x="1194.5259096274738" y="434.0"/>
      <point x="1210.571664871944" y="525.0" type="qcurve" smooth="yes"/>
      <point x="1226.9700740778314" y="618.0"/>
      <point x="1116.6656166888408" y="690.0"/>
      <point x="964.6656166888408" y="690.0" type="qcurve" smooth="yes"/>
      <point x="812.6656166888408" y="690.0"/>
      <point x="652.9121121935806" y="612.0"/>
      <point x="626.9920460294362" y="465.0" type="qcurve"/>
      <point x="556.9920460294362" y="465.0" type="line"/>
      <point x="605.6582927049726" y="741.0"/>
      <point x="1048.3343046923333" y="949.0"/>
      <point x="1247.3343046923333" y="949.0" type="qcurve" smooth="yes"/>
      <point x="1539.3343046923333" y="949.0"/>
      <point x="1843.6582927049726" y="741.0"/>
      <point x="1801.3977792191918" y="507.0" type="qcurve" smooth="yes"/>
      <point x="1759.137265733411" y="273.0"/>
      <point x="1209.9444794437054" y="-23.0"/>
      <point x="821.9444794437053" y="-23.0" type="qcurve" smooth="yes"/>
      <point x="434.9444794437053" y="-23.0"/>
      <point x="2.9584974247463833" y="289.0"/>
    </contour>
  </outline>
</glyph>
<glyph name="seven" format="2">
  <advance width="1866"/>
  <unicode hex="0037"/>
  <outline>
    <contour>
      <point x="168.0" y="0.0" type="line"/>
      <point x="1098.0" y="1000.0" type="line"/>
      <point x="138.0" y="1000.0" type="line"/>
      <point x="166.0" y="1456.0" type="line"/>
      <point x="1788.0" y="1456.0" type="line"/>
      <point x="1770.0" y="1012.0" type="line"/>
      <point x="880.0" y="0.0" type="line"/>
    </contour>
  </outline>
</glyph>
<glyph name="eight" format="2">
  <advance width="1867"/>
  <unicode hex="0038"/>
  <outline>
    <contour>
      <point x="54" y="412" type="qcurve" smooth="yes"/>
      <point x="69.0" y="575.0"/>
      <point x="351.0" y="739.0"/>
      <point x="484.0" y="763.0" type="qcurve"/>
      <point x="484.0" y="767.0" type="line"/>
      <point x="359.0" y="805.0"/>
      <point x="206.0" y="952.0"/>
      <point x="226.0" y="1099.0" type="qcurve" smooth="yes"/>
      <point x="248" y="1264"/>
      <point x="708.0" y="1479.0"/>
      <point x="1091.0" y="1479.0" type="qcurve" smooth="yes"/>
      <point x="1463.0" y="1479.0"/>
      <point x="1825" y="1265"/>
      <point x="1804.0" y="1100.0" type="qcurve" smooth="yes"/>
      <point x="1785.0" y="948.0"/>
      <point x="1576.0" y="795.0"/>
      <point x="1437.0" y="767.0" type="qcurve"/>
      <point x="1437.0" y="763.0" type="line"/>
      <point x="1560.0" y="739.0"/>
      <point x="1748.0" y="584.0"/>
      <point x="1722" y="417" type="qcurve" smooth="yes"/>
      <point x="1691.0" y="216.0"/>
      <point x="1220.0" y="-23.0"/>
      <point x="823.0" y="-23.0" type="qcurve" smooth="yes"/>
      <point x="415.0" y="-23.0"/>
      <point x="36" y="216"/>
    </contour>
    <contour>
      <point x="647.0" y="492.0" type="qcurve" smooth="yes"/>
      <point x="636" y="423"/>
      <point x="746.0" y="346.0"/>
      <point x="860.0" y="346.0" type="qcurve" smooth="yes"/>
      <point x="974.0" y="346.0"/>
      <point x="1131" y="414"/>
      <point x="1140.0" y="487.0" type="qcurve" smooth="yes"/>
      <point x="1148" y="555"/>
      <point x="1049" y="614"/>
      <point x="925" y="614.0" type="qcurve" smooth="yes"/>
      <point x="810" y="614"/>
      <point x="657" y="557"/>
    </contour>
    <contour>
      <point x="786.0" y="989.0" type="qcurve" smooth="yes"/>
      <point x="778" y="924"/>
      <point x="860.0" y="870.0"/>
      <point x="974.0" y="870.0" type="qcurve" smooth="yes"/>
      <point x="1088" y="870"/>
      <point x="1231" y="923"/>
      <point x="1239.0" y="989.0" type="qcurve" smooth="yes"/>
      <point x="1247.0" y="1054.0"/>
      <point x="1139" y="1101"/>
      <point x="1042.0" y="1101.0" type="qcurve" smooth="yes"/>
      <point x="934.0" y="1101.0"/>
      <point x="793" y="1048"/>
    </contour>
  </outline>
</glyph>
<glyph name="nine" format="2">
  <advance width="1901"/>
  <unicode hex="0039"/>
  <outline>
    <contour>
      <point x="99.80532375020786" y="946.0" type="qcurve" smooth="yes"/>
      <point x="142.06583723598868" y="1180.0"/>
      <point x="691.2586235256942" y="1476.0"/>
      <point x="1079.2586235256942" y="1476.0" type="qcurve" smooth="yes"/>
      <point x="1466.2586235256942" y="1476.0"/>
      <point x="1898.2446055446533" y="1164.0"/>
      <point x="1840.9383368144022" y="839.0" type="qcurve" smooth="yes"/>
      <point x="1835.6485273931482" y="809.0" type="line" smooth="yes"/>
      <point x="1770.5838715117245" y="440.0"/>
      <point x="963.9444794437054" y="-23.0"/>
      <point x="240.9444794437053" y="-23.0" type="qcurve" smooth="yes"/>
      <point x="163.9444794437053" y="-23.0" type="line"/>
      <point x="238.00181134126058" y="397.0" type="line"/>
      <point x="295.0018113412606" y="397.0" type="line" smooth="yes"/>
      <point x="747.0018113412606" y="397.0"/>
      <point x="1203.8565916372859" y="589.0"/>
      <point x="1259.5759175411608" y="905.0" type="qcurve" smooth="yes"/>
      <point x="1263.10245715533" y="925.0" type="line" smooth="yes"/>
      <point x="1279.6771933419259" y="1019.0"/>
      <point x="1143.430697837186" y="1097.0"/>
      <point x="1005.430697837186" y="1097.0" type="qcurve" smooth="yes"/>
      <point x="867.430697837186" y="1097.0"/>
      <point x="706.6771933419258" y="1019.0"/>
      <point x="690.6314380974554" y="928.0" type="qcurve" smooth="yes"/>
      <point x="674.2330288915682" y="835.0"/>
      <point x="784.5374862805588" y="763.0"/>
      <point x="936.5374862805588" y="763.0" type="qcurve" smooth="yes"/>
      <point x="1088.5374862805588" y="763.0"/>
      <point x="1248.290990775819" y="841.0"/>
      <point x="1274.2110569399633" y="988.0" type="qcurve"/>
      <point x="1344.2110569399633" y="988.0" type="line"/>
      <point x="1295.544810264427" y="712.0"/>
      <point x="852.8687982770664" y="504.0"/>
      <point x="653.8687982770664" y="504.0" type="qcurve" smooth="yes"/>
      <point x="361.86879827706633" y="504.0"/>
      <point x="57.54481026442704" y="712.0"/>
    </contour>
  </outline>
</glyph>
<glyph name="colon" format="2">
  <advance width="637"/>
  <unicode hex="003A"/>
  <outline>
    <contour>
      <point x="-51.328870668551474" y="242.0" type="qcurve" smooth="yes"/>
      <point x="-32.46188373274572" y="349.0"/>
      <point x="141.7528745085648" y="492.0"/>
      <point x="277.7528745085648" y="492.0" type="qcurve" smooth="yes"/>
      <point x="413.7528745085648" y="492.0"/>
      <point x="536.5381162672543" y="349.0"/>
      <point x="517.6711293314486" y="242.0" type="qcurve" smooth="yes"/>
      <point x="498.0988344728089" y="131.0"/>
      <point x="323.8840762314984" y="-12.0"/>
      <point x="187.8840762314984" y="-12.0" type="qcurve" smooth="yes"/>
      <point x="52.884076231498426" y="-12.0"/>
      <point x="-70.01953062364876" y="136.0"/>
    </contour>
    <contour>
      <point x="47.76689248960585" y="804.0" type="qcurve" smooth="yes"/>
      <point x="66.28122546399467" y="909.0"/>
      <point x="240.6723106860136" y="1053.0"/>
      <point x="376.6723106860136" y="1053.0" type="qcurve" smooth="yes"/>
      <point x="512.6723106860136" y="1053.0"/>
      <point x="635.2812254639947" y="909.0"/>
      <point x="616.4142385281889" y="802.0" type="qcurve" smooth="yes"/>
      <point x="596.8419436695493" y="691.0"/>
      <point x="422.6271854282388" y="548.0"/>
      <point x="286.6271854282388" y="548.0" type="qcurve" smooth="yes"/>
      <point x="151.62718542823882" y="548.0"/>
      <point x="28.72357857309163" y="696.0"/>
    </contour>
  </outline>
</glyph>
<glyph name="semicolon" format="2">
  <advance width="627"/>
  <unicode hex="003B"/>
  <outline>
    <contour>
      <point x="-176.038431260602" y="-142.0" type="line"/>
      <point x="-95.69310128305338" y="-89.0"/>
      <point x="-30.886517559454518" y="29.0"/>
      <point x="-18.3673019291535" y="100.0" type="qcurve" smooth="yes"/>
      <point x="46.873680932978544" y="470.0" type="line"/>
      <point x="544.8736809329786" y="470.0" type="line"/>
      <point x="480.3380059936803" y="104.0" type="line" smooth="yes"/>
      <point x="464.2922507492101" y="13.0"/>
      <point x="332.0823751638117" y="-164.0"/>
      <point x="263.2635848004324" y="-197.0" type="qcurve"/>
    </contour>
    <contour>
      <point x="47.76689248960585" y="804.0" type="qcurve" smooth="yes"/>
      <point x="66.28122546399467" y="909.0"/>
      <point x="240.6723106860136" y="1053.0"/>
      <point x="377.6723106860136" y="1053.0" type="qcurve" smooth="yes"/>
      <point x="512.6723106860136" y="1053.0"/>
      <point x="635.2812254639947" y="909.0"/>
      <point x="616.4142385281889" y="802.0" type="qcurve" smooth="yes"/>
      <point x="596.8419436695493" y="691.0"/>
      <point x="422.6271854282388" y="548.0"/>
      <point x="286.6271854282388" y="548.0" type="qcurve" smooth="yes"/>
      <point x="151.62718542823882" y="548.0"/>
      <point x="28.72357857309163" y="696.0"/>
    </contour>
  </outline>
</glyph>
<glyph name="less" format="2">
  <advance width="1346"/>
  <unicode hex="003C"/>
  <outline>
    <contour>
      <point x="1123.5845014984202" y="26.0" type="line"/>
      <point x="67.23121755030766" y="438.0" type="line"/>
      <point x="151.16286036753695" y="914.0" type="line"/>
      <point x="1354.5728462265092" y="1336.0" type="line"/>
      <point x="1264.4697590844835" y="825.0" type="line"/>
      <point x="638.31540405538" y="671.0" type="line"/>
      <point x="1211.924318833361" y="527.0" type="line"/>
    </contour>
  </outline>
</glyph>
<glyph name="equal" format="2">
  <advance width="1346"/>
  <unicode hex="003D"/>
  <outline>
    <contour>
      <point x="17.27272012556128" y="149.0" type="line"/>
      <point x="104.55457557625144" y="644.0" type="line"/>
      <point x="1211.5545755762514" y="644.0" type="line"/>
      <point x="1124.2727201255614" y="149.0" type="line"/>
    </contour>
    <contour>
      <point x="120.60033082072175" y="735.0" type="line"/>
      <point x="207.8821862714119" y="1230.0" type="line"/>
      <point x="1314.882186271412" y="1230.0" type="line"/>
      <point x="1227.6003308207219" y="735.0" type="line"/>
    </contour>
  </outline>
</glyph>
<glyph name="greater" format="2">
  <advance width="1346"/>
  <unicode hex="003E"/>
  <outline>
    <contour>
      <point x="-25.415498501579904" y="26.0" type="line"/>
      <point x="64.68758864044571" y="537.0" type="line"/>
      <point x="694.8419436695493" y="691.0" type="line"/>
      <point x="117.23302889156827" y="835.0" type="line"/>
      <point x="205.57284622650923" y="1336.0" type="line"/>
      <point x="1261.9261301746217" y="924.0" type="line"/>
      <point x="1177.9944873573922" y="448.0" type="line"/>
    </contour>
  </outline>
</glyph>
<glyph name="question" format="2">
  <advance width="1571"/>
  <unicode hex="003F"/>
  <outline>
    <contour>
      <point x="367.96338008065857" y="255.0" type="qcurve" smooth="yes"/>
      <point x="387.35934795858975" y="365.0"/>
      <point x="578.8663569491102" y="521.0"/>
      <point x="731.8663569491102" y="521.0" type="qcurve" smooth="yes"/>
      <point x="886.8663569491102" y="521.0"/>
      <point x="1023.3593479585898" y="365.0"/>
      <point x="1003.9633800806587" y="255.0" type="qcurve" smooth="yes"/>
      <point x="984.391085222019" y="144.0"/>
      <point x="792.8840762314984" y="-12.0"/>
      <point x="638.8840762314984" y="-12.0" type="qcurve" smooth="yes"/>
      <point x="487.8840762314984" y="-12.0"/>
      <point x="348.56741220272744" y="145.0"/>
    </contour>
    <contour>
      <point x="65.56859355729253" y="956.0" type="line"/>
      <point x="87.08048520372523" y="1078.0" type="line" smooth="yes"/>
      <point x="117.23239890487275" y="1249.0"/>
      <point x="561.9639314485282" y="1480.0"/>
      <point x="920.9639314485282" y="1480.0" type="qcurve" smooth="yes"/>
      <point x="1290.9639314485282" y="1480.0"/>
      <point x="1671.04630661234" y="1316.0"/>
      <point x="1639.660104046233" y="1138.0" type="qcurve" smooth="yes"/>
      <point x="1613.2110569399633" y="988.0"/>
      <point x="1430.8779336021953" y="850.0"/>
      <point x="1310.8272957018128" y="793.0" type="qcurve" smooth="yes"/>
      <point x="1187.0713498785963" y="732.0"/>
      <point x="1030.1415184026275" y="653.0"/>
      <point x="1017.4459757916181" y="581.0" type="qcurve" smooth="yes"/>
      <point x="1015.859032965242" y="572.0" type="line"/>
      <point x="463.859032965242" y="572.0" type="line"/>
      <point x="469.50149634791285" y="604.0" type="line" smooth="yes"/>
      <point x="483.5472515923832" y="695.0"/>
      <point x="654.5252796407783" y="848.0"/>
      <point x="825.6893999817063" y="934.0" type="qcurve" smooth="yes"/>
      <point x="940.9163648627973" y="992.0"/>
      <point x="1010.7351552261766" y="1025.0"/>
      <point x="1013.7327138982205" y="1042.0" type="qcurve" smooth="yes"/>
      <point x="1018.3172153966407" y="1068.0"/>
      <point x="914.2568121844338" y="1079.0"/>
      <point x="819.2568121844337" y="1079.0" type="qcurve" smooth="yes"/>
      <point x="706.2568121844337" y="1079.0"/>
      <point x="564.2616948403459" y="1045.0"/>
      <point x="554.2110569399633" y="988.0" type="qcurve" smooth="yes"/>
      <point x="548.5685935572925" y="956.0" type="line"/>
    </contour>
  </outline>
</glyph>
<glyph name="at" format="2">
  <advance width="2300"/>
  <unicode hex="0040"/>
  <outline>
    <contour>
      <point x="557.530792283386" y="400.0" type="qcurve" smooth="yes"/>
      <point x="611.3105213994678" y="705.0"/>
      <point x="1037.4959837053052" y="1052.0"/>
      <point x="1279.4959837053052" y="1052.0" type="qcurve" smooth="yes"/>
      <point x="1368.4959837053052" y="1052.0"/>
      <point x="1513.8559616505904" y="1003.0"/>
      <point x="1548.805323750208" y="946.0" type="qcurve"/>
      <point x="1860.805323750208" y="946.0" type="line"/>
      <point x="1638.7144432479627" y="350.0" type="line" smooth="yes"/>
      <point x="1623.3087100582072" y="308.0"/>
      <point x="1635.6662466755363" y="276.0"/>
      <point x="1674.489919694828" y="275.0" type="qcurve" smooth="yes"/>
      <point x="1741.3135927141193" y="274.0"/>
      <point x="1858.7022366081824" y="435.0"/>
      <point x="1887.6198614443706" y="599.0" type="qcurve" smooth="yes"/>
      <point x="1932.5832415250293" y="854.0"/>
      <point x="1620.8968342391486" y="1128.0"/>
      <point x="1299.8968342391486" y="1128.0" type="qcurve" smooth="yes"/>
      <point x="945.8968342391486" y="1128.0"/>
      <point x="494.60033082072175" y="735.0"/>
      <point x="437.1177351097622" y="409.0" type="qcurve" smooth="yes"/>
      <point x="395.50456766256445" y="173.0"/>
      <point x="646.6571113504075" y="-70.0"/>
      <point x="911.6571113504074" y="-70.0" type="qcurve" smooth="yes"/>
      <point x="1048.6571113504074" y="-70.0"/>
      <point x="1245.5918254822884" y="-25.0"/>
      <point x="1314.7632698070847" y="10.0" type="qcurve"/>
      <point x="1248.4643250607019" y="-366.0" type="line"/>
      <point x="1174.0585918709462" y="-408.0"/>
      <point x="982.3581666040245" y="-446.0"/>
      <point x="845.3581666040246" y="-446.0" type="qcurve" smooth="yes"/>
      <point x="393.35816660402463" y="-446.0"/>
      <point x="-118.9469207716614" y="40.0"/>
      <point x="-44.88958887410611" y="460.0" type="qcurve" smooth="yes"/>
      <point x="29.16774302344919" y="880.0"/>
      <point x="823.021893332779" y="1486.0"/>
      <point x="1363.021893332779" y="1486.0" type="qcurve" smooth="yes"/>
      <point x="1844.021893332779" y="1486.0"/>
      <point x="2366.326980708465" y="1000.0"/>
      <point x="2304.612537460502" y="650.0" type="qcurve" smooth="yes"/>
      <point x="2253.4777130550474" y="360.0"/>
      <point x="1850.0" y="0.0"/>
      <point x="1565.0" y="0.0" type="qcurve" smooth="yes"/>
      <point x="1394.0" y="0.0"/>
      <point x="1220.164120340928" y="86.0"/>
      <point x="1194.7388565275237" y="180.0" type="qcurve"/>
      <point x="1132.2800441094296" y="98.0"/>
      <point x="956.0" y="0.0"/>
      <point x="870.0" y="0.0" type="qcurve" smooth="yes"/>
      <point x="695.0" y="0.0"/>
      <point x="523.8523389680691" y="209.0"/>
    </contour>
    <contour>
      <point x="1064.2916207625146" y="427.0" type="qcurve" smooth="yes"/>
      <point x="1053.5356749392981" y="366.0"/>
      <point x="1079.011576653085" y="329.0"/>
      <point x="1105.011576653085" y="329.0" type="qcurve" smooth="yes"/>
      <point x="1135.011576653085" y="329.0"/>
      <point x="1186.5356749392981" y="366.0"/>
      <point x="1206.175696994013" y="415.0" type="qcurve" smooth="yes"/>
      <point x="1324.834619685681" y="742.0" type="line"/>
      <point x="1312.5978894927657" y="752.0"/>
      <point x="1279.0085053384335" y="760.0"/>
      <point x="1263.0085053384335" y="760.0" type="qcurve" smooth="yes"/>
      <point x="1210.0085053384335" y="760.0"/>
      <point x="1086.8614742931982" y="555.0"/>
    </contour>
  </outline>
</glyph>
<glyph name="A" format="2">
  <advance width="2022"/>
  <unicode hex="0041"/>
  <outline>
    <contour>
      <point x="-168.0" y="0.0" type="line"/>
      <point x="839.3190267379011" y="1465.0" type="line"/>
      <point x="1454.3190267379011" y="1465.0" type="line"/>
      <point x="1934.0" y="0.0" type="line"/>
      <point x="1245.0" y="0.0" type="line"/>
      <point x="1038.5374862805588" y="763.0" type="line" smooth="yes"/>
      <point x="1030.6509687211042" y="792.0"/>
      <point x="1020.2354702195244" y="818.0"/>
      <point x="1016.9987400266091" y="828.0" type="qcurve"/>
      <point x="1014.9987400266091" y="828.0" type="line"/>
      <point x="1009.2354702195244" y="818.0"/>
      <point x="991.8272957018128" y="793.0"/>
      <point x="972.5374862805588" y="763.0" type="qcurve" smooth="yes"/>
      <point x="494.0" y="0.0" type="line"/>
    </contour>
    <contour>
      <point x="292.91274218027604" y="198.0" type="line"/>
      <point x="523.506379003825" y="570.0" type="line"/>
      <point x="1446.506379003825" y="570.0" type="line"/>
      <point x="1538.9127421802762" y="198.0" type="line"/>
    </contour>
  </outline>
</glyph>
<glyph name="B" format="2">
  <advance width="1810"/>
  <unicode hex="0042"/>
  <anchor x="905.0" y="0" name="bottom"/>
  <anchor x="905.0" y="1456" name="top"/>
  <outline>
    <contour>
      <point x="12.0" y="0.0" type="line"/>
      <point x="268.732083911525" y="1456.0" type="line"/>
      <point x="1351.732083911525" y="1456.0" type="line" smooth="yes"/>
      <point x="1611.732083911525" y="1456.0"/>
      <point x="1807.7034179627474" y="1246.0"/>
      <point x="1779.491101049393" y="1086.0" type="qcurve" smooth="yes"/>
      <point x="1757.8028824222517" y="963.0"/>
      <point x="1605.5905655088973" y="803.0"/>
      <point x="1490.2427942033926" y="767.0" type="qcurve"/>
      <point x="1489.5374862805588" y="763.0" type="line"/>
      <point x="1642.8925815699317" y="748.0"/>
      <point x="1779.0353599459504" y="573.0"/>
      <point x="1753.115293781806" y="426.0" type="qcurve" smooth="yes"/>
      <point x="1716.9682627365708" y="221.0"/>
      <point x="1358.0" y="0.0"/>
      <point x="1107.0" y="0.0" type="qcurve" smooth="yes"/>
    </contour>
    <contour>
      <point x="656.593636823549" y="372.0" type="line"/>
      <point x="985.5936368235489" y="372.0" type="line" smooth="yes"/>
      <point x="1037.5936368235489" y="372.0"/>
      <point x="1142.9389668010976" y="425.0"/>
      <point x="1154.5765475278563" y="491.0" type="qcurve" smooth="yes"/>
      <point x="1163.216569582571" y="540.0"/>
      <point x="1074.7986297530351" y="583.0"/>
      <point x="1022.7986297530351" y="583.0" type="qcurve" smooth="yes"/>
      <point x="693.7986297530351" y="583.0" type="line"/>
    </contour>
    <contour>
      <point x="741.7595685057375" y="855.0" type="line"/>
      <point x="1066.7595685057377" y="855.0" type="line" smooth="yes"/>
      <point x="1111.7595685057377" y="855.0"/>
      <point x="1185.2812254639946" y="909.0"/>
      <point x="1194.097574499418" y="959.0" type="qcurve" smooth="yes"/>
      <point x="1202.9139235348412" y="1009.0"/>
      <point x="1147.906599550973" y="1060.0"/>
      <point x="1102.906599550973" y="1060.0" type="qcurve" smooth="yes"/>
      <point x="777.9065995509729" y="1060.0" type="line"/>
    </contour>
  </outline>
</glyph>
<glyph name="C" format="2">
  <advance width="2093"/>
  <unicode hex="0043"/>
  <anchor x="1068" y="0" name="bottom"/>
  <anchor x="1063" y="1456" name="top"/>
  <outline>
    <contour>
      <point x="23.30808007151171" y="722.0" type="qcurve" smooth="yes"/>
      <point x="26.83461968568102" y="742.0" type="line" smooth="yes"/>
      <point x="92.07560254781305" y="1112.0"/>
      <point x="734.021893332779" y="1486.0"/>
      <point x="1197.021893332779" y="1486.0" type="qcurve" smooth="yes"/>
      <point x="1687.021893332779" y="1486.0"/>
      <point x="2106.652780062365" y="1189.0"/>
      <point x="2086.5228383128224" y="865.0" type="qcurve" smooth="yes"/>
      <point x="2082.7668924896057" y="804.0" type="line"/>
      <point x="1484.7668924896059" y="804.0" type="line"/>
      <point x="1485.583241525029" y="854.0" type="line" smooth="yes"/>
      <point x="1487.9188061907535" y="975.0"/>
      <point x="1327.196408972227" y="1090.0"/>
      <point x="1145.196408972227" y="1090.0" type="qcurve" smooth="yes"/>
      <point x="949.1964089722269" y="1090.0"/>
      <point x="703.2812254639947" y="909.0"/>
      <point x="674.3636006278064" y="745.0" type="qcurve" smooth="yes"/>
      <point x="670.6607340329286" y="724.0" type="line" smooth="yes"/>
      <point x="639.2745314668218" y="546.0"/>
      <point x="819.596078151505" y="355.0"/>
      <point x="1012.596078151505" y="355.0" type="qcurve" smooth="yes"/>
      <point x="1199.596078151505" y="355.0"/>
      <point x="1405.344699990853" y="467.0"/>
      <point x="1441.3276106951605" y="586.0" type="qcurve" smooth="yes"/>
      <point x="1459.2019216148344" y="642.0" type="line"/>
      <point x="2054.2019216148346" y="642.0" type="line"/>
      <point x="2036.564340888076" y="576.0" type="line" smooth="yes"/>
      <point x="1951.845014984201" y="260.0"/>
      <point x="1430.710190578746" y="-30.0"/>
      <point x="934.710190578746" y="-30.0" type="qcurve" smooth="yes"/>
      <point x="437.71019057874605" y="-30.0"/>
      <point x="-41.05126788707801" y="357.0"/>
    </contour>
  </outline>
</glyph>
<glyph name="D" format="2">
  <advance width="1898"/>
  <unicode hex="0044"/>
  <anchor x="938.0" y="0" name="bottom"/>
  <anchor x="439.0" y="728.0" name="center"/>
  <anchor x="938.0" y="1456" name="top"/>
  <outline>
    <contour>
      <point x="12.0" y="0.0" type="line"/>
      <point x="268.732083911525" y="1456.0" type="line"/>
      <point x="1254.732083911525" y="1456.0" type="line" smooth="yes"/>
      <point x="1581.732083911525" y="1456.0"/>
      <point x="1941.5466216056875" y="1109.0"/>
      <point x="1877.8925815699317" y="748.0" type="qcurve" smooth="yes"/>
      <point x="1874.0133879943455" y="726.0" type="line" smooth="yes"/>
      <point x="1811.2409828621321" y="370.0"/>
      <point x="1319.0" y="0.0"/>
      <point x="998.0" y="0.0" type="qcurve" smooth="yes"/>
    </contour>
    <contour>
      <point x="661.8254843605521" y="396.0" type="line"/>
      <point x="993.8254843605521" y="396.0" type="line" smooth="yes"/>
      <point x="1067.825484360552" y="396.0"/>
      <point x="1239.4508584475304" y="547.0"/>
      <point x="1270.1317530908032" y="721.0" type="qcurve" smooth="yes"/>
      <point x="1274.0109466663894" y="743.0" type="line" smooth="yes"/>
      <point x="1303.2812254639946" y="909.0"/>
      <point x="1197.3800599368035" y="1040.0"/>
      <point x="1107.3800599368035" y="1040.0" type="qcurve" smooth="yes"/>
      <point x="775.3800599368036" y="1040.0" type="line"/>
    </contour>
  </outline>
</glyph>
<glyph name="E" format="2">
  <advance width="1776"/>
  <unicode hex="0045"/>
  <outline>
    <contour>
      <point x="12.0" y="0.0" type="line"/>
      <point x="268.732083911525" y="1456.0" type="line"/>
      <point x="1774.732083911525" y="1456.0" type="line"/>
      <point x="1695.3849425927158" y="1006.0" type="line"/>
      <point x="746.3849425927158" y="1006.0" type="line"/>
      <point x="729.8102064061201" y="912.0" type="line"/>
      <point x="1600.81020640612" y="912.0" type="line"/>
      <point x="1534.1586076983203" y="534.0" type="line"/>
      <point x="663.1586076983203" y="534.0" type="line"/>
      <point x="644.8206017046399" y="430.0" type="line"/>
      <point x="1613.82060170464" y="430.0" type="line"/>
      <point x="1538.0" y="0.0" type="line"/>
    </contour>
  </outline>
</glyph>
<glyph name="F" format="2">
  <advance width="1590"/>
  <unicode hex="0046"/>
  <outline>
    <contour>
      <point x="12.0" y="0.0" type="line"/>
      <point x="268.732083911525" y="1456.0" type="line"/>
      <point x="1701.732083911525" y="1456.0" type="line"/>
      <point x="1622.5612695734242" y="1007.0" type="line"/>
      <point x="787.5612695734242" y="1007.0" type="line"/>
      <point x="764.1097811391984" y="874.0" type="line"/>
      <point x="1534.1097811391983" y="874.0" type="line"/>
      <point x="1467.1055284699817" y="494.0" type="line"/>
      <point x="697.1055284699817" y="494.0" type="line"/>
      <point x="610.0" y="0.0" type="line"/>
    </contour>
  </outline>
</glyph>
<glyph name="G" format="2">
  <advance width="2058"/>
  <unicode hex="0047"/>
  <anchor x="1051.0" y="0" name="bottom"/>
  <anchor x="1077.0" y="1456" name="top"/>
  <outline>
    <contour>
      <point x="25.07134987859635" y="732.0" type="qcurve" smooth="yes"/>
      <point x="27.187273647097953" y="744.0" type="line" smooth="yes"/>
      <point x="94.36785329702309" y="1125.0"/>
      <point x="774.021893332779" y="1486.0"/>
      <point x="1236.021893332779" y="1486.0" type="qcurve" smooth="yes"/>
      <point x="1641.021893332779" y="1486.0"/>
      <point x="2058.940148155663" y="1236.0"/>
      <point x="2045.802882422252" y="963.0" type="qcurve"/>
      <point x="2044.2787841360387" y="926.0" type="line"/>
      <point x="1489.2787841360387" y="926.0" type="line"/>
      <point x="1488.2183809238318" y="937.0" type="line"/>
      <point x="1479.7979997663397" y="997.0"/>
      <point x="1286.6119074738067" y="1064.0"/>
      <point x="1134.6119074738067" y="1064.0" type="qcurve" smooth="yes"/>
      <point x="943.6119074738067" y="1064.0"/>
      <point x="683.1048984832862" y="908.0"/>
      <point x="654.187273647098" y="744.0" type="qcurve" smooth="yes"/>
      <point x="651.0133879943455" y="726.0" type="line" smooth="yes"/>
      <point x="618.921877505405" y="544.0"/>
      <point x="816.5356749392981" y="366.0"/>
      <point x="1000.5356749392981" y="366.0" type="qcurve" smooth="yes"/>
      <point x="1179.5356749392981" y="366.0"/>
      <point x="1384.2940620904706" y="410.0"/>
      <point x="1430.9389668010976" y="425.0" type="qcurve"/>
      <point x="1442.047566585731" y="488.0" type="line"/>
      <point x="1013.0475665857309" y="488.0" type="line"/>
      <point x="1072.998740026609" y="828.0" type="line"/>
      <point x="2066.351393988026" y="830.0" type="line"/>
      <point x="1961.789494427906" y="237.0" type="line"/>
      <point x="1828.9804693763513" y="136.0"/>
      <point x="1321.710190578746" y="-30.0"/>
      <point x="918.710190578746" y="-30.0" type="qcurve" smooth="yes"/>
      <point x="489.71019057874605" y="-30.0"/>
      <point x="-45.28311542408116" y="333.0"/>
    </contour>
  </outline>
</glyph>
<glyph name="H" format="2">
  <advance width="1980"/>
  <unicode hex="0048"/>
  <outline>
    <contour>
      <point x="12.0" y="0.0" type="line"/>
      <point x="268.732083911525" y="1456.0" type="line"/>
      <point x="868.732083911525" y="1456.0" type="line"/>
      <point x="788.6796346698819" y="1002.0" type="line"/>
      <point x="1288.6796346698818" y="1002.0" type="line"/>
      <point x="1368.732083911525" y="1456.0" type="line"/>
      <point x="1968.732083911525" y="1456.0" type="line"/>
      <point x="1712.0" y="0.0" type="line"/>
      <point x="1112.0" y="0.0" type="line"/>
      <point x="1200.6924712963578" y="503.0" type="line"/>
      <point x="700.6924712963579" y="503.0" type="line"/>
      <point x="612.0" y="0.0" type="line"/>
    </contour>
  </outline>
</glyph>
<glyph name="I" format="2">
  <advance width="878"/>
  <unicode hex="0049"/>
  <outline>
    <contour>
      <point x="6.0" y="0.0" type="line"/>
      <point x="262.732083911525" y="1456.0" type="line"/>
      <point x="872.732083911525" y="1456.0" type="line"/>
      <point x="616.0" y="0.0" type="line"/>
    </contour>
  </outline>
</glyph>
<glyph name="J" format="2">
  <advance width="1663"/>
  <unicode hex="004A"/>
  <outline>
    <contour>
      <point x="-8.665065320971237" y="535.0" type="qcurve" smooth="yes"/>
      <point x="16.373365939630787" y="677.0" type="line"/>
      <point x="534.3733659396307" y="677.0" type="line"/>
      <point x="517.0933218302013" y="579.0" type="line" smooth="yes"/>
      <point x="492.5838715117246" y="440.0"/>
      <point x="592.4197511707966" y="354.0"/>
      <point x="671.4197511707966" y="354.0" type="qcurve" smooth="yes"/>
      <point x="777.4197511707966" y="354.0"/>
      <point x="901.5838715117245" y="440.0"/>
      <point x="928.0329186179943" y="590.0" type="qcurve" smooth="yes"/>
      <point x="1080.732083911525" y="1456.0" type="line"/>
      <point x="1681.732083911525" y="1456.0" type="line"/>
      <point x="1521.6271854282388" y="548.0" type="line" smooth="yes"/>
      <point x="1474.0189006369533" y="278.0"/>
      <point x="1066.710190578746" y="-30.0"/>
      <point x="651.710190578746" y="-30.0" type="qcurve" smooth="yes"/>
      <point x="249.71019057874605" y="-30.0"/>
      <point x="-60.857851610676875" y="239.0"/>
    </contour>
  </outline>
</glyph>
<glyph name="K" format="2">
  <advance width="2101"/>
  <unicode hex="004B"/>
  <anchor x="1050.5" y="0" name="bottom"/>
  <anchor x="1050.5" y="1456" name="top"/>
  <outline>
    <contour>
      <point x="12.0" y="0.0" type="line"/>
      <point x="268.732083911525" y="1456.0" type="line"/>
      <point x="868.732083911525" y="1456.0" type="line"/>
      <point x="790.619231457675" y="1013.0" type="line"/>
      <point x="1455.732083911525" y="1456.0" type="line"/>
      <point x="2208.732083911525" y="1456.0" type="line"/>
      <point x="690.6418333959754" y="446.0" type="line"/>
      <point x="612.0" y="0.0" type="line"/>
    </contour>
    <contour>
      <point x="1235.0" y="0.0" type="line"/>
      <point x="675.668058016797" y="673.0" type="line"/>
      <point x="1168.5033076891734" y="1001.0" type="line"/>
      <point x="2016.0" y="0.0" type="line"/>
    </contour>
  </outline>
</glyph>
<glyph name="L" format="2">
  <advance width="1518"/>
  <unicode hex="004C"/>
  <outline>
    <contour>
      <point x="12.0" y="0.0" type="line"/>
      <point x="268.732083911525" y="1456.0" type="line"/>
      <point x="868.732083911525" y="1456.0" type="line"/>
      <point x="694.8736809329786" y="470.0" type="line"/>
      <point x="1468.8736809329785" y="470.0" type="line"/>
      <point x="1386.0" y="0.0" type="line"/>
    </contour>
  </outline>
</glyph>
<glyph name="M" format="2">
  <advance width="2644"/>
  <unicode hex="004D"/>
  <anchor x="1322.0" y="0" name="bottom"/>
  <anchor x="1322.0" y="1456" name="top"/>
  <outline>
    <contour>
      <point x="12.0" y="0.0" type="line"/>
      <point x="268.732083911525" y="1456.0" type="line"/>
      <point x="987.732083911525" y="1456.0" type="line"/>
      <point x="1309.5978894927657" y="752.0" type="line" smooth="yes"/>
      <point x="1315.481965724264" y="740.0"/>
      <point x="1319.2476768593049" y="733.0"/>
      <point x="1321.3660419557625" y="728.0" type="qcurve"/>
      <point x="1323.3660419557625" y="728.0" type="line"/>
      <point x="1327.2476768593049" y="733.0"/>
      <point x="1333.481965724264" y="740.0"/>
      <point x="1343.5978894927657" y="752.0" type="qcurve" smooth="yes"/>
      <point x="1906.732083911525" y="1456.0" type="line"/>
      <point x="2632.732083911525" y="1456.0" type="line"/>
      <point x="2376.0" y="0.0" type="line"/>
      <point x="1791.0" y="0.0" type="line"/>
      <point x="1903.4966136920007" y="638.0" type="line" smooth="yes"/>
      <point x="1906.6704993447531" y="656.0"/>
      <point x="1908.962750093963" y="669.0"/>
      <point x="1912.1366357467155" y="687.0" type="qcurve"/>
      <point x="1908.1366357467155" y="687.0" type="line"/>
      <point x="1892.4337691518376" y="666.0"/>
      <point x="1886.3758072675869" y="660.0"/>
      <point x="1871.025594634126" y="641.0" type="qcurve" smooth="yes"/>
      <point x="1361.0" y="0.0" type="line"/>
      <point x="1023.0" y="0.0" type="line"/>
      <point x="731.6729406727092" y="639.0" type="line" smooth="yes"/>
      <point x="722.8468263254615" y="657.0"/>
      <point x="720.3758072675869" y="660.0"/>
      <point x="713.0786738624647" y="681.0" type="qcurve"/>
      <point x="709.0786738624647" y="681.0" type="line"/>
      <point x="704.8468263254615" y="657.0"/>
      <point x="703.7888644412108" y="651.0"/>
      <point x="701.3202867112922" y="637.0" type="qcurve" smooth="yes"/>
      <point x="589.0" y="0.0" type="line"/>
    </contour>
  </outline>
</glyph>
<glyph name="N" format="2">
  <advance width="1917"/>
  <unicode hex="004E"/>
  <outline>
    <contour>
      <point x="12.0" y="0.0" type="line"/>
      <point x="268.732083911525" y="1456.0" type="line"/>
      <point x="847.732083911525" y="1456.0" type="line"/>
      <point x="1262.711371933311" y="781.0" type="line" smooth="yes"/>
      <point x="1269.771775145518" y="770.0"/>
      <point x="1271.2427942033926" y="767.0"/>
      <point x="1275.6558513770165" y="758.0" type="qcurve"/>
      <point x="1279.6558513770165" y="758.0" type="line"/>
      <point x="1283.5350449526027" y="780.0"/>
      <point x="1287.2379115474805" y="801.0"/>
      <point x="1291.1171051230667" y="823.0" type="qcurve" smooth="yes"/>
      <point x="1402.732083911525" y="1456.0" type="line"/>
      <point x="1905.732083911525" y="1456.0" type="line"/>
      <point x="1649.0" y="0.0" type="line"/>
      <point x="1089.0" y="0.0" type="line"/>
      <point x="660.7235785730916" y="696.0" type="line" smooth="yes"/>
      <point x="654.4868483801763" y="706.0"/>
      <point x="649.897464225844" y="714.0"/>
      <point x="645.189714975054" y="727.0" type="qcurve"/>
      <point x="642.189714975054" y="727.0" type="line"/>
      <point x="640.6027721486779" y="718.0"/>
      <point x="639.7211372451355" y="713.0"/>
      <point x="639.1921563030102" y="710.0" type="qcurve" smooth="yes"/>
      <point x="517.0" y="0.0" type="line"/>
    </contour>
  </outline>
</glyph>
<glyph name="O" format="2">
  <advance width="2110"/>
  <unicode hex="004F"/>
  <anchor x="1055.0" y="0" name="bottom"/>
  <anchor x="1055.0" y="728.0" name="center"/>
  <anchor x="1264" y="0" name="ogonek"/>
  <anchor x="1055.0" y="1456" name="top"/>
  <anchor x="1477" y="1456" name="topright"/>
  <outline>
    <contour>
      <point x="44" y="768.0" type="qcurve" smooth="yes"/>
      <point x="46" y="780.0" type="line" smooth="yes"/>
      <point x="109" y="1158"/>
      <point x="751" y="1487.0"/>
      <point x="1181" y="1486.0" type="qcurve" smooth="yes"/>
      <point x="1612" y="1485.0"/>
      <point x="2129" y="1070"/>
      <point x="2062" y="703.0" type="qcurve" smooth="yes"/>
      <point x="2060" y="692.0" type="line" smooth="yes"/>
      <point x="1989" y="300"/>
      <point x="1351" y="-30.0"/>
      <point x="921" y="-29.0" type="qcurve" smooth="yes"/>
      <point x="490" y="-28.0"/>
      <point x="-20" y="385"/>
    </contour>
    <contour>
      <point x="643" y="727.0" type="line" smooth="yes"/>
      <point x="611" y="536.0"/>
      <point x="792" y="358.0"/>
      <point x="990" y="358.0" type="qcurve" smooth="yes"/>
      <point x="1184" y="358"/>
      <point x="1426" y="535.0"/>
      <point x="1463" y="722.0" type="qcurve" smooth="yes"/>
      <point x="1467" y="742.0" type="line" smooth="yes"/>
      <point x="1501" y="916.0"/>
      <point x="1309" y="1085"/>
      <point x="1114" y="1085.0" type="qcurve" smooth="yes"/>
      <point x="915" y="1085.0"/>
      <point x="674" y="919.0"/>
      <point x="646" y="745.0" type="qcurve" smooth="yes"/>
    </contour>
  </outline>
</glyph>
<glyph name="P" format="2">
  <advance width="1927"/>
  <unicode hex="0050"/>
  <anchor x="963.5" y="0" name="bottom"/>
  <anchor x="963.5" y="1456" name="top"/>
  <outline>
    <contour>
      <point x="12.0" y="0.0" type="line"/>
      <point x="268.732083911525" y="1456.0" type="line"/>
      <point x="1434.732083911525" y="1456.0" type="line" smooth="yes"/>
      <point x="1727.732083911525" y="1456.0"/>
      <point x="1970.0707198919008" y="1146.0"/>
      <point x="1920.3465113321136" y="864.0" type="qcurve" smooth="yes"/>
      <point x="1873.443534463662" y="598.0"/>
      <point x="1530.1952276176617" y="279.0"/>
      <point x="1214.1952276176617" y="279.0" type="qcurve" smooth="yes"/>
      <point x="661.1952276176618" y="279.0" type="line"/>
      <point x="612.0" y="0.0" type="line"/>
    </contour>
    <contour>
      <point x="728.7284612290039" y="662.0" type="line"/>
      <point x="1111.7284612290039" y="662.0" type="line" smooth="yes"/>
      <point x="1207.7284612290039" y="662.0"/>
      <point x="1303.8321783577248" y="759.0"/>
      <point x="1319.8779336021953" y="850.0" type="qcurve" smooth="yes"/>
      <point x="1337.3343046923333" y="949.0"/>
      <point x="1273.8510789946781" y="1037.0"/>
      <point x="1177.8510789946781" y="1037.0" type="qcurve" smooth="yes"/>
      <point x="794.8510789946781" y="1037.0" type="line"/>
    </contour>
  </outline>
</glyph>
<glyph name="Q" format="2">
  <advance width="2154"/>
  <unicode hex="0051"/>
  <anchor x="1077.0" y="0" name="bottom"/>
  <anchor x="1077.0" y="1456" name="top"/>
  <outline>
    <contour>
      <point x="25.07134987859635" y="732.0" type="qcurve" smooth="yes"/>
      <point x="27.187273647097953" y="744.0" type="line" smooth="yes"/>
      <point x="91.89927556710458" y="1111.0"/>
      <point x="767.021893332779" y="1486.0"/>
      <point x="1210.021893332779" y="1486.0" type="qcurve" smooth="yes"/>
      <point x="1653.021893332779" y="1486.0"/>
      <point x="2197.8992755671047" y="1111.0"/>
      <point x="2133.1872736470978" y="744.0" type="qcurve" smooth="yes"/>
      <point x="2131.0713498785963" y="732.0" type="line" smooth="yes"/>
      <point x="2063.7144432479627" y="350.0"/>
      <point x="1385.710190578746" y="-30.0"/>
      <point x="942.710190578746" y="-30.0" type="qcurve" smooth="yes"/>
      <point x="499.71019057874605" y="-30.0"/>
      <point x="-42.28555675203725" y="350.0"/>
    </contour>
    <contour>
      <point x="654.189714975054" y="727.0" type="line" smooth="yes"/>
      <point x="622.2745314668218" y="546.0"/>
      <point x="813.8303670164644" y="362.0"/>
      <point x="1012.948732112922" y="357.0" type="qcurve" smooth="yes"/>
      <point x="1209.0670972093797" y="352.0"/>
      <point x="1469.2745314668218" y="546.0"/>
      <point x="1500.6607340329288" y="724.0" type="qcurve" smooth="yes"/>
      <point x="1504.187273647098" y="744.0" type="line" smooth="yes"/>
      <point x="1533.2812254639946" y="909.0"/>
      <point x="1337.4331391651422" y="1080.0"/>
      <point x="1141.3147740686845" y="1085.0" type="qcurve" smooth="yes"/>
      <point x="941.1964089722269" y="1090.0"/>
      <point x="686.2812254639947" y="909.0"/>
      <point x="657.3636006278064" y="745.0" type="qcurve" smooth="yes"/>
    </contour>
    <contour>
      <point x="1544.9206961508398" y="-267.0" type="line"/>
      <point x="896.4466057783136" y="167.0" type="line"/>
      <point x="1244.8663569491102" y="521.0" type="line"/>
      <point x="1896.8694282637618" y="90.0" type="line"/>
    </contour>
  </outline>
</glyph>
<glyph name="R" format="2">
  <advance width="2002"/>
  <unicode hex="0052"/>
  <anchor x="1001.0" y="0" name="bottom"/>
  <anchor x="867.0" y="1456" name="top"/>
  <outline>
    <contour>
      <point x="12.0" y="0.0" type="line"/>
      <point x="268.732083911525" y="1456.0" type="line"/>
      <point x="1468.732083911525" y="1456.0" type="line" smooth="yes"/>
      <point x="1728.732083911525" y="1456.0"/>
      <point x="1961.7107419466156" y="1195.0"/>
      <point x="1918.8632856344586" y="952.0" type="qcurve" smooth="yes"/>
      <point x="1873.0182706502578" y="692.0"/>
      <point x="1539.823043032596" y="413.0"/>
      <point x="1275.823043032596" y="413.0" type="qcurve" smooth="yes"/>
      <point x="684.823043032596" y="413.0" type="line"/>
      <point x="612.0" y="0.0" type="line"/>
    </contour>
    <contour>
      <point x="748.8297370297688" y="776.0" type="line"/>
      <point x="1177.8297370297687" y="776.0" type="line" smooth="yes"/>
      <point x="1226.8297370297687" y="776.0"/>
      <point x="1290.996298698653" y="845.0"/>
      <point x="1302.4575524447032" y="910.0" type="qcurve" smooth="yes"/>
      <point x="1314.4477871328788" y="978.0"/>
      <point x="1275.4959837053052" y="1052.0"/>
      <point x="1226.4959837053052" y="1052.0" type="qcurve" smooth="yes"/>
      <point x="797.4959837053052" y="1052.0" type="line"/>
    </contour>
    <contour>
      <point x="1209.0" y="0.0" type="line"/>
      <point x="972.1512837144519" y="585.0" type="line"/>
      <point x="1513.3105213994677" y="705.0" type="line"/>
      <point x="1860.0" y="0.0" type="line"/>
    </contour>
  </outline>
</glyph>
<glyph name="S" format="2">
  <advance width="1824"/>
  <unicode hex="0053"/>
  <outline>
    <contour>
      <point x="-31.114112427240983" y="385.0" type="qcurve" smooth="yes"/>
      <point x="-19.18672227922835" y="481.0" type="line"/>
      <point x="512.8132777207717" y="481.0" type="line"/>
      <point x="514.8181603766839" y="447.0" type="line" smooth="yes"/>
      <point x="518.885887572759" y="385.0"/>
      <point x="664.4801543830035" y="343.0"/>
      <point x="857.4801543830035" y="343.0" type="qcurve" smooth="yes"/>
      <point x="1032.4801543830035" y="343.0"/>
      <point x="1169.2989447463829" y="376.0"/>
      <point x="1175.6467160518876" y="412.0" type="qcurve" smooth="yes"/>
      <point x="1181.2891794345585" y="444.0"/>
      <point x="1067.6369507400632" y="480.0"/>
      <point x="726.6900299684017" y="520.0" type="qcurve" smooth="yes"/>
      <point x="354.44841711957423" y="564.0"/>
      <point x="56.006064010477274" y="777.0"/>
      <point x="93.91636486279725" y="992.0" type="qcurve" smooth="yes"/>
      <point x="136.23484023282884" y="1232.0"/>
      <point x="599.021893332779" y="1486.0"/>
      <point x="1000.021893332779" y="1486.0" type="qcurve" smooth="yes"/>
      <point x="1417.021893332779" y="1486.0"/>
      <point x="1813.5222083261267" y="1279.0"/>
      <point x="1787.9670027631798" y="1049.0" type="qcurve"/>
      <point x="1780.8584029785466" y="986.0" type="line"/>
      <point x="1255.8584029785466" y="986.0" type="line"/>
      <point x="1253.7375965541328" y="1008.0" type="line" smooth="yes"/>
      <point x="1249.9090408789289" y="1043.0"/>
      <point x="1138.2543708564776" y="1096.0"/>
      <point x="943.2543708564776" y="1096.0" type="qcurve" smooth="yes"/>
      <point x="795.2543708564776" y="1096.0"/>
      <point x="678.9645614352237" y="1066.0"/>
      <point x="673.8510789946781" y="1037.0" type="qcurve" smooth="yes"/>
      <point x="669.7955584383835" y="1014.0"/>
      <point x="762.034729959255" y="987.0"/>
      <point x="1135.2763428080825" y="943.0" type="qcurve" smooth="yes"/>
      <point x="1485.0469365990355" y="902.0"/>
      <point x="1801.4240038400133" y="734.0"/>
      <point x="1759.2818554506903" y="495.0" type="qcurve" smooth="yes"/>
      <point x="1714.6711293314486" y="242.0"/>
      <point x="1226.710190578746" y="-30.0"/>
      <point x="804.710190578746" y="-30.0" type="qcurve" smooth="yes"/>
      <point x="381.71019057874605" y="-30.0"/>
      <point x="-57.31910535672709" y="174.0"/>
    </contour>
  </outline>
</glyph>
<glyph name="T" format="2">
  <advance width="1772"/>
  <unicode hex="0054"/>
  <anchor x="886.0" y="0" name="bottom"/>
  <anchor x="886.0" y="728.0" name="center"/>
  <anchor x="886.0" y="1456" name="top"/>
  <outline>
    <contour>
      <point x="62.56371090138032" y="990.0" type="line"/>
      <point x="144.73208391152502" y="1456.0" type="line"/>
      <point x="1884.732083911525" y="1456.0" type="line"/>
      <point x="1802.5637109013803" y="990.0" type="line"/>
      <point x="1237.5637109013803" y="990.0" type="line"/>
      <point x="1063.0" y="0.0" type="line"/>
      <point x="453.0" y="0.0" type="line"/>
      <point x="627.5637109013803" y="990.0" type="line"/>
    </contour>
  </outline>
</glyph>
<glyph name="U" format="2">
  <advance width="2037"/>
  <unicode hex="0055"/>
  <outline>
    <contour>
      <point x="95.43865180774986" y="632.0" type="qcurve" smooth="yes"/>
      <point x="240.73208391152502" y="1456.0" type="line"/>
      <point x="838.732083911525" y="1456.0" type="line"/>
      <point x="692.2043629427906" y="625.0" type="line" smooth="yes"/>
      <point x="666.1079697979378" y="477.0"/>
      <point x="823.6540400357559" y="361.0"/>
      <point x="956.6540400357558" y="361.0" type="qcurve" smooth="yes"/>
      <point x="1089.6540400357558" y="361.0"/>
      <point x="1264.9316428172294" y="476.0"/>
      <point x="1291.2043629427906" y="625.0" type="qcurve" smooth="yes"/>
      <point x="1437.732083911525" y="1456.0" type="line"/>
      <point x="2038.732083911525" y="1456.0" type="line"/>
      <point x="1893.43865180775" y="632.0" type="line" smooth="yes"/>
      <point x="1836.6613640196242" y="310.0"/>
      <point x="1325.710190578746" y="-30.0"/>
      <point x="906.710190578746" y="-30.0" type="qcurve" smooth="yes"/>
      <point x="482.71019057874605" y="-30.0"/>
      <point x="36.72176723183102" y="299.0"/>
    </contour>
  </outline>
</glyph>
<glyph name="V" format="2">
  <advance width="1928"/>
  <unicode hex="0056"/>
  <outline>
    <contour>
      <point x="68.73208391152502" y="1456.0" type="line"/>
      <point x="681.732083911525" y="1456.0" type="line"/>
      <point x="931.6174201164145" y="616.0" type="line" smooth="yes"/>
      <point x="936.148842386496" y="602.0"/>
      <point x="940.2092455987029" y="591.0"/>
      <point x="946.506379003825" y="570.0" type="qcurve"/>
      <point x="947.506379003825" y="570.0" type="line"/>
      <point x="958.6802646565775" y="588.0"/>
      <point x="965.443534463662" y="598.0"/>
      <point x="977.6174201164145" y="616.0" type="qcurve" smooth="yes"/>
      <point x="1517.732083911525" y="1456.0" type="line"/>
      <point x="2116.732083911525" y="1456.0" type="line"/>
      <point x="1152.4130571736239" y="-9.0" type="line"/>
      <point x="510.41305717362377" y="-9.0" type="line"/>
    </contour>
  </outline>
</glyph>
<glyph name="W" format="2">
  <advance width="2881"/>
  <unicode hex="0057"/>
  <guideline x="855.3202867112922" y="637" angle="0" identifier="5FDfgYY8wp"/>
  <guideline x="830.148842386496" y="602" angle="0" identifier="RXbP1iKdMY"/>
  <outline>
    <contour>
      <point x="370.0" y="0.0" type="line"/>
      <point x="88.73208391152502" y="1456.0" type="line"/>
      <point x="674.732083911525" y="1456.0" type="line"/>
      <point x="840.3831312514552" y="609.0" type="line" smooth="yes"/>
      <point x="842.6198614443705" y="599.0"/>
      <point x="845.9749567337435" y="584.0"/>
      <point x="848.2116869266589" y="574.0" type="qcurve"/>
      <point x="851.2116869266589" y="574.0" type="line"/>
      <point x="858.151283714452" y="585.0"/>
      <point x="866.6198614443705" y="599.0"/>
      <point x="872.3831312514552" y="609.0" type="qcurve" smooth="yes"/>
      <point x="1342.732083911525" y="1456.0" type="line"/>
      <point x="1822.732083911525" y="1456.0" type="line"/>
      <point x="2016.3831312514553" y="609.0" type="line" smooth="yes"/>
      <point x="2019.9145535215366" y="595.0"/>
      <point x="2024.6223027723267" y="582.0"/>
      <point x="2027.2116869266588" y="574.0" type="qcurve"/>
      <point x="2030.2116869266588" y="574.0" type="line"/>
      <point x="2034.2696488109095" y="580.0"/>
      <point x="2045.6198614443706" y="599.0"/>
      <point x="2051.3831312514553" y="609.0" type="qcurve" smooth="yes"/>
      <point x="2492.732083911525" y="1456.0" type="line"/>
      <point x="3049.732083911525" y="1456.0" type="line"/>
      <point x="2255.0" y="0.0" type="line"/>
      <point x="1673.0" y="0.0" type="line"/>
      <point x="1478.5881241809413" y="820.0" type="line" smooth="yes"/>
      <point x="1476.1750670073175" y="829.0"/>
      <point x="1473.9383368144022" y="839.0"/>
      <point x="1472.996298698653" y="845.0" type="qcurve"/>
      <point x="1468.996298698653" y="845.0" type="line"/>
      <point x="1465.9383368144022" y="839.0"/>
      <point x="1460.1750670073175" y="829.0"/>
      <point x="1454.5881241809413" y="820.0" type="qcurve" smooth="yes"/>
      <point x="971.0" y="0.0" type="line"/>
    </contour>
  </outline>
</glyph>
<glyph name="X" format="2">
  <advance width="1826"/>
  <unicode hex="0058"/>
  <anchor x="913.0" y="0" name="bottom"/>
  <anchor x="913.0" y="1456" name="top"/>
  <outline>
    <contour>
      <point x="-168.0" y="0.0" type="line"/>
      <point x="709.0493779269915" y="885.0" type="line"/>
      <point x="831.0493779269915" y="885.0" type="line"/>
      <point x="1391.732083911525" y="1456.0" type="line"/>
      <point x="1990.732083911525" y="1456.0" type="line"/>
      <point x="1121.859032965242" y="572.0" type="line"/>
      <point x="993.859032965242" y="572.0" type="line"/>
      <point x="434.0" y="0.0" type="line"/>
    </contour>
    <contour>
      <point x="112.73208391152502" y="1456.0" type="line"/>
      <point x="812.732083911525" y="1456.0" type="line"/>
      <point x="1145.9285715025778" y="907.0" type="line"/>
      <point x="1146.1048984832862" y="908.0" type="line"/>
      <point x="1738.0" y="0.0" type="line"/>
      <point x="1037.0" y="0.0" type="line"/>
      <point x="666.6223027723266" y="582.0" type="line"/>
      <point x="666.7986297530351" y="583.0" type="line"/>
    </contour>
  </outline>
</glyph>
<glyph name="Y" format="2">
  <advance width="1851"/>
  <unicode hex="0059"/>
  <anchor x="925.5" y="0" name="bottom"/>
  <anchor x="950" y="1456" name="top"/>
  <outline>
    <contour>
      <point x="493.0" y="0.0" type="line"/>
      <point x="582.3977792191918" y="507.0" type="line"/>
      <point x="48.732083911525024" y="1456.0" type="line"/>
      <point x="682.732083911525" y="1456.0" type="line"/>
      <point x="961.3343046923333" y="949.0" type="line" smooth="yes"/>
      <point x="966.5710348852485" y="939.0"/>
      <point x="972.6314380974554" y="928.0"/>
      <point x="979.162860367537" y="914.0" type="qcurve"/>
      <point x="986.162860367537" y="914.0" type="line"/>
      <point x="998.6314380974554" y="928.0"/>
      <point x="1007.5710348852485" y="939.0"/>
      <point x="1016.3343046923333" y="949.0" type="qcurve" smooth="yes"/>
      <point x="1463.732083911525" y="1456.0" type="line"/>
      <point x="2059.732083911525" y="1456.0" type="line"/>
      <point x="1192.3977792191918" y="507.0" type="line"/>
      <point x="1103.0" y="0.0" type="line"/>
    </contour>
  </outline>
</glyph>
<glyph name="Z" format="2">
  <advance width="1802"/>
  <unicode hex="005A"/>
  <anchor x="901.0" y="0" name="bottom"/>
  <anchor x="901.0" y="1456" name="top"/>
  <outline>
    <contour>
      <point x="-106.0" y="0.0" type="line"/>
      <point x="-47.81209636620656" y="330.0" type="line"/>
      <point x="858.5637109013803" y="990.0" type="line"/>
      <point x="91.56371090138032" y="990.0" type="line"/>
      <point x="173.73208391152502" y="1456.0" type="line"/>
      <point x="1864.732083911525" y="1456.0" type="line"/>
      <point x="1803.0176406635624" y="1106.0" type="line"/>
      <point x="906.6418333959755" y="446.0" type="line"/>
      <point x="1730.6418333959755" y="446.0" type="line"/>
      <point x="1652.0" y="0.0" type="line"/>
    </contour>
  </outline>
</glyph>
<glyph name="bracketleft" format="2">
  <advance width="989"/>
  <unicode hex="005B"/>
  <outline>
    <contour>
      <point x="-22.661364019624145" y="-310.0" type="line"/>
      <point x="288.732083911525" y="1456.0" type="line"/>
      <point x="1106.732083911525" y="1456.0" type="line"/>
      <point x="1037.0829265316813" y="1061.0" type="line"/>
      <point x="746.0829265316813" y="1061.0" type="line"/>
      <point x="573.9877933602195" y="85.0" type="line"/>
      <point x="864.9877933602195" y="85.0" type="line"/>
      <point x="795.3386359803759" y="-310.0" type="line"/>
    </contour>
  </outline>
</glyph>
<glyph name="backslash" format="2">
  <advance width="1284"/>
  <unicode hex="005C"/>
  <outline>
    <contour>
      <point x="140.73208391152502" y="1456.0" type="line"/>
      <point x="655.732083911525" y="1456.0" type="line"/>
      <point x="1230.9591274114418" y="-125.0" type="line"/>
      <point x="716.9591274114418" y="-125.0" type="line"/>
    </contour>
  </outline>
</glyph>
<glyph name="bracketright" format="2">
  <advance width="981"/>
  <unicode hex="005D"/>
  <outline>
    <contour>
      <point x="676.3386359803759" y="-310.0" type="line"/>
      <point x="-141.66136401962416" y="-310.0" type="line"/>
      <point x="-72.01220663978047" y="85.0" type="line"/>
      <point x="182.98779336021954" y="85.0" type="line"/>
      <point x="355.0829265316813" y="1061.0" type="line"/>
      <point x="100.08292653168135" y="1061.0" type="line"/>
      <point x="169.73208391152502" y="1456.0" type="line"/>
      <point x="987.732083911525" y="1456.0" type="line"/>
    </contour>
  </outline>
</glyph>
<glyph name="asciicircum" format="2">
  <advance width="1247"/>
  <unicode hex="005E"/>
  <outline>
    <contour>
      <point x="3.955426110094777" y="720.0" type="line"/>
      <point x="538.732083911525" y="1456.0" type="line"/>
      <point x="965.732083911525" y="1456.0" type="line"/>
      <point x="1240.9554261100948" y="720.0" type="line"/>
      <point x="803.9554261100948" y="720.0" type="line"/>
      <point x="675.911482206885" y="1026.0" type="line"/>
      <point x="440.9554261100948" y="720.0" type="line"/>
    </contour>
  </outline>
</glyph>
<glyph name="underscore" format="2">
  <advance width="1112"/>
  <unicode hex="005F"/>
  <outline>
    <contour>
      <point x="-211.050007913687" y="-471.0" type="line"/>
      <point x="-141.22452355313487" y="-75.0" type="line"/>
      <point x="970.775476446865" y="-75.0" type="line"/>
      <point x="900.9499920863129" y="-471.0" type="line"/>
    </contour>
  </outline>
</glyph>
<glyph name="grave" format="2">
  <advance width="1024"/>
  <unicode hex="0060"/>
  <outline>
    <contour>
      <point x="341.85596165059036" y="1003.0" type="line"/>
      <point x="149.09694451272242" y="1373.0" type="line"/>
      <point x="702.0194520048228" y="1503.0" type="line"/>
      <point x="848.7784691426908" y="1133.0" type="line"/>
    </contour>
  </outline>
</glyph>
<glyph name="a" format="2">
  <advance width="1600"/>
  <unicode hex="0061"/>
  <outline>
    <contour>
      <point x="-77.57048351737902" y="286.0" type="qcurve" smooth="yes"/>
      <point x="-53.06103319890238" y="425.0"/>
      <point x="192.91943617744886" y="561.0"/>
      <point x="424.39045523532343" y="558.0" type="qcurve" smooth="yes"/>
      <point x="885.5088203317812" y="553.0" type="line"/>
      <point x="894.6778233286213" y="605.0" type="line" smooth="yes"/>
      <point x="899.2623248270413" y="631.0"/>
      <point x="843.7284612290039" y="662.0"/>
      <point x="753.7284612290039" y="662.0" type="qcurve" smooth="yes"/>
      <point x="681.7284612290039" y="662.0"/>
      <point x="612.4386518077499" y="632.0"/>
      <point x="606.9725154057875" y="601.0" type="qcurve" smooth="yes"/>
      <point x="603.4459757916181" y="581.0" type="line"/>
      <point x="88.97495673374354" y="584.0" type="line"/>
      <point x="91.61986144437051" y="599.0" type="line" smooth="yes"/>
      <point x="120.0085053384334" y="760.0"/>
      <point x="523.6265554415434" y="962.0"/>
      <point x="860.6265554415434" y="962.0" type="qcurve" smooth="yes"/>
      <point x="1229.6265554415434" y="962.0"/>
      <point x="1504.5374862805588" y="763.0"/>
      <point x="1468.214128254615" y="557.0" type="qcurve" smooth="yes"/>
      <point x="1402.0915104889407" y="182.0" type="line" smooth="yes"/>
      <point x="1393.2751614535173" y="132.0"/>
      <point x="1398.582060170464" y="43.0"/>
      <point x="1415.1159237685015" y="12.0" type="qcurve"/>
      <point x="1413.0" y="0.0" type="line"/>
      <point x="827.0" y="0.0" type="line"/>
      <point x="814.2318475370032" y="24.0"/>
      <point x="810.4008505338434" y="76.0"/>
      <point x="816.746180511392" y="129.0" type="qcurve"/>
      <point x="757.6955426110095" y="72.0"/>
      <point x="495.7077492507899" y="-13.0"/>
      <point x="298.70774925078996" y="-13.0" type="qcurve" smooth="yes"/>
      <point x="86.70774925078996" y="-13.0"/>
      <point x="-102.07993383585566" y="147.0"/>
    </contour>
    <contour>
      <point x="502.0695385373358" y="335.0" type="qcurve" smooth="yes"/>
      <point x="495.721767231831" y="299.0"/>
      <point x="545.6686880034924" y="259.0"/>
      <point x="611.6686880034924" y="259.0" type="qcurve" smooth="yes"/>
      <point x="694.6686880034924" y="259.0"/>
      <point x="842.3087100582072" y="308.0"/>
      <point x="853.4173098428405" y="371.0" type="qcurve"/>
      <point x="853.593636823549" y="372.0" type="line"/>
      <point x="603.1226177656744" y="375.0" type="line" smooth="yes"/>
      <point x="549.2989447463829" y="376.0"/>
      <point x="506.3013860743389" y="359.0"/>
    </contour>
  </outline>
</glyph>
<glyph name="b" format="2">
  <advance width="1700"/>
  <unicode hex="0062"/>
  <outline>
    <contour>
      <point x="-40.0" y="0.0" type="line"/>
      <point x="217.08473787294196" y="1458.0" type="line"/>
      <point x="791.084737872942" y="1458.0" type="line"/>
      <point x="673.2983147596874" y="790.0" type="line"/>
      <point x="726.7016066214868" y="849.0"/>
      <point x="950.4526697887909" y="944.0"/>
      <point x="1114.452669788791" y="944.0" type="qcurve" smooth="yes"/>
      <point x="1363.452669788791" y="944.0"/>
      <point x="1653.4892897081324" y="689.0"/>
      <point x="1614.5210269715617" y="468.0" type="qcurve" smooth="yes"/>
      <point x="1612.40510320306" y="456.0" type="line" smooth="yes"/>
      <point x="1571.1445897172791" y="222.0"/>
      <point x="1174.710190578746" y="-30.0"/>
      <point x="935.710190578746" y="-30.0" type="qcurve" smooth="yes"/>
      <point x="778.710190578746" y="-30.0"/>
      <point x="590.7583871511724" y="44.0"/>
      <point x="553.1061584566772" y="80.0" type="qcurve"/>
      <point x="552.1061584566772" y="80.0" type="line"/>
      <point x="538.0" y="0.0" type="line"/>
    </contour>
    <contour>
      <point x="605.7095605920506" y="384.0" type="line"/>
      <point x="623.7699638042575" y="373.0"/>
      <point x="745.951173440878" y="340.0"/>
      <point x="823.951173440878" y="340.0" type="qcurve" smooth="yes"/>
      <point x="912.9511734408782" y="340.0"/>
      <point x="1018.1201764377183" y="392.0"/>
      <point x="1028.8761222609346" y="453.0" type="qcurve"/>
      <point x="1030.110411125894" y="460.0" type="line"/>
      <point x="1039.4557411034425" y="513.0"/>
      <point x="954.2116869266588" y="574.0"/>
      <point x="847.2116869266589" y="574.0" type="qcurve" smooth="yes"/>
      <point x="771.2116869266589" y="574.0"/>
      <point x="653.0402426018626" y="539.0"/>
      <point x="630.2190109105272" y="523.0" type="qcurve"/>
    </contour>
  </outline>
</glyph>
<glyph name="c" format="2">
  <advance width="1607"/>
  <unicode hex="0063"/>
  <anchor x="823" y="0" name="bottom"/>
  <anchor x="820" y="915" name="top"/>
  <outline>
    <contour>
      <point x="-6.88958887410611" y="460.0" type="qcurve" smooth="yes"/>
      <point x="-4.597338124896069" y="473.0" type="line" smooth="yes"/>
      <point x="35.07623253450856" y="698.0"/>
      <point x="497.62655544154336" y="962.0"/>
      <point x="859.6265554415434" y="962.0" type="qcurve" smooth="yes"/>
      <point x="1198.6265554415434" y="962.0"/>
      <point x="1545.2476768593049" y="733.0"/>
      <point x="1527.8663569491102" y="521.0" type="qcurve" smooth="yes"/>
      <point x="1525.2238935664393" y="489.0" type="line"/>
      <point x="996.2238935664393" y="489.0" type="line"/>
      <point x="995.987163373524" y="499.0" type="line" smooth="yes"/>
      <point x="995.0402426018627" y="539.0"/>
      <point x="909.2116869266588" y="574.0"/>
      <point x="815.2116869266589" y="574.0" type="qcurve" smooth="yes"/>
      <point x="702.2116869266589" y="574.0"/>
      <point x="592.2190109105272" y="523.0"/>
      <point x="582.1683730101447" y="466.0" type="qcurve" smooth="yes"/>
      <point x="579.5234682995177" y="451.0" type="line" smooth="yes"/>
      <point x="569.4728303991352" y="394.0"/>
      <point x="660.4801543830035" y="343.0"/>
      <point x="772.4801543830035" y="343.0" type="qcurve" smooth="yes"/>
      <point x="872.4801543830035" y="343.0"/>
      <point x="972.4173098428405" y="371.0"/>
      <point x="982.8834462448028" y="402.0" type="qcurve" smooth="yes"/>
      <point x="987.3520239747215" y="416.0" type="line"/>
      <point x="1512.3520239747215" y="416.0" type="line"/>
      <point x="1504.3569066306336" y="382.0" type="line" smooth="yes"/>
      <point x="1457.267837469649" y="183.0"/>
      <point x="1035.710190578746" y="-30.0"/>
      <point x="689.710190578746" y="-30.0" type="qcurve" smooth="yes"/>
      <point x="320.71019057874605" y="-30.0"/>
      <point x="-48.50275632130385" y="224.0"/>
    </contour>
  </outline>
</glyph>
<glyph name="d" format="2">
  <advance width="1701"/>
  <unicode hex="0064"/>
  <outline>
    <contour>
      <point x="-7.418569816231511" y="457.0" type="qcurve" smooth="yes"/>
      <point x="-4.421011144187602" y="474.0" type="line" smooth="yes"/>
      <point x="33.312962727423894" y="688.0"/>
      <point x="388.4526697887909" y="944.0"/>
      <point x="647.2763428080825" y="943.0" type="qcurve" smooth="yes"/>
      <point x="819.4526697887909" y="944.0"/>
      <point x="1027.7620098336936" y="838.0"/>
      <point x="1063.711371933311" y="781.0" type="qcurve"/>
      <point x="1183.084737872942" y="1458.0" type="line"/>
      <point x="1742.084737872942" y="1458.0" type="line"/>
      <point x="1485.0" y="0.0" type="line"/>
      <point x="922.0" y="0.0" type="line"/>
      <point x="943.3355646657242" y="121.0" type="line"/>
      <point x="941.3355646657242" y="121.0" type="line"/>
      <point x="873.4032918617994" y="59.0"/>
      <point x="639.8865175594545" y="-29.0"/>
      <point x="472.88651755945455" y="-29.0" type="qcurve" smooth="yes"/>
      <point x="218.8865175594545" y="-29.0"/>
      <point x="-48.679083302012316" y="223.0"/>
    </contour>
    <contour>
      <point x="574.5234682995177" y="451.0" type="line" smooth="yes"/>
      <point x="564.4728303991352" y="394.0"/>
      <point x="653.7748464601697" y="339.0"/>
      <point x="741.7748464601697" y="339.0" type="qcurve" smooth="yes"/>
      <point x="832.7748464601697" y="339.0"/>
      <point x="959.0042526692166" y="380.0"/>
      <point x="975.8254843605521" y="396.0" type="qcurve"/>
      <point x="996.4557411034425" y="513.0" type="line"/>
      <point x="979.8639156211541" y="538.0"/>
      <point x="872.3880139073674" y="575.0"/>
      <point x="781.3880139073674" y="575.0" type="qcurve" smooth="yes"/>
      <point x="688.3880139073674" y="575.0"/>
      <point x="584.7504331806086" y="509.0"/>
      <point x="575.5814301837685" y="457.0" type="qcurve" smooth="yes"/>
    </contour>
  </outline>
</glyph>
<glyph name="e" format="2">
  <advance width="1647"/>
  <unicode hex="0065"/>
  <anchor x="830" y="0" name="bottom"/>
  <anchor x="983" y="0" name="ogonek"/>
  <anchor x="852" y="914" name="top"/>
  <outline>
    <contour>
      <point x="-6.713261893397643" y="461.0" type="qcurve" smooth="yes"/>
      <point x="-4.773665105604536" y="472.0" type="line" smooth="yes"/>
      <point x="35.252559515217" y="699.0"/>
      <point x="518.6265554415434" y="962.0"/>
      <point x="892.6265554415434" y="962.0" type="qcurve" smooth="yes"/>
      <point x="1254.6265554415434" y="962.0"/>
      <point x="1601.7235785730916" y="696.0"/>
      <point x="1564.8712396050225" y="487.0" type="qcurve" smooth="yes"/>
      <point x="1553.5863128396807" y="423.0" type="line"/>
      <point x="295.58631283968066" y="423.0" type="line"/>
      <point x="310.5741061999002" y="508.0" type="line"/>
      <point x="1015.5741061999001" y="508.0" type="line"/>
      <point x="1016.9847220455679" y="516.0" type="line" smooth="yes"/>
      <point x="1022.4508584475304" y="547.0"/>
      <point x="934.7986297530351" y="583.0"/>
      <point x="820.7986297530351" y="583.0" type="qcurve" smooth="yes"/>
      <point x="707.7986297530351" y="583.0"/>
      <point x="583.921877505405" y="544.0"/>
      <point x="573.6949126243139" y="486.0" type="qcurve" smooth="yes"/>
      <point x="567.6997952802262" y="452.0" type="line" smooth="yes"/>
      <point x="556.0622145534675" y="386.0"/>
      <point x="666.951173440878" y="340.0"/>
      <point x="757.951173440878" y="340.0" type="qcurve" smooth="yes"/>
      <point x="894.951173440878" y="340.0"/>
      <point x="1024.3569066306336" y="382.0"/>
      <point x="1047.4124271869282" y="405.0" type="qcurve"/>
      <point x="1530.8932115566272" y="334.0" type="line"/>
      <point x="1427.9200661641444" y="147.0"/>
      <point x="1050.710190578746" y="-30.0"/>
      <point x="696.710190578746" y="-30.0" type="qcurve" smooth="yes"/>
      <point x="332.71019057874605" y="-30.0"/>
      <point x="-48.85541028272078" y="222.0"/>
    </contour>
  </outline>
</glyph>
<glyph name="f" format="2">
  <advance width="1006"/>
  <unicode hex="0066"/>
  <outline>
    <contour>
      <point x="81.0" y="0.0" type="line"/>
      <point x="263.49842503326124" y="1035.0" type="line" smooth="yes"/>
      <point x="301.9377068277066" y="1253.0"/>
      <point x="686.6112774871112" y="1478.0"/>
      <point x="986.6112774871112" y="1478.0" type="qcurve" smooth="yes"/>
      <point x="1048.6112774871112" y="1478.0"/>
      <point x="1143.6716806993181" y="1467.0"/>
      <point x="1198.084737872942" y="1458.0" type="qcurve"/>
      <point x="1125.3776186088476" y="1057.0" type="line"/>
      <point x="1102.7302725702643" y="1059.0"/>
      <point x="1054.6119074738067" y="1064.0"/>
      <point x="1015.6119074738067" y="1064.0" type="qcurve" smooth="yes"/>
      <point x="929.6119074738067" y="1064.0"/>
      <point x="819.5033076891734" y="1001.0"/>
      <point x="806.9840920588724" y="930.0" type="qcurve" smooth="yes"/>
      <point x="790.9383368144021" y="839.0" type="line"/>
      <point x="799.351393988026" y="830.0" type="line"/>
      <point x="653.0" y="0.0" type="line"/>
    </contour>
    <contour>
      <point x="-33.01527795443208" y="516.0" type="line"/>
      <point x="37.16286036753698" y="914.0" type="line"/>
      <point x="321.16286036753695" y="914.0" type="line"/>
      <point x="339.16286036753695" y="914.0" type="line"/>
      <point x="1062.162860367537" y="914.0" type="line"/>
      <point x="991.9847220455679" y="516.0" type="line"/>
    </contour>
  </outline>
</glyph>
<glyph name="h" format="2">
  <advance width="1647"/>
  <unicode hex="0068"/>
  <anchor x="823.5" y="0" name="bottom"/>
  <anchor x="392" y="1260.0" name="center"/>
  <anchor x="384" y="1456" name="top"/>
  <outline>
    <contour>
      <point x="-40.0" y="0.0" type="line"/>
      <point x="216.73208391152502" y="1456.0" type="line"/>
      <point x="796.732083911525" y="1456.0" type="line"/>
      <point x="671.3636006278064" y="745.0" type="line"/>
      <point x="707.8852575860635" y="799.0"/>
      <point x="977.5685935572926" y="956.0"/>
      <point x="1167.5685935572926" y="956.0" type="qcurve" smooth="yes"/>
      <point x="1375.5685935572926" y="956.0"/>
      <point x="1577.3056387435556" y="739.0"/>
      <point x="1545.0378012739066" y="556.0" type="qcurve" smooth="yes"/>
      <point x="1447.0" y="0.0" type="line"/>
      <point x="867.0" y="0.0" type="line"/>
      <point x="943.1732556660568" y="432.0" type="line" smooth="yes"/>
      <point x="951.6369507400632" y="480.0"/>
      <point x="910.0402426018627" y="539.0"/>
      <point x="841.0402426018626" y="539.0" type="qcurve" smooth="yes"/>
      <point x="772.0402426018626" y="539.0"/>
      <point x="643.4606237593547" y="479.0"/>
      <point x="619.4655064152669" y="445.0" type="qcurve"/>
      <point x="541.0" y="0.0" type="line"/>
    </contour>
  </outline>
</glyph>
<glyph name="i" format="2">
  <advance width="769"/>
  <unicode hex="0069"/>
  <anchor x="384.5" y="0" name="bottom"/>
  <anchor x="384.5" y="914" name="top"/>
  <anchor x="233" y="0" name="ogonek"/>
  <outline>
    <contour>
      <point x="-40.0" y="0.0" type="line"/>
      <point x="121.16286036753698" y="914.0" type="line"/>
      <point x="714.162860367537" y="914.0" type="line"/>
      <point x="553.0" y="0.0" type="line"/>
    </contour>
    <contour>
      <point x="155.58993552220187" y="1217.0" type="qcurve" smooth="yes"/>
      <point x="176.22019226509224" y="1334.0"/>
      <point x="369.2561821977382" y="1493.0"/>
      <point x="521.2561821977382" y="1493.0" type="qcurve" smooth="yes"/>
      <point x="674.2561821977382" y="1493.0"/>
      <point x="807.5728462265092" y="1336.0"/>
      <point x="786.4136085414934" y="1216.0" type="qcurve" smooth="yes"/>
      <point x="766.13600576002" y="1101.0"/>
      <point x="570.8657269624148" y="935.0"/>
      <point x="418.8657269624148" y="935.0" type="qcurve" smooth="yes"/>
      <point x="266.8657269624148" y="935.0"/>
      <point x="135.13600576001994" y="1101.0"/>
    </contour>
  </outline>
</glyph>
<glyph name="j" format="2">
  <advance width="807"/>
  <unicode hex="006A"/>
  <outline>
    <contour>
      <point x="-464.2361002062198" y="-404.0" type="qcurve"/>
      <point x="-404.0604032122069" y="11.0" type="line"/>
      <point x="-376.1763269807085" y="-1.0"/>
      <point x="-287.4081745177116" y="-25.0"/>
      <point x="-181.40817451771161" y="-25.0" type="qcurve" smooth="yes"/>
      <point x="-91.40817451771161" y="-25.0"/>
      <point x="14.697983938965564" y="55.0"/>
      <point x="41.49968500665224" y="207.0" type="qcurve" smooth="yes"/>
      <point x="166.16286036753695" y="914.0" type="line"/>
      <point x="754.162860367537" y="914.0" type="line"/>
      <point x="612.5722948586396" y="111.0" type="line" smooth="yes"/>
      <point x="560.9084895110593" y="-182.0"/>
      <point x="174.41612848827538" y="-440.0"/>
      <point x="-121.5838715117246" y="-440.0" type="qcurve" smooth="yes"/>
      <point x="-223.5838715117246" y="-440.0"/>
      <point x="-407.8810049168468" y="-419.0"/>
    </contour>
    <contour>
      <point x="197.41360854149343" y="1216.0" type="qcurve" smooth="yes"/>
      <point x="218.22019226509224" y="1334.0"/>
      <point x="411.2561821977382" y="1493.0"/>
      <point x="564.2561821977382" y="1493.0" type="qcurve" smooth="yes"/>
      <point x="716.2561821977382" y="1493.0"/>
      <point x="849.5728462265092" y="1336.0"/>
      <point x="828.4136085414934" y="1216.0" type="qcurve" smooth="yes"/>
      <point x="808.13600576002" y="1101.0"/>
      <point x="612.8657269624148" y="935.0"/>
      <point x="460.8657269624148" y="935.0" type="qcurve" smooth="yes"/>
      <point x="308.8657269624148" y="935.0"/>
      <point x="177.13600576001994" y="1101.0"/>
    </contour>
  </outline>
</glyph>
<glyph name="k" format="2">
  <advance width="1716"/>
  <unicode hex="006B"/>
  <outline>
    <contour>
      <point x="-40.0" y="0.0" type="line"/>
      <point x="216.73208391152502" y="1456.0" type="line"/>
      <point x="795.732083911525" y="1456.0" type="line"/>
      <point x="651.4966136920007" y="638.0" type="line"/>
      <point x="1055.162860367537" y="914.0" type="line"/>
      <point x="1707.162860367537" y="914.0" type="line"/>
      <point x="562.2751614535174" y="132.0" type="line"/>
      <point x="539.0" y="0.0" type="line"/>
    </contour>
    <contour>
      <point x="999.0" y="0.0" type="line"/>
      <point x="580.4148685148843" y="388.0" type="line"/>
      <point x="976.6704993447531" y="656.0" type="line"/>
      <point x="1684.0" y="0.0" type="line"/>
    </contour>
  </outline>
</glyph>
<glyph name="l" format="2">
  <advance width="762"/>
  <unicode hex="006C"/>
  <anchor x="381.0" y="0" name="bottom"/>
  <anchor x="381.0" y="728.0" name="center"/>
  <anchor x="381.0" y="1456" name="top"/>
  <anchor x="634" y="914" name="topright"/>
  <outline>
    <contour>
      <point x="-40.0" y="0.0" type="line"/>
      <point x="216.73208391152502" y="1456.0" type="line"/>
      <point x="802.732083911525" y="1456.0" type="line"/>
      <point x="546.0" y="0.0" type="line"/>
    </contour>
  </outline>
</glyph>
<glyph name="m" format="2">
  <advance width="2462"/>
  <unicode hex="006D"/>
  <outline>
    <contour>
      <point x="-40.17632698070847" y="-1.0" type="line"/>
      <point x="120.98653338682851" y="913.0" type="line"/>
      <point x="693.9865333868286" y="913.0" type="line"/>
      <point x="664.8925815699317" y="748.0" type="line"/>
      <point x="668.8925815699317" y="748.0" type="line"/>
      <point x="732.1146637951106" y="840.0"/>
      <point x="984.6265554415434" y="962.0"/>
      <point x="1140.6265554415434" y="962.0" type="qcurve" smooth="yes"/>
      <point x="1297.6265554415434" y="962.0"/>
      <point x="1469.8224130459005" y="827.0"/>
      <point x="1483.834619685681" y="742.0" type="qcurve"/>
      <point x="1486.834619685681" y="742.0" type="line"/>
      <point x="1581.290990775819" y="841.0"/>
      <point x="1816.9792094029604" y="964.0"/>
      <point x="1989.9792094029604" y="964.0" type="qcurve" smooth="yes"/>
      <point x="2186.9792094029604" y="964.0"/>
      <point x="2395.1872736470978" y="744.0"/>
      <point x="2362.919436177449" y="561.0" type="qcurve" smooth="yes"/>
      <point x="2263.8236730192916" y="-1.0" type="line"/>
      <point x="1681.8236730192916" y="-1.0" type="line"/>
      <point x="1757.115293781806" y="426.0" type="line" smooth="yes"/>
      <point x="1766.4606237593548" y="479.0"/>
      <point x="1726.216569582571" y="540.0"/>
      <point x="1653.216569582571" y="540.0" type="qcurve" smooth="yes"/>
      <point x="1583.216569582571" y="540.0"/>
      <point x="1497.9292014892733" y="493.0"/>
      <point x="1483.110411125894" y="460.0" type="qcurve"/>
      <point x="1401.8236730192916" y="-1.0" type="line"/>
      <point x="819.8236730192915" y="-1.0" type="line"/>
      <point x="894.4099858589723" y="422.0" type="line" smooth="yes"/>
      <point x="903.0500079136871" y="471.0"/>
      <point x="866.2165695825711" y="540.0"/>
      <point x="799.2165695825711" y="540.0" type="qcurve" smooth="yes"/>
      <point x="743.2165695825711" y="540.0"/>
      <point x="639.4002205471478" y="490.0"/>
      <point x="620.1708143381007" y="449.0" type="qcurve"/>
      <point x="540.8236730192915" y="-1.0" type="line"/>
    </contour>
  </outline>
</glyph>
<glyph name="n" format="2">
  <advance width="1613"/>
  <unicode hex="006E"/>
  <anchor x="806.5" y="0" name="bottom"/>
  <anchor x="806.5" y="914" name="top"/>
  <outline>
    <contour>
      <point x="-46" y="0.0" type="line"/>
      <point x="115" y="914.0" type="line"/>
      <point x="684" y="914.0" type="line"/>
      <point x="656" y="754.0" type="line"/>
      <point x="657" y="754.0" type="line"/>
      <point x="711" y="828.0"/>
      <point x="956" y="962.0"/>
      <point x="1151" y="962.0" type="qcurve" smooth="yes"/>
      <point x="1359" y="962.0"/>
      <point x="1548" y="739"/>
      <point x="1519" y="556.0" type="qcurve" smooth="yes"/>
      <point x="1421" y="0.0" type="line"/>
      <point x="850" y="0.0" type="line"/>
      <point x="926" y="432.0" type="line" smooth="yes"/>
      <point x="936" y="490.0"/>
      <point x="894" y="539.0"/>
      <point x="823" y="539.0" type="qcurve" smooth="yes"/>
      <point x="757" y="539.0"/>
      <point x="627" y="479.0"/>
      <point x="603" y="445.0" type="qcurve"/>
      <point x="525" y="0.0" type="line"/>
    </contour>
  </outline>
</glyph>
<glyph name="o" format="2">
  <advance width="1657"/>
  <unicode hex="006F"/>
  <anchor x="828.5" y="0" name="bottom"/>
  <anchor x="828.5" y="728.0" name="center"/>
  <anchor x="934" y="0" name="ogonek"/>
  <anchor x="828.5" y="914" name="top"/>
  <anchor x="1142" y="914" name="topright"/>
  <outline>
    <contour>
      <point x="-7.065915854814577" y="459.0" type="qcurve" smooth="yes"/>
      <point x="-4.949992086313003" y="471.0" type="line" smooth="yes"/>
      <point x="33.48928970813236" y="689.0"/>
      <point x="513.6265554415434" y="962.0"/>
      <point x="873.6265554415434" y="962.0" type="qcurve" smooth="yes"/>
      <point x="1235.6265554415434" y="962.0"/>
      <point x="1610.4892897081324" y="689.0"/>
      <point x="1572.050007913687" y="471.0" type="qcurve" smooth="yes"/>
      <point x="1569.9340841451854" y="459.0" type="line" smooth="yes"/>
      <point x="1530.0841865050722" y="233.0"/>
      <point x="1059.710190578746" y="-30.0"/>
      <point x="698.710190578746" y="-30.0" type="qcurve" smooth="yes"/>
      <point x="337.71019057874605" y="-30.0"/>
      <point x="-46.91581349492766" y="233.0"/>
    </contour>
    <contour>
      <point x="577.1683730101447" y="466.0" type="qcurve" smooth="yes"/>
      <point x="574.5234682995177" y="451.0" type="line" smooth="yes"/>
      <point x="564.4728303991352" y="394.0"/>
      <point x="658.4801543830035" y="343.0"/>
      <point x="761.4801543830035" y="343.0" type="qcurve" smooth="yes"/>
      <point x="865.4801543830035" y="343.0"/>
      <point x="975.6491573798437" y="395.0"/>
      <point x="985.6997952802262" y="452.0" type="qcurve" smooth="yes"/>
      <point x="988.1683730101447" y="466.0" type="line" smooth="yes"/>
      <point x="998.924318833361" y="527.0"/>
      <point x="906.2116869266588" y="574.0"/>
      <point x="802.2116869266589" y="574.0" type="qcurve" smooth="yes"/>
      <point x="699.2116869266589" y="574.0"/>
      <point x="587.7479918526526" y="526.0"/>
    </contour>
  </outline>
</glyph>
<glyph name="p" format="2">
  <advance width="1684"/>
  <unicode hex="0070"/>
  <anchor x="842.0" y="0" name="bottom"/>
  <anchor x="842.0" y="914" name="top"/>
  <outline>
    <contour>
      <point x="-108.4148685148844" y="-388.0" type="line"/>
      <point x="121.16286036753698" y="914.0" type="line"/>
      <point x="691.162860367537" y="914.0" type="line"/>
      <point x="674.7644511616497" y="821.0" type="line"/>
      <point x="677.7644511616497" y="821.0" type="line"/>
      <point x="730.6991652935307" y="866.0"/>
      <point x="943.4526697887909" y="944.0"/>
      <point x="1112.452669788791" y="944.0" type="qcurve" smooth="yes"/>
      <point x="1371.452669788791" y="944.0"/>
      <point x="1641.19215630301" y="710.0"/>
      <point x="1598.5210269715617" y="468.0" type="qcurve" smooth="yes"/>
      <point x="1596.40510320306" y="456.0" type="line" smooth="yes"/>
      <point x="1555.3209166979877" y="223.0"/>
      <point x="1179.710190578746" y="-30.0"/>
      <point x="934.710190578746" y="-30.0" type="qcurve" smooth="yes"/>
      <point x="773.710190578746" y="-30.0"/>
      <point x="586.5240982862132" y="37.0"/>
      <point x="549.5796188425079" y="60.0" type="qcurve"/>
      <point x="468.58513148511565" y="-388.0" type="line"/>
    </contour>
    <contour>
      <point x="605.0042526692167" y="380.0" type="line"/>
      <point x="618.3593479585898" y="365.0"/>
      <point x="726.011576653085" y="329.0"/>
      <point x="810.011576653085" y="329.0" type="qcurve" smooth="yes"/>
      <point x="904.0115766530851" y="329.0"/>
      <point x="1017.2965034184267" y="393.0"/>
      <point x="1028.757757164477" y="458.0" type="qcurve" smooth="yes"/>
      <point x="1030.5210269715617" y="468.0" type="line" smooth="yes"/>
      <point x="1040.924318833361" y="527.0"/>
      <point x="947.3880139073674" y="575.0"/>
      <point x="856.3880139073674" y="575.0" type="qcurve" smooth="yes"/>
      <point x="775.3880139073674" y="575.0"/>
      <point x="648.8639156211542" y="538.0"/>
      <point x="630.3953378912356" y="524.0" type="qcurve"/>
    </contour>
  </outline>
</glyph>
<glyph name="q" format="2">
  <advance width="1688"/>
  <unicode hex="0071"/>
  <anchor x="844.0" y="0" name="bottom"/>
  <anchor x="844.0" y="914" name="top"/>
  <outline>
    <contour>
      <point x="-7.418569816231511" y="457.0" type="qcurve" smooth="yes"/>
      <point x="-4.421011144187602" y="474.0" type="line" smooth="yes"/>
      <point x="33.312962727423894" y="688.0"/>
      <point x="375.4526697887909" y="944.0"/>
      <point x="634.2763428080825" y="943.0" type="qcurve" smooth="yes"/>
      <point x="813.4526697887909" y="944.0"/>
      <point x="1024.643644737236" y="843.0"/>
      <point x="1055.8852575860635" y="799.0" type="qcurve"/>
      <point x="1053.8852575860635" y="799.0" type="line"/>
      <point x="1074.162860367537" y="914.0" type="line"/>
      <point x="1633.162860367537" y="914.0" type="line"/>
      <point x="1403.2324775236987" y="-390.0" type="line"/>
      <point x="840.2324775236987" y="-390.0" type="line"/>
      <point x="930.6278154149343" y="134.0" type="line"/>
      <point x="934.6278154149343" y="134.0" type="line"/>
      <point x="868.519215630301" y="71.0"/>
      <point x="635.8865175594545" y="-29.0"/>
      <point x="469.88651755945455" y="-29.0" type="qcurve" smooth="yes"/>
      <point x="211.8865175594545" y="-29.0"/>
      <point x="-48.679083302012316" y="223.0"/>
    </contour>
    <contour>
      <point x="561.8761222609346" y="453.0" type="line" smooth="yes"/>
      <point x="551.2965034184267" y="393.0"/>
      <point x="637.7748464601697" y="339.0"/>
      <point x="730.7748464601697" y="339.0" type="qcurve" smooth="yes"/>
      <point x="833.7748464601697" y="339.0"/>
      <point x="948.1805796499252" y="381.0"/>
      <point x="963.8254843605521" y="396.0" type="qcurve"/>
      <point x="984.4557411034425" y="513.0" type="line"/>
      <point x="965.9822807176117" y="533.0"/>
      <point x="859.3880139073674" y="575.0"/>
      <point x="770.3880139073674" y="575.0" type="qcurve" smooth="yes"/>
      <point x="675.3880139073674" y="575.0"/>
      <point x="571.9267601613171" y="510.0"/>
      <point x="562.5814301837685" y="457.0" type="qcurve" smooth="yes"/>
    </contour>
  </outline>
</glyph>
<glyph name="r" format="2">
  <advance width="1325"/>
  <unicode hex="0072"/>
  <outline>
    <contour>
      <point x="-40.0" y="0.0" type="line"/>
      <point x="121.16286036753698" y="914.0" type="line"/>
      <point x="713.162860367537" y="914.0" type="line"/>
      <point x="674.1945976309662" y="693.0" type="line"/>
      <point x="676.1945976309662" y="693.0" type="line"/>
      <point x="743.2983147596874" y="790.0"/>
      <point x="1004.6265554415434" y="962.0"/>
      <point x="1138.6265554415434" y="962.0" type="qcurve" smooth="yes"/>
      <point x="1235.6265554415434" y="962.0"/>
      <point x="1324.5710348852485" y="939.0"/>
      <point x="1351.2787841360387" y="926.0" type="qcurve"/>
      <point x="1275.987163373524" y="499.0" type="line"/>
      <point x="1246.5137029876933" y="519.0"/>
      <point x="1150.3928965632795" y="541.0"/>
      <point x="1066.3928965632795" y="541.0" type="qcurve" smooth="yes"/>
      <point x="939.3928965632795" y="541.0"/>
      <point x="688.3520239747214" y="416.0"/>
      <point x="613.2483068460003" y="319.0" type="qcurve"/>
      <point x="557.0" y="0.0" type="line"/>
    </contour>
  </outline>
</glyph>
<glyph name="s" format="2">
  <advance width="1594"/>
  <unicode hex="0073"/>
  <anchor x="798.0" y="0" name="bottom"/>
  <anchor x="778.0" y="914" name="top"/>
  <outline>
    <contour>
      <point x="-41.5753661732912" y="320.0" type="line"/>
      <point x="452.0140179810411" y="312.0" type="line"/>
      <point x="449.8980942125395" y="300.0" type="line" smooth="yes"/>
      <point x="441.96338008065857" y="255.0"/>
      <point x="581.3764372542823" y="246.0"/>
      <point x="701.3764372542823" y="246.0" type="qcurve" smooth="yes"/>
      <point x="852.3764372542823" y="246.0"/>
      <point x="948.492361022784" y="258.0"/>
      <point x="951.8425736562449" y="277.0" type="qcurve" smooth="yes"/>
      <point x="955.0164593089971" y="295.0"/>
      <point x="860.8376910003326" y="311.0"/>
      <point x="705.0719798652918" y="318.0" type="qcurve" smooth="yes"/>
      <point x="212.7748464601696" y="339.0"/>
      <point x="-0.5997794528521609" y="490.0"/>
      <point x="24.262324827041397" y="631.0" type="qcurve" smooth="yes"/>
      <point x="52.298314759687344" y="790.0"/>
      <point x="470.62655544154336" y="962.0"/>
      <point x="831.6265554415434" y="962.0" type="qcurve" smooth="yes"/>
      <point x="1175.6265554415434" y="962.0"/>
      <point x="1516.1799496632298" y="795.0"/>
      <point x="1488.8492676534177" y="640.0" type="qcurve" smooth="yes"/>
      <point x="1484.088439174289" y="613.0" type="line"/>
      <point x="993.0884391742891" y="613.0" type="line"/>
      <point x="994.6753820006652" y="622.0" type="line" smooth="yes"/>
      <point x="999.0835565183768" y="647.0"/>
      <point x="876.9627500939631" y="669.0"/>
      <point x="736.9627500939631" y="669.0" type="qcurve" smooth="yes"/>
      <point x="604.9627500939631" y="669.0"/>
      <point x="521.670499344753" y="656.0"/>
      <point x="518.1439597305837" y="636.0" type="qcurve" smooth="yes"/>
      <point x="515.1464010585398" y="619.0"/>
      <point x="626.3251693672044" y="603.0"/>
      <point x="809.9145535215366" y="595.0" type="qcurve" smooth="yes"/>
      <point x="1286.9169948494928" y="578.0"/>
      <point x="1516.2287762223516" y="455.0"/>
      <point x="1492.4246338267087" y="320.0" type="qcurve" smooth="yes"/>
      <point x="1462.6253740869781" y="151.0"/>
      <point x="1040.5338635980377" y="-31.0"/>
      <point x="677.5338635980376" y="-31.0" type="qcurve" smooth="yes"/>
      <point x="306.5338635980376" y="-31.0"/>
      <point x="-68.3721845850657" y="134.0"/>
      <point x="-46.39415653667055" y="287.0" type="qcurve" smooth="yes"/>
    </contour>
  </outline>
</glyph>
<glyph name="t" format="2">
  <advance width="1154"/>
  <unicode hex="0074"/>
  <outline>
    <contour>
      <point x="-35.01527795443208" y="516.0" type="line"/>
      <point x="35.16286036753698" y="914.0" type="line"/>
      <point x="1161.162860367537" y="914.0" type="line"/>
      <point x="1090.9847220455679" y="516.0" type="line"/>
    </contour>
    <contour>
      <point x="160.4197511707966" y="354.0" type="qcurve" smooth="yes"/>
      <point x="251.75712717778146" y="872.0" type="line"/>
      <point x="273.69672396557456" y="883.0" type="line"/>
      <point x="324.65522139032095" y="1172.0" type="line"/>
      <point x="871.655221390321" y="1172.0" type="line"/>
      <point x="762.3324933510727" y="552.0" type="line" smooth="yes"/>
      <point x="746.2867381066023" y="461.0"/>
      <point x="812.240982862132" y="370.0"/>
      <point x="893.240982862132" y="370.0" type="qcurve" smooth="yes"/>
      <point x="968.2409828621321" y="370.0"/>
      <point x="1043.0622145534676" y="386.0"/>
      <point x="1074.1201764377183" y="392.0" type="qcurve"/>
      <point x="1033.4661364019623" y="31.0" type="line"/>
      <point x="981.8212316913355" y="16.0"/>
      <point x="779.4734603858307" y="-20.0"/>
      <point x="572.4734603858307" y="-20.0" type="qcurve" smooth="yes"/>
      <point x="350.4734603858307" y="-20.0"/>
      <point x="130.26783746964907" y="183.0"/>
    </contour>
  </outline>
</glyph>
<glyph name="u" format="2">
  <advance width="1596"/>
  <unicode hex="0075"/>
  <anchor x="798.0" y="0" name="bottom"/>
  <anchor x="1170" y="0" name="ogonek"/>
  <anchor x="798.0" y="914" name="top"/>
  <anchor x="1266" y="914" name="topright"/>
  <outline>
    <contour>
      <point x="-7" y="344" type="qcurve" smooth="yes"/>
      <point x="93" y="914" type="line"/>
      <point x="662" y="914" type="line"/>
      <point x="580" y="450" type="line" smooth="yes"/>
      <point x="572" y="404"/>
      <point x="610" y="343"/>
      <point x="681" y="343" type="qcurve" smooth="yes"/>
      <point x="752" y="343"/>
      <point x="879" y="407"/>
      <point x="904" y="441" type="qcurve"/>
      <point x="988" y="914" type="line"/>
      <point x="1556" y="914" type="line"/>
      <point x="1395" y="0" type="line"/>
      <point x="827" y="0" type="line"/>
      <point x="858" y="156" type="line"/>
      <point x="856" y="156" type="line"/>
      <point x="822" y="104"/>
      <point x="557" y="-42"/>
      <point x="361" y="-42" type="qcurve" smooth="yes"/>
      <point x="154" y="-42"/>
      <point x="-39" y="164"/>
    </contour>
  </outline>
</glyph>
<glyph name="v" format="2">
  <advance width="1545"/>
  <unicode hex="0076"/>
  <anchor x="772.5" y="0" name="bottom"/>
  <anchor x="772.5" y="914" name="top"/>
  <outline>
    <contour>
      <point x="3.162860367536979" y="914.0" type="line"/>
      <point x="554.162860367537" y="914.0" type="line"/>
      <point x="728.2287762223516" y="455.0" type="line" smooth="yes"/>
      <point x="732.2891794345585" y="444.0"/>
      <point x="735.0548905695991" y="437.0"/>
      <point x="736.9969286853484" y="431.0" type="qcurve"/>
      <point x="738.9969286853484" y="431.0" type="line"/>
      <point x="743.0548905695991" y="437.0"/>
      <point x="748.2891794345585" y="444.0"/>
      <point x="756.2287762223516" y="455.0" type="qcurve" smooth="yes"/>
      <point x="1102.162860367537" y="914.0" type="line"/>
      <point x="1608.162860367537" y="914.0" type="line"/>
      <point x="928.0" y="0.0" type="line"/>
      <point x="371.0" y="0.0" type="line"/>
    </contour>
  </outline>
</glyph>
<glyph name="w" format="2">
  <advance width="2438"/>
  <unicode hex="0077"/>
  <guideline x="739.7528745085648" y="492" angle="0" identifier="dRIUV6d3lC"/>
  <guideline x="742.0475665857309" y="488" angle="0" identifier="ozuaRCSaK7"/>
  <outline>
    <contour>
      <point x="23.16286036753698" y="914.0" type="line"/>
      <point x="563.162860367537" y="914.0" type="line"/>
      <point x="696.8810049168468" y="419.0" type="line" smooth="yes"/>
      <point x="699.470389071179" y="411.0"/>
      <point x="700.7650811483452" y="407.0"/>
      <point x="702.7071192640944" y="401.0" type="qcurve"/>
      <point x="706.7071192640944" y="401.0" type="line"/>
      <point x="710.7650811483452" y="407.0"/>
      <point x="713.470389071179" y="411.0"/>
      <point x="718.8810049168468" y="419.0" type="qcurve" smooth="yes"/>
      <point x="1033.162860367537" y="914.0" type="line"/>
      <point x="1522.162860367537" y="914.0" type="line"/>
      <point x="1653.881004916847" y="419.0" type="line" smooth="yes"/>
      <point x="1656.4703890711792" y="411.0"/>
      <point x="1657.7650811483452" y="407.0"/>
      <point x="1659.7071192640944" y="401.0" type="qcurve"/>
      <point x="1663.7071192640944" y="401.0" type="line"/>
      <point x="1667.7650811483452" y="407.0"/>
      <point x="1670.4703890711792" y="411.0"/>
      <point x="1675.881004916847" y="419.0" type="qcurve" smooth="yes"/>
      <point x="1985.1628603675372" y="914.0" type="line"/>
      <point x="2481.162860367537" y="914.0" type="line"/>
      <point x="1905.0" y="0.0" type="line"/>
      <point x="1321.0" y="0.0" type="line"/>
      <point x="1174.6442747239314" y="429.0" type="line" smooth="yes"/>
      <point x="1173.3495826467654" y="433.0"/>
      <point x="1172.0548905695991" y="437.0"/>
      <point x="1170.5838715117245" y="440.0" type="qcurve"/>
      <point x="1162.5838715117245" y="440.0" type="line"/>
      <point x="1160.0548905695991" y="437.0"/>
      <point x="1158.5259096274738" y="434.0"/>
      <point x="1155.6442747239314" y="429.0" type="qcurve" smooth="yes"/>
      <point x="881.0" y="0.0" type="line"/>
      <point x="274.0" y="0.0" type="line"/>
    </contour>
  </outline>
</glyph>
<glyph name="x" format="2">
  <advance width="1668"/>
  <unicode hex="0078"/>
  <outline>
    <contour>
      <point x="-154.0" y="0.0" type="line"/>
      <point x="530.2720901388658" y="563.0" type="line"/>
      <point x="718.2720901388658" y="563.0" type="line"/>
      <point x="1090.162860367537" y="914.0" type="line"/>
      <point x="1718.162860367537" y="914.0" type="line"/>
      <point x="1090.8883289007151" y="368.0" type="line"/>
      <point x="885.5356749392981" y="366.0" type="line"/>
      <point x="474.0" y="0.0" type="line"/>
    </contour>
    <contour>
      <point x="17.16286036753698" y="914.0" type="line"/>
      <point x="757.162860367537" y="914.0" type="line"/>
      <point x="1041.1586076983203" y="534.0" type="line"/>
      <point x="1095.1586076983203" y="534.0" type="line"/>
      <point x="1566.0" y="0.0" type="line"/>
      <point x="826.0" y="0.0" type="line"/>
      <point x="527.885887572759" y="385.0" type="line"/>
      <point x="479.885887572759" y="385.0" type="line"/>
    </contour>
  </outline>
</glyph>
<glyph name="y" format="2">
  <advance width="1603"/>
  <unicode hex="0079"/>
  <anchor x="1225.0" y="0" name="bottom"/>
  <anchor x="792.0" y="914" name="top"/>
  <outline>
    <contour>
      <point x="-260.2361002062198" y="-404.0" type="qcurve"/>
      <point x="-196.582060170464" y="-43.0" type="line"/>
      <point x="-125.40329186179943" y="-59.0"/>
      <point x="8.188533620488954" y="-84.0"/>
      <point x="70.18853362048895" y="-84.0" type="qcurve" smooth="yes"/>
      <point x="162.18853362048895" y="-84.0"/>
      <point x="317.1812096366207" y="-33.0"/>
      <point x="372.46857772991854" y="14.0" type="qcurve"/>
      <point x="374.8212316913354" y="16.0" type="line"/>
      <point x="3.162860367536979" y="914.0" type="line"/>
      <point x="560.162860367537" y="914.0" type="line"/>
      <point x="716.3373760069849" y="518.0" type="line" smooth="yes"/>
      <point x="725.2818554506902" y="495.0"/>
      <point x="739.2867381066023" y="461.0"/>
      <point x="741.6997952802262" y="452.0" type="qcurve"/>
      <point x="746.6997952802262" y="452.0" type="line"/>
      <point x="753.2867381066023" y="461.0"/>
      <point x="781.634509412107" y="497.0"/>
      <point x="798.5137029876934" y="519.0" type="qcurve" smooth="yes"/>
      <point x="1103.162860367537" y="914.0" type="line"/>
      <point x="1666.162860367537" y="914.0" type="line"/>
      <point x="1014.9273901480126" y="96.0" type="line" smooth="yes"/>
      <point x="760.6790833020123" y="-223.0"/>
      <point x="326.59245546898387" y="-439.0"/>
      <point x="106.59245546898387" y="-439.0" type="qcurve" smooth="yes"/>
      <point x="19.59245546898387" y="-439.0"/>
      <point x="-164.23365887826375" y="-421.0"/>
    </contour>
  </outline>
</glyph>
<glyph name="z" format="2">
  <advance width="1441"/>
  <unicode hex="007A"/>
  <anchor x="720.5" y="0" name="bottom"/>
  <anchor x="720.5" y="914" name="top"/>
  <outline>
    <contour>
      <point x="-83.0" y="0.0" type="line"/>
      <point x="-32.746810498087484" y="285.0" type="line"/>
      <point x="509.26964881090964" y="580.0" type="line"/>
      <point x="38.2696488109097" y="580.0" type="line"/>
      <point x="97.16286036753698" y="914.0" type="line"/>
      <point x="1391.162860367537" y="914.0" type="line"/>
      <point x="1337.383131251455" y="609.0" type="line"/>
      <point x="796.366671942458" y="314.0" type="line"/>
      <point x="1323.366671942458" y="314.0" type="line"/>
      <point x="1268.0" y="0.0" type="line"/>
    </contour>
  </outline>
</glyph>
<glyph name="braceleft" format="2">
  <advance width="1035"/>
  <unicode hex="007B"/>
  <outline>
    <contour>
      <point x="840" y="-312" type="line"/>
      <point x="236" y="-342"/>
      <point x="13" y="-95"/>
      <point x="99" y="103" type="qcurve" smooth="yes"/>
      <point x="178" y="284" type="line" smooth="yes"/>
      <point x="200" y="335"/>
      <point x="103" y="360"/>
      <point x="5" y="360" type="qcurve"/>
      <point x="81" y="788" type="line"/>
      <point x="179" y="788"/>
      <point x="284" y="813"/>
      <point x="280" y="864" type="qcurve" smooth="yes"/>
      <point x="265" y="1045" type="line" smooth="yes"/>
      <point x="250" y="1234"/>
      <point x="557" y="1482"/>
      <point x="1112" y="1460" type="qcurve"/>
      <point x="1043" y="1068" type="line"/>
      <point x="869" y="1068"/>
      <point x="755" y="1027"/>
      <point x="761" y="975" type="qcurve" smooth="yes"/>
      <point x="780" y="814" type="line" smooth="yes"/>
      <point x="789" y="730"/>
      <point x="688" y="605"/>
      <point x="583" y="574" type="qcurve"/>
      <point x="677" y="543"/>
      <point x="734" y="418"/>
      <point x="695" y="334" type="qcurve" smooth="yes"/>
      <point x="620" y="173" type="line" smooth="yes"/>
      <point x="595" y="121"/>
      <point x="695" y="80"/>
      <point x="909" y="80" type="qcurve"/>
    </contour>
  </outline>
</glyph>
<glyph name="bar" format="2">
  <advance width="784"/>
  <unicode hex="007C"/>
  <outline>
    <contour>
      <point x="-111.35202397472143" y="-416.0" type="line"/>
      <point x="218.73208391152502" y="1456.0" type="line"/>
      <point x="822.732083911525" y="1456.0" type="line"/>
      <point x="492.6479760252786" y="-416.0" type="line"/>
    </contour>
  </outline>
</glyph>
<glyph name="braceright" format="2">
  <advance width="1066"/>
  <unicode hex="007D"/>
  <outline>
    <contour>
      <point x="-142.01401798104106" y="-312.0" type="qcurve"/>
      <point x="-72.8938415433228" y="80.0" type="line"/>
      <point x="102.1061584566772" y="80.0"/>
      <point x="206.45392976218193" y="116.0"/>
      <point x="199.50456766256445" y="173.0" type="qcurve" smooth="yes"/>
      <point x="180.8932115566273" y="334.0" type="line" smooth="yes"/>
      <point x="171.52835095542991" y="417.0"/>
      <point x="278.569223543988" y="542.0"/>
      <point x="387.2116869266589" y="574.0" type="qcurve"/>
      <point x="289.8541503093298" y="606.0"/>
      <point x="226.89502289788788" y="731.0"/>
      <point x="265.5301622966905" y="814.0" type="qcurve" smooth="yes"/>
      <point x="340.91880619075334" y="975.0" type="line" smooth="yes"/>
      <point x="367.96944409113587" y="1032.0"/>
      <point x="276.31721539664056" y="1068.0"/>
      <point x="101.31721539664059" y="1068.0" type="qcurve"/>
      <point x="170.4373918343589" y="1460.0" type="line"/>
      <point x="700.9639314485282" y="1480.0"/>
      <point x="1074.403843229669" y="1284.0"/>
      <point x="961.2616948403459" y="1045.0" type="qcurve" smooth="yes"/>
      <point x="889.6363207533677" y="894.0" type="line" smooth="yes"/>
      <point x="867.3489526600698" y="847.0"/>
      <point x="911.2354702195244" y="818.0"/>
      <point x="1010.2354702195244" y="818.0" type="qcurve"/>
      <point x="924.1879036337934" y="330.0" type="line"/>
      <point x="825.1879036337934" y="330.0"/>
      <point x="771.074421193248" y="301.0"/>
      <point x="776.7870530999501" y="254.0" type="qcurve" smooth="yes"/>
      <point x="795.161679012972" y="103.0" type="line" smooth="yes"/>
      <point x="824.7852417586895" y="-143.0"/>
      <point x="382.2251535398304" y="-339.0"/>
    </contour>
  </outline>
</glyph>
<glyph name="asciitilde" format="2">
  <advance width="1170"/>
  <unicode hex="007E"/>
  <outline>
    <contour>
      <point x="-74.03906124729752" y="272.0" type="qcurve"/>
      <point x="22.588124180941293" y="820.0" type="line"/>
      <point x="82.81264773407617" y="895.0"/>
      <point x="234.97920940296024" y="964.0"/>
      <point x="324.97920940296024" y="964.0" type="qcurve" smooth="yes"/>
      <point x="392.97920940296024" y="964.0"/>
      <point x="551.8077650781639" y="929.0"/>
      <point x="640.9889747147846" y="896.0" type="qcurve" smooth="yes"/>
      <point x="733.6412034092799" y="860.0"/>
      <point x="876.1171051230667" y="823.0"/>
      <point x="936.1171051230667" y="823.0" type="qcurve" smooth="yes"/>
      <point x="1004.1171051230667" y="823.0"/>
      <point x="1132.6967239655746" y="883.0"/>
      <point x="1203.6869586537503" y="951.0" type="qcurve"/>
      <point x="1098.0670972093797" y="352.0" type="line"/>
      <point x="1057.1903449617496" y="313.0"/>
      <point x="931.6686880034924" y="259.0"/>
      <point x="839.6686880034924" y="259.0" type="qcurve" smooth="yes"/>
      <point x="771.6686880034924" y="259.0"/>
      <point x="594.0164593089971" y="295.0"/>
      <point x="481.7168845759188" y="333.0" type="qcurve" smooth="yes"/>
      <point x="394.8303670164644" y="362.0"/>
      <point x="256.94384945700983" y="391.0"/>
      <point x="201.94384945700983" y="391.0" type="qcurve" smooth="yes"/>
      <point x="99.9438494570098" y="391.0"/>
      <point x="-26.928020134708134" y="318.0"/>
    </contour>
  </outline>
</glyph>
<glyph name="currency" format="2">
  <advance width="1890"/>
  <unicode hex="00A4"/>
  <guideline x="30.870609618326938" y="901" angle="0" identifier="bRYxxRaQQf"/>
  <guideline x="-30.138525706801943" y="555" angle="0" identifier="917FhrihjR"/>
  <outline>
    <contour>
      <point x="661.3684832837187" y="711.0" type="qcurve"/>
      <point x="653.2574421711292" y="665.0"/>
      <point x="777.0280359620822" y="624.0"/>
      <point x="923.0280359620822" y="624.0" type="qcurve" smooth="yes"/>
      <point x="1069.0280359620822" y="624.0"/>
      <point x="1207.2574421711292" y="665.0"/>
      <point x="1215.3684832837187" y="711.0" type="qcurve" smooth="yes"/>
      <point x="1223.479524396308" y="757.0"/>
      <point x="1099.7089306053551" y="798.0"/>
      <point x="953.7089306053551" y="798.0" type="qcurve" smooth="yes"/>
      <point x="807.708930605355" y="798.0"/>
      <point x="669.479524396308" y="757.0"/>
    </contour>
    <contour>
      <point x="111.60277214867784" y="718.0" type="qcurve"/>
      <point x="154.6265554415433" y="962.0"/>
      <point x="630.0005513678695" y="1225.0"/>
      <point x="1028.0005513678695" y="1225.0" type="qcurve" smooth="yes"/>
      <point x="1426.0005513678695" y="1225.0"/>
      <point x="1808.6265554415434" y="962.0"/>
      <point x="1765.6027721486778" y="718.0" type="qcurve" smooth="yes"/>
      <point x="1722.4026618751038" y="473.0"/>
      <point x="1246.8523389680693" y="209.0"/>
      <point x="848.8523389680691" y="209.0" type="qcurve" smooth="yes"/>
      <point x="450.85233896806915" y="209.0"/>
      <point x="68.40266187510395" y="473.0"/>
    </contour>
    <contour>
      <point x="1898.3074500848163" y="1136.0" type="line"/>
      <point x="1606.9840920588724" y="930.0" type="line"/>
      <point x="1482.430697837186" y="1097.0" type="line"/>
      <point x="1773.75405586313" y="1303.0" type="line"/>
    </contour>
    <contour>
      <point x="371.4197511707966" y="354.0" type="line"/>
      <point x="80.09639314485281" y="148.0" type="line"/>
      <point x="-42.633328057542" y="314.0" type="line"/>
      <point x="248.5137029876933" y="519.0" type="line"/>
    </contour>
    <contour>
      <point x="1604.330682009812" y="155.0" type="line"/>
      <point x="1385.6540400357558" y="361.0" type="line"/>
      <point x="1569.924318833361" y="527.0" type="line"/>
      <point x="1788.7772877881257" y="322.0" type="line"/>
    </contour>
    <contour>
      <point x="344.4526697887909" y="944.0" type="line"/>
      <point x="125.77602781473473" y="1150.0" type="line"/>
      <point x="308.0463066123399" y="1316.0" type="line"/>
      <point x="526.7229485863961" y="1110.0" type="line"/>
    </contour>
  </outline>
</glyph>
<glyph name="yen" format="2">
  <advance width="1949"/>
  <unicode hex="00A5"/>
  <outline>
    <contour>
      <point x="-14.55827687759853" y="201.0" type="line"/>
      <point x="40.1030871420256" y="511.0" type="line"/>
      <point x="1841.1030871420255" y="511.0" type="line"/>
      <point x="1786.4417231224015" y="201.0" type="line"/>
    </contour>
    <contour>
      <point x="53.151283714452006" y="585.0" type="line"/>
      <point x="107.81264773407617" y="895.0" type="line"/>
      <point x="918.8126477340761" y="895.0" type="line"/>
      <point x="933.7260199010477" y="679.0" type="line"/>
      <point x="1042.7260199010477" y="679.0" type="line"/>
      <point x="1128.812647734076" y="895.0" type="line"/>
      <point x="1908.812647734076" y="895.0" type="line"/>
      <point x="1854.151283714452" y="585.0" type="line"/>
    </contour>
    <contour>
      <point x="542.0" y="0.0" type="line"/>
      <point x="638.6271854282388" y="548.0" type="line"/>
      <point x="128.73208391152502" y="1456.0" type="line"/>
      <point x="942.732083911525" y="1456.0" type="line"/>
      <point x="1009.1091511525028" y="1288.0" type="line" smooth="yes"/>
      <point x="1020.1719956926659" y="1260.0"/>
      <point x="1054.3605293131548" y="1176.0"/>
      <point x="1065.718065930484" y="1144.0" type="qcurve"/>
      <point x="1069.718065930484" y="1144.0" type="line"/>
      <point x="1090.1842023324464" y="1175.0"/>
      <point x="1153.6430147505405" y="1257.0"/>
      <point x="1177.1091511525028" y="1288.0" type="qcurve" smooth="yes"/>
      <point x="1304.732083911525" y="1456.0" type="line"/>
      <point x="2077.732083911525" y="1456.0" type="line"/>
      <point x="1248.6271854282388" y="548.0" type="line"/>
      <point x="1152.0" y="0.0" type="line"/>
    </contour>
  </outline>
</glyph>
<glyph name="section" format="2">
  <advance width="1832"/>
  <unicode hex="00A7"/>
  <guideline x="164.35013401463493" y="1658" angle="0" identifier="QzZ5gIiCyn"/>
  <guideline x="-26.083005150507248" y="578" angle="0" identifier="9Hxjf2sdFw"/>
  <outline>
    <contour>
      <point x="977.9877933602195" y="85.0" type="qcurve"/>
      <point x="1040.4075445310161" y="439.0" type="line"/>
      <point x="1080.9365254731415" y="442.0"/>
      <point x="1132.8736809329785" y="470.0"/>
      <point x="1136.400220547148" y="490.0" type="qcurve" smooth="yes"/>
      <point x="1141.5137029876933" y="519.0"/>
      <point x="1043.3324933510726" y="552.0"/>
      <point x="685.148842386496" y="602.0" type="qcurve" smooth="yes"/>
      <point x="406.84926765341754" y="640.0"/>
      <point x="188.23058756361218" y="852.0"/>
      <point x="223.3196567245967" y="1051.0" type="qcurve" smooth="yes"/>
      <point x="261.22995757691666" y="1266.0"/>
      <point x="742.4325091784467" y="1494.0"/>
      <point x="1091.4325091784467" y="1494.0" type="qcurve" smooth="yes"/>
      <point x="1475.4325091784467" y="1494.0"/>
      <point x="1848.8773036154998" y="1264.0"/>
      <point x="1811.1433297438882" y="1050.0" type="qcurve"/>
      <point x="1213.1433297438882" y="1050.0" type="line"/>
      <point x="1220.196408972227" y="1090.0"/>
      <point x="1152.6021421619823" y="1132.0"/>
      <point x="1081.6021421619823" y="1132.0" type="qcurve" smooth="yes"/>
      <point x="1005.6021421619823" y="1132.0"/>
      <point x="944.7229485863961" y="1110.0"/>
      <point x="941.5490629336437" y="1092.0" type="qcurve" smooth="yes"/>
      <point x="936.9645614352237" y="1066.0"/>
      <point x="1093.3825012647596" y="1023.0"/>
      <point x="1272.6796346698818" y="1002.0" type="qcurve" smooth="yes"/>
      <point x="1571.5081903450857" y="967.0"/>
      <point x="1806.9505434541825" y="754.0"/>
      <point x="1771.1561663703642" y="551.0" type="qcurve" smooth="yes"/>
      <point x="1729.366671942458" y="314.0"/>
      <point x="1354.3984092058872" y="93.0"/>
    </contour>
    <contour>
      <point x="840.0951331714618" y="976.0" type="qcurve"/>
      <point x="772.9145535215366" y="595.0" type="line"/>
      <point x="700.9145535215366" y="595.0"/>
      <point x="640.859032965242" y="572.0"/>
      <point x="637.5088203317812" y="553.0" type="qcurve" smooth="yes"/>
      <point x="633.9822807176118" y="533.0"/>
      <point x="727.3398173349409" y="501.0"/>
      <point x="1163.2312175503077" y="438.0" type="qcurve" smooth="yes"/>
      <point x="1402.2361002062198" y="404.0"/>
      <point x="1583.1494723731914" y="188.0"/>
      <point x="1546.8261143472475" y="-18.0" type="qcurve" smooth="yes"/>
      <point x="1505.0366199193413" y="-255.0"/>
      <point x="1007.2495668193912" y="-509.0"/>
      <point x="650.2495668193914" y="-509.0" type="qcurve" smooth="yes"/>
      <point x="246.24956681939136" y="-509.0"/>
      <point x="-141.90541819640777" y="-249.0"/>
      <point x="-99.41061584566772" y="-8.0" type="qcurve"/>
      <point x="479.58938415433227" y="-8.0" type="line"/>
      <point x="468.3044573889905" y="-72.0"/>
      <point x="559.1378957201065" y="-141.0"/>
      <point x="653.1378957201065" y="-141.0" type="qcurve" smooth="yes"/>
      <point x="729.1378957201065" y="-141.0"/>
      <point x="821.4277051413604" y="-111.0"/>
      <point x="826.5411875819059" y="-82.0" type="qcurve" smooth="yes"/>
      <point x="832.5363049259937" y="-48.0"/>
      <point x="667.4106158456677" y="8.0"/>
      <point x="476.3477713055047" y="36.0" type="qcurve" smooth="yes"/>
      <point x="190.75350449526024" y="78.0"/>
      <point x="-32.749251826043576" y="302.0"/>
      <point x="3.9267601613171337" y="510.0" type="qcurve" smooth="yes"/>
      <point x="47.30319741559953" y="756.0"/>
      <point x="442.09513317146184" y="976.0"/>
    </contour>
  </outline>
</glyph>
<glyph name="dieresis" format="2">
  <advance width="1024"/>
  <unicode hex="00A8"/>
  <outline>
    <contour>
      <point x="85.76626250291034" y="1218.0" type="qcurve" smooth="yes"/>
      <point x="102.34099868950605" y="1312.0"/>
      <point x="247.2635061816065" y="1442.0"/>
      <point x="363.2635061816065" y="1442.0" type="qcurve" smooth="yes"/>
      <point x="480.26350618160654" y="1442.0"/>
      <point x="579.340998689506" y="1312.0"/>
      <point x="562.7662625029103" y="1218.0" type="qcurve" smooth="yes"/>
      <point x="547.073161219857" y="1129.0"/>
      <point x="402.6796346698819" y="1002.0"/>
      <point x="285.6796346698819" y="1002.0" type="qcurve" smooth="yes"/>
      <point x="169.67963466988192" y="1002.0"/>
      <point x="70.07316121985696" y="1129.0"/>
    </contour>
    <contour>
      <point x="634.4136085414934" y="1216.0" type="qcurve" smooth="yes"/>
      <point x="650.9883447280891" y="1310.0"/>
      <point x="792.9108522201896" y="1440.0"/>
      <point x="911.9108522201896" y="1440.0" type="qcurve" smooth="yes"/>
      <point x="1024.9108522201896" y="1440.0"/>
      <point x="1126.988344728089" y="1310.0"/>
      <point x="1110.4136085414934" y="1216.0" type="qcurve" smooth="yes"/>
      <point x="1094.72050725844" y="1127.0"/>
      <point x="947.326980708465" y="1000.0"/>
      <point x="834.326980708465" y="1000.0" type="qcurve" smooth="yes"/>
      <point x="715.326980708465" y="1000.0"/>
      <point x="618.72050725844" y="1127.0"/>
    </contour>
  </outline>
</glyph>
<glyph name="copyright" format="2">
  <advance width="2418"/>
  <unicode hex="00A9"/>
  <guideline x="30.870609618326938" y="901" angle="0" identifier="0Pjz0qKr8z"/>
  <guideline x="-30.138525706801943" y="555" angle="0" identifier="sJo8BlDiJ7"/>
  <outline>
    <contour>
      <point x="1489.9072295376684" y="646.0" type="qcurve"/>
      <point x="1973.9072295376682" y="646.0" type="line"/>
      <point x="1936.3495826467652" y="433.0"/>
      <point x="1505.7943770838183" y="203.0"/>
      <point x="1142.7943770838183" y="203.0" type="qcurve" smooth="yes"/>
      <point x="749.7943770838184" y="203.0"/>
      <point x="370.9944873573923" y="448.0"/>
      <point x="411.02071197821385" y="675.0" type="qcurve" smooth="yes"/>
      <point x="417.01582932230167" y="709.0" type="line" smooth="yes"/>
      <point x="457.21838092383166" y="937.0"/>
      <point x="920.4184911974057" y="1182.0"/>
      <point x="1310.4184911974057" y="1182.0" type="qcurve" smooth="yes"/>
      <point x="1675.4184911974057" y="1182.0"/>
      <point x="2026.1000158273741" y="942.0"/>
      <point x="1986.7790991293864" y="719.0" type="qcurve"/>
      <point x="1501.7790991293864" y="719.0" type="line"/>
      <point x="1508.6558513770165" y="758.0"/>
      <point x="1396.8272957018128" y="793.0"/>
      <point x="1264.8272957018128" y="793.0" type="qcurve" smooth="yes"/>
      <point x="1130.8272957018128" y="793.0"/>
      <point x="1005.7138132612672" y="764.0"/>
      <point x="999.8950228978879" y="731.0" type="qcurve" smooth="yes"/>
      <point x="986.4941723640445" y="655.0" type="line" smooth="yes"/>
      <point x="979.4410931357061" y="615.0"/>
      <point x="1093.2696488109098" y="580.0"/>
      <point x="1227.2696488109098" y="580.0" type="qcurve" smooth="yes"/>
      <point x="1359.2696488109098" y="580.0"/>
      <point x="1483.735785212872" y="611.0"/>
    </contour>
    <contour>
      <point x="239.13663574671546" y="687.0" type="qcurve" smooth="yes"/>
      <point x="184.4752717270913" y="377.0"/>
      <point x="614.7583871511724" y="44.0"/>
      <point x="1069.7583871511724" y="44.0" type="qcurve" smooth="yes"/>
      <point x="1543.7583871511724" y="44.0"/>
      <point x="2111.4752717270912" y="377.0"/>
      <point x="2166.1366357467155" y="687.0" type="qcurve" smooth="yes"/>
      <point x="2220.4453458049225" y="995.0"/>
      <point x="1769.985903400133" y="1327.0"/>
      <point x="1295.985903400133" y="1327.0" type="qcurve" smooth="yes"/>
      <point x="840.985903400133" y="1327.0"/>
      <point x="293.4453458049227" y="995.0"/>
    </contour>
    <contour>
      <point x="31.136635746715456" y="687.0" type="qcurve" smooth="yes"/>
      <point x="101.8437550108099" y="1088.0"/>
      <point x="773.8406836961583" y="1519.0"/>
      <point x="1328.8406836961583" y="1519.0" type="qcurve" smooth="yes"/>
      <point x="1902.8406836961583" y="1519.0"/>
      <point x="2443.84375501081" y="1088.0"/>
      <point x="2373.1366357467155" y="687.0" type="qcurve" smooth="yes"/>
      <point x="2302.2531895019124" y="285.0"/>
      <point x="1609.0799338358556" y="-147.0"/>
      <point x="1035.0799338358556" y="-147.0" type="qcurve" smooth="yes"/>
      <point x="480.0799338358556" y="-147.0"/>
      <point x="-39.746810498087484" y="285.0"/>
    </contour>
  </outline>
</glyph>
<glyph name="guillemotleft" format="2">
  <advance width="1396"/>
  <unicode hex="00AB"/>
  <guideline x="30.870609618326938" y="901" angle="0" identifier="ZftBQarVKw"/>
  <guideline x="-30.138525706801943" y="555" angle="0" identifier="MVJpdoVRVd"/>
  <outline>
    <contour>
      <point x="-29.065915854814577" y="459.0" type="line"/>
      <point x="-17.78098908947281" y="523.0" type="line"/>
      <point x="353.39714923249625" y="921.0" type="line"/>
      <point x="785.3971492324963" y="921.0" type="line"/>
      <point x="420.2238935664394" y="489.0" type="line"/>
      <point x="633.226964881091" y="58.0" type="line"/>
      <point x="201.22696488109096" y="58.0" type="line"/>
    </contour>
    <contour>
      <point x="636.9340841451855" y="459.0" type="line"/>
      <point x="648.2190109105272" y="523.0" type="line"/>
      <point x="1020.3971492324963" y="921.0" type="line"/>
      <point x="1420.3971492324963" y="921.0" type="line"/>
      <point x="1055.2238935664393" y="489.0" type="line"/>
      <point x="1268.226964881091" y="58.0" type="line"/>
      <point x="868.226964881091" y="58.0" type="line"/>
    </contour>
  </outline>
</glyph>
<glyph name="logicalnot" format="2">
  <advance width="1346"/>
  <unicode hex="00AC"/>
  <outline>
    <contour>
      <point x="1272.3995905604525" y="904.0" type="line"/>
      <point x="1161.6662466755363" y="276.0" type="line"/>
      <point x="587.6662466755363" y="276.0" type="line"/>
      <point x="632.4532997754865" y="530.0" type="line"/>
      <point x="73.45329977548644" y="530.0" type="line"/>
      <point x="139.39959056045234" y="904.0" type="line"/>
    </contour>
  </outline>
</glyph>
<glyph name="macron" format="2">
  <advance width="1024"/>
  <unicode hex="00AF"/>
  <outline>
    <contour>
      <point x="1047.2683888375186" y="1408.0" type="line"/>
      <point x="975.326980708465" y="1000.0" type="line"/>
      <point x="145.326980708465" y="1000.0" type="line"/>
      <point x="217.26838883751867" y="1408.0" type="line"/>
    </contour>
  </outline>
</glyph>
<glyph name="degree" format="2">
  <advance width="961"/>
  <unicode hex="00B0"/>
  <outline>
    <contour>
      <point x="129" y="1080" type="qcurve" smooth="yes"/>
      <point x="129" y="1253"/>
      <point x="354" y="1477"/>
      <point x="541" y="1477" type="qcurve" smooth="yes"/>
      <point x="728" y="1477"/>
      <point x="950" y="1253"/>
      <point x="950" y="1080" type="qcurve" smooth="yes"/>
      <point x="950" y="907"/>
      <point x="728" y="686"/>
      <point x="541" y="686" type="qcurve" smooth="yes"/>
      <point x="354" y="686"/>
      <point x="129" y="907"/>
    </contour>
    <contour>
      <point x="444" y="1081" type="qcurve"/>
      <point x="444" y="1035"/>
      <point x="494" y="987"/>
      <point x="540" y="987" type="qcurve" smooth="yes"/>
      <point x="586" y="987"/>
      <point x="635" y="1035"/>
      <point x="635" y="1081" type="qcurve" smooth="yes"/>
      <point x="635" y="1127"/>
      <point x="586" y="1177"/>
      <point x="540" y="1177" type="qcurve"/>
      <point x="494" y="1177"/>
      <point x="444" y="1127"/>
    </contour>
  </outline>
</glyph>
<glyph name="plusminus" format="2">
  <advance width="1135"/>
  <unicode hex="00B1"/>
  <outline>
    <contour>
      <point x="51.605213476633935" y="701.0" type="line"/>
      <point x="139.41604986944947" y="1199.0" type="line"/>
      <point x="1162.4160498694496" y="1199.0" type="line"/>
      <point x="1074.605213476634" y="701.0" type="line"/>
    </contour>
    <contour>
      <point x="267.28917943455843" y="444.0" type="line"/>
      <point x="445.732083911525" y="1456.0" type="line"/>
      <point x="947.732083911525" y="1456.0" type="line"/>
      <point x="769.2891794345585" y="444.0" type="line"/>
    </contour>
    <contour>
      <point x="-72.17632698070847" y="-1.0" type="line"/>
      <point x="15.634509412107093" y="497.0" type="line"/>
      <point x="1038.634509412107" y="497.0" type="line"/>
      <point x="950.8236730192916" y="-1.0" type="line"/>
    </contour>
  </outline>
</glyph>
<glyph name="acute" format="2">
  <advance width="1024"/>
  <unicode hex="00B4"/>
  <outline>
    <contour>
      <point x="276.24948820056545" y="1130.0" type="line"/>
      <point x="553.4904710626975" y="1500.0" type="line"/>
      <point x="1060.567963570597" y="1370.0" type="line"/>
      <point x="737.326980708465" y="1000.0" type="line"/>
    </contour>
  </outline>
</glyph>
<glyph name="paragraph" format="2">
  <advance width="1890"/>
  <unicode hex="00B6"/>
  <guideline x="30.870609618326938" y="901" angle="0" identifier="27539Lsr1A"/>
  <guideline x="-30.138525706801943" y="555" angle="0" identifier="e34wUdCmXR"/>
  <outline>
    <contour>
      <point x="1130.256260816564" y="-146.0" type="line"/>
      <point x="644.2562608165641" y="-146.0" type="line"/>
      <point x="770.1537250424082" y="568.0" type="line"/>
      <point x="568.1537250424082" y="568.0" type="line" smooth="yes"/>
      <point x="318.1537250424081" y="568.0"/>
      <point x="40.23547021952436" y="818.0"/>
      <point x="74.44290447696656" y="1012.0" type="qcurve" smooth="yes"/>
      <point x="108.65033873440876" y="1206.0"/>
      <point x="474.732083911525" y="1456.0"/>
      <point x="724.732083911525" y="1456.0" type="qcurve" smooth="yes"/>
      <point x="1412.732083911525" y="1456.0" type="line"/>
    </contour>
    <contour>
      <point x="1693.2610648536504" y="1459.0" type="line"/>
      <point x="1879.2610648536504" y="1459.0" type="line"/>
      <point x="1596.256260816564" y="-146.0" type="line"/>
      <point x="1410.256260816564" y="-146.0" type="line"/>
    </contour>
  </outline>
</glyph>
<glyph name="ordmasculine" format="2">
  <advance width="1380"/>
  <unicode hex="00BA"/>
  <guideline x="220.24578689921833" y="1975.0" angle="0.0" identifier="Jnt0R9CyOf"/>
  <outline>
    <contour>
      <point x="70.66986935805753" y="1070.0" type="qcurve" smooth="yes"/>
      <point x="75.2543708564776" y="1096.0" type="line" smooth="yes"/>
      <point x="105.22995757691666" y="1266.0"/>
      <point x="514.2586235256942" y="1476.0"/>
      <point x="822.2586235256942" y="1476.0" type="qcurve" smooth="yes"/>
      <point x="1131.2586235256942" y="1476.0"/>
      <point x="1465.2299575769166" y="1266.0"/>
      <point x="1435.2543708564776" y="1096.0" type="qcurve" smooth="yes"/>
      <point x="1430.6698693580574" y="1070.0" type="line" smooth="yes"/>
      <point x="1400.6942826376185" y="900.0"/>
      <point x="992.8419436695492" y="691.0"/>
      <point x="683.8419436695493" y="691.0" type="qcurve" smooth="yes"/>
      <point x="373.8419436695493" y="691.0"/>
      <point x="40.69428263761847" y="900.0"/>
    </contour>
    <contour>
      <point x="662.6045834899385" y="1115.0" type="qcurve"/>
      <point x="652.0249646474306" y="1055.0" type="line" smooth="yes"/>
      <point x="647.0878091875935" y="1027.0"/>
      <point x="687.2690188242142" y="994.0"/>
      <point x="733.2690188242142" y="994.0" type="qcurve" smooth="yes"/>
      <point x="778.2690188242142" y="994.0"/>
      <point x="830.0878091875935" y="1027.0"/>
      <point x="835.0249646474306" y="1055.0" type="qcurve" smooth="yes"/>
      <point x="845.6045834899385" y="1115.0" type="line" smooth="yes"/>
      <point x="849.8364310269416" y="1139.0"/>
      <point x="809.1262404481955" y="1169.0"/>
      <point x="764.1262404481955" y="1169.0" type="qcurve" smooth="yes"/>
      <point x="718.1262404481955" y="1169.0"/>
      <point x="666.8364310269416" y="1139.0"/>
    </contour>
  </outline>
</glyph>
<glyph name="questiondown" format="2">
  <advance width="1571"/>
  <unicode hex="00BF"/>
  <guideline x="-159.91518350823216" y="-181" angle="0" identifier="apukwP5ffL"/>
  <guideline x="34.39714923249625" y="921" angle="0" identifier="5ZPZZL8Rim"/>
  <outline>
    <contour>
      <point x="1150.165301695493" y="897.0" type="qcurve" smooth="yes"/>
      <point x="1130.769333817562" y="787.0"/>
      <point x="939.2623248270413" y="631.0"/>
      <point x="786.2623248270414" y="631.0" type="qcurve" smooth="yes"/>
      <point x="631.2623248270414" y="631.0"/>
      <point x="494.7693338175619" y="787.0"/>
      <point x="514.1653016954931" y="897.0" type="qcurve" smooth="yes"/>
      <point x="533.7375965541327" y="1008.0"/>
      <point x="725.2446055446533" y="1164.0"/>
      <point x="879.2446055446533" y="1164.0" type="qcurve" smooth="yes"/>
      <point x="1030.2446055446533" y="1164.0"/>
      <point x="1169.5612695734242" y="1007.0"/>
    </contour>
    <contour>
      <point x="1452.5600882188592" y="196.0" type="line"/>
      <point x="1431.0481965724264" y="74.0" type="line" smooth="yes"/>
      <point x="1400.8962828712788" y="-97.0"/>
      <point x="956.1647503276236" y="-328.0"/>
      <point x="597.1647503276234" y="-328.0" type="qcurve" smooth="yes"/>
      <point x="227.1647503276235" y="-328.0"/>
      <point x="-152.91762483618825" y="-164.0"/>
      <point x="-121.53142227008149" y="14.0" type="qcurve" smooth="yes"/>
      <point x="-95.08237516381175" y="164.0"/>
      <point x="87.25074817395642" y="302.0"/>
      <point x="207.30138607433895" y="359.0" type="qcurve" smooth="yes"/>
      <point x="331.0573318975553" y="420.0"/>
      <point x="487.987163373524" y="499.0"/>
      <point x="500.6827059845335" y="571.0" type="qcurve" smooth="yes"/>
      <point x="502.26964881090964" y="580.0" type="line"/>
      <point x="1054.2696488109098" y="580.0" type="line"/>
      <point x="1048.6271854282388" y="548.0" type="line" smooth="yes"/>
      <point x="1034.5814301837686" y="457.0"/>
      <point x="863.6034021353734" y="304.0"/>
      <point x="692.4392817944454" y="218.0" type="qcurve" smooth="yes"/>
      <point x="577.2123169133544" y="160.0"/>
      <point x="507.39352654997504" y="127.0"/>
      <point x="504.3959678779312" y="110.0" type="qcurve" smooth="yes"/>
      <point x="499.8114663795111" y="84.0"/>
      <point x="603.871869591718" y="73.0"/>
      <point x="698.871869591718" y="73.0" type="qcurve" smooth="yes"/>
      <point x="811.871869591718" y="73.0"/>
      <point x="953.8669869358057" y="107.0"/>
      <point x="963.9176248361882" y="164.0" type="qcurve" smooth="yes"/>
      <point x="969.5600882188592" y="196.0" type="line"/>
    </contour>
  </outline>
</glyph>
<glyph name="AE" format="2">
  <advance width="3061"/>
  <unicode hex="00C6"/>
  <anchor x="1530.5" y="1456" name="top"/>
  <outline>
    <contour>
      <point x="456.8596629519375" y="158.0" type="line"/>
      <point x="622.1006458140695" y="528.0" type="line"/>
      <point x="1455.1006458140696" y="528.0" type="line"/>
      <point x="1389.8596629519375" y="158.0" type="line"/>
    </contour>
    <contour>
      <point x="-188.0" y="0.0" type="line"/>
      <point x="1449.732083911525" y="1456.0" type="line"/>
      <point x="3019.732083911525" y="1456.0" type="line"/>
      <point x="2940.3849425927156" y="1006.0" type="line"/>
      <point x="1991.3849425927156" y="1006.0" type="line"/>
      <point x="1974.81020640612" y="912.0" type="line"/>
      <point x="2845.81020640612" y="912.0" type="line"/>
      <point x="2779.1586076983203" y="534.0" type="line"/>
      <point x="1908.1586076983203" y="534.0" type="line"/>
      <point x="1889.82060170464" y="430.0" type="line"/>
      <point x="2858.82060170464" y="430.0" type="line"/>
      <point x="2783.0" y="0.0" type="line"/>
      <point x="1257.0" y="0.0" type="line"/>
      <point x="1411.8150890620323" y="878.0" type="line"/>
      <point x="473.0" y="0.0" type="line"/>
    </contour>
  </outline>
</glyph>
<glyph name="multiply" format="2">
  <advance width="1335"/>
  <unicode hex="00D7"/>
  <outline>
    <contour>
      <point x="300.92739014801265" y="96.0" type="line"/>
      <point x="9.994487357392302" y="448.0" type="line"/>
      <point x="1027.5173256702146" y="1313.0" type="line"/>
      <point x="1317.2739014801264" y="960.0" type="line"/>
    </contour>
    <contour>
      <point x="812.9273901480126" y="96.0" type="line"/>
      <point x="100.45022846083484" y="961.0" type="line"/>
      <point x="515.5173256702145" y="1313.0" type="line"/>
      <point x="1227.1708143381009" y="449.0" type="line"/>
    </contour>
  </outline>
</glyph>
<glyph name="Thorn" format="2">
  <advance width="1927"/>
  <unicode hex="00DE"/>
  <guideline x="30.870609618326938" y="901" angle="0" identifier="i9jYwjBDP4"/>
  <guideline x="-30.138525706801943" y="555" angle="0" identifier="T8KKW8oxop"/>
  <outline>
    <contour>
      <point x="268.732083911525" y="1456.0" type="line"/>
      <point x="868.732083911525" y="1456.0" type="line"/>
      <point x="845.1042684965907" y="1322.0" type="line"/>
      <point x="1411.1042684965907" y="1322.0" type="line" smooth="yes"/>
      <point x="1704.1042684965907" y="1322.0"/>
      <point x="1946.4429044769668" y="1012.0"/>
      <point x="1896.7186959171795" y="730.0" type="qcurve" smooth="yes"/>
      <point x="1849.8157190487277" y="464.0"/>
      <point x="1506.743739183436" y="146.0"/>
      <point x="1190.5674122027274" y="145.0" type="qcurve" smooth="yes"/>
      <point x="637.5674122027274" y="145.0" type="line"/>
      <point x="612.0" y="0.0" type="line"/>
      <point x="12.0" y="0.0" type="line"/>
    </contour>
    <contour>
      <point x="1154.2232635797438" y="903.0" type="qcurve" smooth="yes"/>
      <point x="771.2232635797438" y="903.0" type="line"/>
      <point x="705.1006458140695" y="528.0" type="line"/>
      <point x="1088.1006458140696" y="528.0" type="line" smooth="yes"/>
      <point x="1184.1006458140696" y="528.0"/>
      <point x="1280.2043629427906" y="625.0"/>
      <point x="1296.250118187261" y="716.0" type="qcurve" smooth="yes"/>
      <point x="1313.706489277399" y="815.0"/>
      <point x="1250.2232635797438" y="903.0"/>
    </contour>
  </outline>
</glyph>
<glyph name="germandbls" format="2">
  <advance width="2293"/>
  <unicode hex="00DF"/>
  <outline>
    <contour>
      <point x="725.9718854190919" y="1015.0" type="qcurve" name="hr00"/>
      <point x="547.0" y="0.0" type="line"/>
      <point x="-40.0" y="0.0" type="line"/>
      <point x="144.08536785963747" y="1044.0" type="line" smooth="yes"/>
      <point x="185.6985353068352" y="1280.0"/>
      <point x="743.4855884067853" y="1534.0"/>
      <point x="1220.4855884067852" y="1534.0" type="qcurve" smooth="yes"/>
      <point x="1657.4855884067852" y="1534.0"/>
      <point x="2095.981020744221" y="1361.0"/>
      <point x="2067.7687038308663" y="1201.0" type="qcurve" smooth="yes"/>
      <point x="2057.365411969067" y="1142.0"/>
      <point x="1966.5008663612175" y="1018.0"/>
      <point x="1904.9212475187094" y="958.0" type="qcurve" smooth="yes"/>
      <point x="1867.5734762132047" y="922.0"/>
      <point x="1831.580800197073" y="871.0"/>
      <point x="1827.5252796407783" y="848.0" type="qcurve" smooth="yes"/>
      <point x="1821.5301622966904" y="814.0"/>
      <point x="1903.3660419557625" y="728.0"/>
      <point x="2006.2598834990854" y="648.0" type="qcurve" smooth="yes"/>
      <point x="2132.156166370364" y="551.0"/>
      <point x="2211.0018113412607" y="397.0"/>
      <point x="2192.1348244054548" y="290.0" type="qcurve" smooth="yes"/>
      <point x="2165.1567963570596" y="137.0"/>
      <point x="1756.2391715208714" y="-27.0"/>
      <point x="1403.2391715208714" y="-27.0" type="qcurve" smooth="yes"/>
      <point x="1051.2391715208714" y="-27.0"/>
      <point x="690.7437391834359" y="146.0"/>
      <point x="707.1323830774987" y="307.0" type="qcurve" smooth="yes"/>
      <point x="708.7772877881257" y="322.0" type="line"/>
      <point x="1243.366671942458" y="314.0" type="line"/>
      <point x="1238.6058434633294" y="287.0" type="line" smooth="yes"/>
      <point x="1233.3160340420754" y="257.0"/>
      <point x="1335.847456312157" y="243.0"/>
      <point x="1433.847456312157" y="243.0" type="qcurve" smooth="yes"/>
      <point x="1525.847456312157" y="243.0"/>
      <point x="1627.492361022784" y="258.0"/>
      <point x="1631.1952276176617" y="279.0" type="qcurve" smooth="yes"/>
      <point x="1633.4874783668718" y="292.0"/>
      <point x="1588.656481363712" y="344.0"/>
      <point x="1484.6467160518876" y="412.0" type="qcurve" smooth="yes"/>
      <point x="1350.1634903542324" y="500.0"/>
      <point x="1245.4917310360884" y="672.0"/>
      <point x="1263.8297370297687" y="776.0" type="qcurve" smooth="yes"/>
      <point x="1273.3513939880258" y="830.0"/>
      <point x="1320.515514328954" y="916.0"/>
      <point x="1362.744920538001" y="957.0" type="qcurve" smooth="yes"/>
      <point x="1394.2110569399633" y="988.0"/>
      <point x="1432.0853678596375" y="1044.0"/>
      <point x="1435.9645614352237" y="1066.0" type="qcurve" smooth="yes"/>
      <point x="1445.8388723548976" y="1122.0"/>
      <point x="1280.7735864867786" y="1167.0"/>
      <point x="1120.7735864867786" y="1167.0" type="qcurve" smooth="yes"/>
      <point x="952.7735864867786" y="1167.0"/>
      <point x="738.8437550108099" y="1088.0"/>
    </contour>
  </outline>
</glyph>
<glyph name="ae" format="2">
  <advance width="2556"/>
  <unicode hex="00E6"/>
  <outline>
    <contour>
      <point x="542.0695385373358" y="335.0" type="qcurve" smooth="yes"/>
      <point x="535.721767231831" y="299.0"/>
      <point x="585.6686880034924" y="259.0"/>
      <point x="651.6686880034924" y="259.0" type="qcurve" smooth="yes"/>
      <point x="734.6686880034924" y="259.0"/>
      <point x="882.3087100582072" y="308.0"/>
      <point x="893.4173098428405" y="371.0" type="qcurve"/>
      <point x="893.593636823549" y="372.0" type="line"/>
      <point x="643.1226177656744" y="375.0" type="line" smooth="yes"/>
      <point x="589.2989447463829" y="376.0"/>
      <point x="546.3013860743389" y="359.0"/>
    </contour>
    <contour>
      <point x="-37.57048351737902" y="286.0" type="qcurve" smooth="yes"/>
      <point x="-13.06103319890238" y="425.0"/>
      <point x="232.91943617744886" y="561.0"/>
      <point x="464.39045523532343" y="558.0" type="qcurve" smooth="yes"/>
      <point x="925.5088203317812" y="553.0" type="line"/>
      <point x="934.6778233286213" y="605.0" type="line" smooth="yes"/>
      <point x="939.2623248270413" y="631.0"/>
      <point x="883.7284612290039" y="662.0"/>
      <point x="793.7284612290039" y="662.0" type="qcurve" smooth="yes"/>
      <point x="721.7284612290039" y="662.0"/>
      <point x="652.4386518077499" y="632.0"/>
      <point x="646.9725154057875" y="601.0" type="qcurve" smooth="yes"/>
      <point x="643.4459757916181" y="581.0" type="line"/>
      <point x="128.9749567337435" y="584.0" type="line"/>
      <point x="131.61986144437049" y="599.0" type="line" smooth="yes"/>
      <point x="160.0085053384334" y="760.0"/>
      <point x="561.8632856344586" y="952.0"/>
      <point x="898.8632856344586" y="952.0" type="qcurve" smooth="yes"/>
      <point x="1044.8632856344586" y="952.0"/>
      <point x="1261.749803193913" y="923.0"/>
      <point x="1331.6967239655746" y="883.0" type="qcurve"/>
      <point x="1432.2787841360387" y="926.0"/>
      <point x="1668.2739014801264" y="960.0"/>
      <point x="1801.2739014801264" y="960.0" type="qcurve" smooth="yes"/>
      <point x="2163.2739014801264" y="960.0"/>
      <point x="2510.723578573092" y="696.0"/>
      <point x="2473.8712396050223" y="487.0" type="qcurve" smooth="yes"/>
      <point x="2462.586312839681" y="423.0" type="line"/>
      <point x="1204.5863128396807" y="423.0" type="line"/>
      <point x="1219.5741061999001" y="508.0" type="line"/>
      <point x="1924.5741061999001" y="508.0" type="line"/>
      <point x="1925.984722045568" y="516.0" type="line" smooth="yes"/>
      <point x="1931.4508584475302" y="547.0"/>
      <point x="1843.4459757916181" y="581.0"/>
      <point x="1729.4459757916181" y="581.0" type="qcurve" smooth="yes"/>
      <point x="1616.4459757916181" y="581.0"/>
      <point x="1492.921877505405" y="544.0"/>
      <point x="1482.694912624314" y="486.0" type="qcurve" smooth="yes"/>
      <point x="1476.6997952802262" y="452.0" type="line" smooth="yes"/>
      <point x="1465.0622145534676" y="386.0"/>
      <point x="1575.9511734408782" y="340.0"/>
      <point x="1666.9511734408782" y="340.0" type="qcurve" smooth="yes"/>
      <point x="1803.9511734408782" y="340.0"/>
      <point x="1933.3569066306336" y="382.0"/>
      <point x="1956.4124271869282" y="405.0" type="qcurve"/>
      <point x="2439.893211556627" y="334.0" type="line"/>
      <point x="2336.9200661641444" y="147.0"/>
      <point x="1958.4759017137867" y="-37.0"/>
      <point x="1604.4759017137867" y="-37.0" type="qcurve" smooth="yes"/>
      <point x="1410.4759017137867" y="-37.0"/>
      <point x="1116.7004252669217" y="38.0"/>
      <point x="1026.2196408972227" y="109.0" type="qcurve"/>
      <point x="895.5216569582572" y="54.0"/>
      <point x="550.7077492507899" y="-13.0"/>
      <point x="338.70774925078996" y="-13.0" type="qcurve" smooth="yes"/>
      <point x="126.70774925078996" y="-13.0"/>
      <point x="-62.079933835855655" y="147.0"/>
    </contour>
  </outline>
</glyph>
<glyph name="divide" format="2">
  <advance width="1346"/>
  <unicode hex="00F7"/>
  <outline>
    <contour>
      <point x="534.8992755671046" y="1111.0" type="qcurve" smooth="yes"/>
      <point x="550.4160498694495" y="1199.0"/>
      <point x="674.5173256702145" y="1313.0"/>
      <point x="775.5173256702145" y="1313.0" type="qcurve" smooth="yes"/>
      <point x="876.5173256702145" y="1313.0"/>
      <point x="962.4160498694496" y="1199.0"/>
      <point x="946.8992755671045" y="1111.0" type="qcurve" smooth="yes"/>
      <point x="932.264136168302" y="1028.0"/>
      <point x="806.162860367537" y="914.0"/>
      <point x="705.162860367537" y="914.0" type="qcurve" smooth="yes"/>
      <point x="604.162860367537" y="914.0"/>
      <point x="520.264136168302" y="1028.0"/>
    </contour>
    <contour>
      <point x="378.14458971727925" y="222.0" type="qcurve" smooth="yes"/>
      <point x="393.6613640196241" y="310.0"/>
      <point x="517.7626398203892" y="424.0"/>
      <point x="618.7626398203892" y="424.0" type="qcurve" smooth="yes"/>
      <point x="719.7626398203892" y="424.0"/>
      <point x="805.6613640196241" y="310.0"/>
      <point x="790.1445897172792" y="222.0" type="qcurve" smooth="yes"/>
      <point x="775.5094503184766" y="139.0"/>
      <point x="649.4081745177116" y="25.0"/>
      <point x="548.4081745177116" y="25.0" type="qcurve" smooth="yes"/>
      <point x="447.4081745177116" y="25.0"/>
      <point x="363.50945031847664" y="139.0"/>
    </contour>
    <contour>
      <point x="36.22389356643936" y="489.0" type="line"/>
      <point x="102.17018435140528" y="863.0" type="line"/>
      <point x="1292.1701843514052" y="863.0" type="line"/>
      <point x="1226.2238935664393" y="489.0" type="line"/>
    </contour>
  </outline>
</glyph>
<glyph name="gcommaaccent" format="2">
  <advance width="1686"/>
  <unicode hex="0123"/>
  <outline>
    <contour>
      <point x="-62.94873211292199" y="-357.0" type="qcurve"/>
      <point x="54.76082847912855" y="27.0" type="line"/>
      <point x="107.76571113504073" y="-7.0"/>
      <point x="408.7779177748213" y="-92.0"/>
      <point x="566.7779177748213" y="-92.0" type="qcurve" smooth="yes"/>
      <point x="675.7779177748213" y="-92.0"/>
      <point x="897.062844540163" y="-28.0"/>
      <point x="912.5796188425079" y="60.0" type="qcurve" smooth="yes"/>
      <point x="923.1592376850158" y="120.0" type="line"/>
      <point x="855.4032918617994" y="59.0"/>
      <point x="653.710190578746" y="-30.0"/>
      <point x="463.71019057874605" y="-30.0" type="qcurve" smooth="yes"/>
      <point x="220.71019057874605" y="-30.0"/>
      <point x="-48.85541028272078" y="222.0"/>
      <point x="-7.594896796939977" y="456.0" type="qcurve" smooth="yes"/>
      <point x="-5.478973028438389" y="468.0" type="line" smooth="yes"/>
      <point x="33.66561668884083" y="690.0"/>
      <point x="367.4526697887909" y="944.0"/>
      <point x="621.4526697887909" y="944.0" type="qcurve" smooth="yes"/>
      <point x="789.4526697887909" y="944.0"/>
      <point x="993.7620098336936" y="838.0"/>
      <point x="1027.5350449526027" y="780.0" type="qcurve"/>
      <point x="1031.5350449526027" y="780.0" type="line"/>
      <point x="1054.162860367537" y="914.0" type="line"/>
      <point x="1631.162860367537" y="914.0" type="line"/>
      <point x="1512.3184753700316" y="240.0" type="line" smooth="yes"/>
      <point x="1450.251378160652" y="-112.0"/>
      <point x="974.4765317004824" y="-451.0"/>
      <point x="633.4765317004823" y="-451.0" type="qcurve" smooth="yes"/>
      <point x="393.47653170048227" y="-451.0"/>
      <point x="41.23247752369866" y="-390.0"/>
    </contour>
    <contour>
      <point x="561.1708143381007" y="449.0" type="line" smooth="yes"/>
      <point x="551.2965034184267" y="393.0"/>
      <point x="636.3642306145019" y="331.0"/>
      <point x="739.3642306145019" y="331.0" type="qcurve" smooth="yes"/>
      <point x="830.3642306145019" y="331.0"/>
      <point x="945.7699638042575" y="373.0"/>
      <point x="961.4148685148843" y="388.0" type="qcurve"/>
      <point x="985.2190109105272" y="523.0" type="line"/>
      <point x="966.7455505246965" y="543.0"/>
      <point x="859.3880139073674" y="575.0"/>
      <point x="785.3880139073674" y="575.0" type="qcurve" smooth="yes"/>
      <point x="675.3880139073674" y="575.0"/>
      <point x="571.5741061999003" y="508.0"/>
      <point x="562.2287762223516" y="455.0" type="qcurve" smooth="yes"/>
    </contour>
    <contour>
      <point x="1375.5051190304341" y="1398.0" type="line"/>
      <point x="1322.9328241717944" y="1287.0"/>
      <point x="1255.660104046233" y="1138.0"/>
      <point x="1205.6796346698818" y="1002.0" type="qcurve"/>
      <point x="609.326980708465" y="1000.0" type="line"/>
      <point x="825.0340999725595" y="1401.0" type="line"/>
    </contour>
  </outline>
</glyph>
<glyph name="schwa" format="2">
  <advance width="1614"/>
  <unicode hex="0259"/>
  <outline>
    <contour>
      <point x="1527.4630650873107" y="462.0" type="qcurve" smooth="yes"/>
      <point x="1525.5234682995176" y="451.0" type="line" smooth="yes"/>
      <point x="1485.4972436786961" y="224.0"/>
      <point x="1002.4759017137867" y="-37.0"/>
      <point x="628.4759017137868" y="-37.0" type="qcurve" smooth="yes"/>
      <point x="266.4759017137868" y="-37.0"/>
      <point x="-80.97377537917845" y="227.0"/>
      <point x="-44.12143641110927" y="436.0" type="qcurve" smooth="yes"/>
      <point x="-32.83650964576751" y="500.0" type="line"/>
      <point x="1225.1634903542324" y="500.0" type="line"/>
      <point x="1210.175696994013" y="415.0" type="line"/>
      <point x="505.1756969940129" y="415.0" type="line"/>
      <point x="503.7650811483452" y="407.0" type="line" smooth="yes"/>
      <point x="498.29894474638286" y="376.0"/>
      <point x="586.303827402295" y="342.0"/>
      <point x="700.303827402295" y="342.0" type="qcurve" smooth="yes"/>
      <point x="813.303827402295" y="342.0"/>
      <point x="936.8279256885082" y="379.0"/>
      <point x="947.0548905695991" y="437.0" type="qcurve" smooth="yes"/>
      <point x="953.0500079136871" y="471.0" type="line" smooth="yes"/>
      <point x="964.6875886404457" y="537.0"/>
      <point x="853.7986297530351" y="583.0"/>
      <point x="762.7986297530351" y="583.0" type="qcurve" smooth="yes"/>
      <point x="625.7986297530351" y="583.0"/>
      <point x="496.3928965632796" y="541.0"/>
      <point x="473.33737600698487" y="518.0" type="qcurve"/>
      <point x="-10.143408362714126" y="589.0" type="line"/>
      <point x="92.82973702976881" y="776.0"/>
      <point x="471.27390148012637" y="960.0"/>
      <point x="825.2739014801264" y="960.0" type="qcurve" smooth="yes"/>
      <point x="1189.2739014801264" y="960.0"/>
      <point x="1569.605213476634" y="701.0"/>
    </contour>
  </outline>
</glyph>
<glyph name="commaaccentturned" format="2">
  <advance width="1024"/>
  <unicode hex="02BB"/>
  <outline>
    <contour>
      <point x="1375.5051190304341" y="1398.0" type="line"/>
      <point x="1322.9328241717944" y="1287.0"/>
      <point x="1255.660104046233" y="1138.0"/>
      <point x="1205.6796346698818" y="1002.0" type="qcurve"/>
      <point x="609.326980708465" y="1000.0" type="line"/>
      <point x="825.0340999725595" y="1401.0" type="line"/>
    </contour>
  </outline>
</glyph>
<glyph name="caron" format="2">
  <advance width="1024"/>
  <unicode hex="02C7"/>
  <outline>
    <contour>
      <point x="358.326980708465" y="1000.0" type="line"/>
      <point x="84.14514108514882" y="1447.0" type="line"/>
      <point x="486.1451410851488" y="1447.0" type="line"/>
      <point x="612.6356907666722" y="1308.0" type="line"/>
      <point x="789.1451410851488" y="1447.0" type="line"/>
      <point x="1186.145141085149" y="1447.0" type="line"/>
      <point x="758.326980708465" y="1000.0" type="line"/>
    </contour>
  </outline>
</glyph>
<glyph name="breve" format="2">
  <advance width="1022"/>
  <unicode hex="02D8"/>
  <outline>
    <contour>
      <point x="874.8455663520705" y="1485.0" type="qcurve"/>
      <point x="1135.3867539339763" y="1403.0" type="line"/>
      <point x="1055.7613798469981" y="1252.0"/>
      <point x="749.326980708465" y="1000.0"/>
      <point x="561.326980708465" y="1000.0" type="qcurve" smooth="yes"/>
      <point x="392.32698070846504" y="1000.0"/>
      <point x="163.41116721353728" y="1233.0"/>
      <point x="129.7394078953933" y="1405.0" type="qcurve"/>
      <point x="432.8455663520705" y="1485.0" type="line"/>
      <point x="459.4398331623149" y="1443.0"/>
      <point x="556.9206175320139" y="1372.0"/>
      <point x="629.9206175320139" y="1372.0" type="qcurve" smooth="yes"/>
      <point x="709.9206175320139" y="1372.0"/>
      <point x="832.087179200898" y="1441.0"/>
    </contour>
  </outline>
</glyph>
<glyph name="dotaccent" format="2">
  <advance width="1024"/>
  <unicode hex="02D9"/>
  <outline>
    <contour>
      <point x="358.4740117537003" y="1224.0" type="qcurve" smooth="yes"/>
      <point x="375.5777288824214" y="1321.0"/>
      <point x="520.2055442973557" y="1455.0"/>
      <point x="637.2055442973557" y="1455.0" type="qcurve" smooth="yes"/>
      <point x="753.2055442973557" y="1455.0"/>
      <point x="851.5777288824214" y="1321.0"/>
      <point x="834.4740117537003" y="1224.0" type="qcurve" smooth="yes"/>
      <point x="818.2519295285215" y="1132.0"/>
      <point x="672.9767680750042" y="1000.0"/>
      <point x="556.9767680750042" y="1000.0" type="qcurve" smooth="yes"/>
      <point x="439.9767680750042" y="1000.0"/>
      <point x="342.2519295285215" y="1132.0"/>
    </contour>
  </outline>
</glyph>
<glyph name="ring" format="2">
  <advance width="1024"/>
  <unicode hex="02DA"/>
  <outline>
    <contour>
      <point x="264.5850528662897" y="1318.0" type="qcurve"/>
      <point x="287.860214319807" y="1450.0"/>
      <point x="517.3623406544154" y="1640.0"/>
      <point x="661.3623406544154" y="1640.0" type="qcurve" smooth="yes"/>
      <point x="803.3623406544154" y="1640.0"/>
      <point x="967.860214319807" y="1450.0"/>
      <point x="944.5850528662897" y="1318.0" type="qcurve" smooth="yes"/>
      <point x="920.6045834899385" y="1182.0"/>
      <point x="690.5130730009978" y="1000.0"/>
      <point x="548.5130730009978" y="1000.0" type="qcurve" smooth="yes"/>
      <point x="404.5130730009978" y="1000.0"/>
      <point x="240.60458348993848" y="1182.0"/>
    </contour>
    <contour>
      <point x="505.7613798469981" y="1319.0" type="qcurve"/>
      <point x="498.88462759936806" y="1280.0"/>
      <point x="544.657662718277" y="1222.0"/>
      <point x="587.657662718277" y="1222.0" type="qcurve" smooth="yes"/>
      <point x="630.657662718277" y="1222.0"/>
      <point x="696.7083006186596" y="1279.0"/>
      <point x="703.7613798469981" y="1319.0" type="qcurve" smooth="yes"/>
      <point x="710.4618051139198" y="1357.0"/>
      <point x="664.8650969757192" y="1416.0"/>
      <point x="621.8650969757192" y="1416.0" type="qcurve" smooth="yes"/>
      <point x="578.8650969757192" y="1416.0"/>
      <point x="512.4618051139198" y="1357.0"/>
    </contour>
  </outline>
</glyph>
<glyph name="ogonek" format="2">
  <advance width="1024"/>
  <unicode hex="02DB"/>
  <outline>
    <contour>
      <point x="382.75594582321634" y="61.0" type="qcurve"/>
      <point x="586.0" y="0.0" type="line"/>
      <point x="531.8865175594545" y="-29.0"/>
      <point x="435.0726098519874" y="-96.0"/>
      <point x="428.01953062364873" y="-136.0" type="qcurve" smooth="yes"/>
      <point x="424.6693179901879" y="-155.0"/>
      <point x="448.2611434724763" y="-180.0"/>
      <point x="480.2611434724763" y="-180.0" type="qcurve" smooth="yes"/>
      <point x="506.2611434724763" y="-180.0"/>
      <point x="549.3770672409779" y="-168.0"/>
      <point x="562.2587021445202" y="-163.0" type="qcurve"/>
      <point x="541.7083792374855" y="-427.0" type="line"/>
      <point x="493.7108205654415" y="-444.0"/>
      <point x="351.2446841634791" y="-475.0"/>
      <point x="246.24468416347912" y="-475.0" type="qcurve" smooth="yes"/>
      <point x="103.24468416347912" y="-475.0"/>
      <point x="-75.88832890071511" y="-368.0"/>
      <point x="-57.902976868451674" y="-266.0" type="qcurve" smooth="yes"/>
      <point x="-42.738856527523694" y="-180.0"/>
      <point x="206.76571113504076" y="-7.0"/>
    </contour>
  </outline>
</glyph>
<glyph name="tilde" format="2">
  <advance width="1024"/>
  <unicode hex="02DC"/>
  <outline>
    <contour>
      <point x="76.30256742890401" y="1170.0" type="line"/>
      <point x="142.40384322966906" y="1284.0"/>
      <point x="359.08473787294196" y="1458.0"/>
      <point x="456.084737872942" y="1458.0" type="qcurve" smooth="yes"/>
      <point x="513.084737872942" y="1458.0"/>
      <point x="612.6765633552303" y="1433.0"/>
      <point x="658.6210427989356" y="1410.0" type="qcurve" smooth="yes"/>
      <point x="701.9181762040579" y="1389.0"/>
      <point x="802.1597890528853" y="1345.0"/>
      <point x="855.1597890528853" y="1345.0" type="qcurve" smooth="yes"/>
      <point x="911.1597890528853" y="1345.0"/>
      <point x="1017.1524650690171" y="1396.0"/>
      <point x="1054.5002363745218" y="1432.0" type="qcurve"/>
      <point x="1130.9401481556627" y="1236.0" type="line"/>
      <point x="1059.2519295285215" y="1113.0"/>
      <point x="868.9767680750042" y="981.0"/>
      <point x="771.9767680750042" y="981.0" type="qcurve" smooth="yes"/>
      <point x="702.9767680750042" y="981.0"/>
      <point x="581.911482206885" y="1026.0"/>
      <point x="541.909040878929" y="1043.0" type="qcurve" smooth="yes"/>
      <point x="498.2592535123898" y="1062.0"/>
      <point x="409.783351798603" y="1099.0"/>
      <point x="369.783351798603" y="1099.0" type="qcurve" smooth="yes"/>
      <point x="305.783351798603" y="1099.0"/>
      <point x="180.55882824546813" y="1024.0"/>
      <point x="150.44534580492268" y="995.0" type="qcurve"/>
    </contour>
  </outline>
</glyph>
<glyph name="hungarumlaut" format="2">
  <advance width="1024"/>
  <unicode hex="02DD"/>
  <guideline x="39.33430469233326" y="949.0" angle="0" identifier="1emCWSQy5G"/>
  <guideline x="-21.67483063279562" y="603.0" angle="0" identifier="s1MFYmxmed"/>
  <outline>
    <contour>
      <point x="7.949913467487079" y="1168.0" type="line"/>
      <point x="361.6594740595376" y="1552.0" type="line"/>
      <point x="680.63080811076" y="1342.0" type="line"/>
      <point x="282.326980708465" y="1000.0" type="line"/>
    </contour>
    <contour>
      <point x="572.949913467487" y="1168.0" type="line"/>
      <point x="928.6594740595376" y="1552.0" type="line"/>
      <point x="1246.63080811076" y="1342.0" type="line"/>
      <point x="849.326980708465" y="1000.0" type="line"/>
    </contour>
  </outline>
</glyph>
<glyph name="hookabovecomb" format="2">
  <advance width="1024"/>
  <unicode hex="0309"/>
  <outline>
    <contour>
      <point x="335.326980708465" y="1000.0" type="line"/>
      <point x="342.909040878929" y="1043.0" type="line" smooth="yes"/>
      <point x="358.7784691426908" y="1133.0"/>
      <point x="481.7662625029103" y="1218.0"/>
      <point x="561.6478974064527" y="1223.0" type="qcurve" smooth="yes"/>
      <point x="617.5295323099949" y="1228.0"/>
      <point x="648.821783059205" y="1241.0"/>
      <point x="652.3483226733744" y="1261.0" type="qcurve" smooth="yes"/>
      <point x="655.3458813454182" y="1278.0"/>
      <point x="612.3434400174622" y="1295.0"/>
      <point x="558.3434400174622" y="1295.0" type="qcurve" smooth="yes"/>
      <point x="494.34344001746217" y="1295.0"/>
      <point x="353.22995757691666" y="1266.0"/>
      <point x="340.5246496540828" y="1262.0" type="qcurve"/>
      <point x="290.6741220272742" y="1450.0" type="line"/>
      <point x="337.376988622152" y="1471.0"/>
      <point x="555.3117027540329" y="1516.0"/>
      <point x="672.3117027540329" y="1516.0" type="qcurve" smooth="yes"/>
      <point x="842.3117027540329" y="1516.0"/>
      <point x="1011.2708301654748" y="1391.0"/>
      <point x="992.756497191086" y="1286.0" type="qcurve" smooth="yes"/>
      <point x="973.3605293131548" y="1176.0"/>
      <point x="807.4380218210543" y="1046.0"/>
      <point x="584.3220980525527" y="1034.0" type="qcurve"/>
      <point x="578.326980708465" y="1000.0" type="line"/>
    </contour>
  </outline>
</glyph>
<glyph name="breveinvertedcomb" format="2">
  <advance width="1024"/>
  <unicode hex="030F"/>
  <anchor x="512.0" y="914" name="_top"/>
  <anchor x="512.0" y="1465.0" name="top"/>
  <outline>
    <contour>
      <point x="351.326980708465" y="1000.0" type="qcurve"/>
      <point x="112.2568121844337" y="1079.0" type="line"/>
      <point x="186.64789740645267" y="1223.0"/>
      <point x="470.31902673790114" y="1465.0"/>
      <point x="643.3190267379011" y="1465.0" type="qcurve" smooth="yes"/>
      <point x="799.3190267379011" y="1465.0"/>
      <point x="1007.9981100399136" y="1242.0"/>
      <point x="1037.9041582230168" y="1077.0" type="qcurve"/>
      <point x="758.326980708465" y="1000.0" type="line"/>
      <point x="734.3800599368036" y="1040.0"/>
      <point x="644.3702946249791" y="1108.0"/>
      <point x="577.3702946249791" y="1108.0" type="qcurve" smooth="yes"/>
      <point x="504.3702946249791" y="1108.0"/>
      <point x="390.7327138982205" y="1042.0"/>
    </contour>
  </outline>
</glyph>
<glyph name="horncomb" format="2">
  <advance width="1024"/>
  <unicode hex="031B"/>
  <anchor x="0.0" y="914" name="_topright"/>
  <anchor x="0" y="1169" name="topright"/>
  <outline>
    <contour>
      <point x="0" y="914.0" type="line"/>
      <point x="82" y="914.0" type="line" smooth="yes"/>
      <point x="129" y="914.0"/>
      <point x="208" y="950.0"/>
      <point x="217" y="1006.0" type="qcurve" smooth="yes"/>
      <point x="226" y="1056.0"/>
      <point x="227" y="1132.0"/>
      <point x="223" y="1169.0" type="qcurve"/>
      <point x="541" y="1169.0" type="line"/>
      <point x="565" y="1135.0"/>
      <point x="596" y="1028.0"/>
      <point x="582" y="947.0" type="qcurve" smooth="yes"/>
      <point x="562" y="833.0"/>
      <point x="331" y="725.0"/>
      <point x="186" y="725.0" type="qcurve" smooth="yes"/>
      <point x="116" y="725.0"/>
      <point x="9" y="740.0"/>
      <point x="-28" y="752.0" type="qcurve"/>
    </contour>
  </outline>
</glyph>
<glyph name="dotbelowcomb" format="2">
  <advance width="1024"/>
  <unicode hex="0323"/>
  <anchor x="512.0" y="0" name="_bottom"/>
  <anchor x="512.0" y="-530.0" name="bottom"/>
  <outline>
    <contour>
      <point x="92.04394390320971" y="-306.0" type="qcurve" smooth="yes"/>
      <point x="109.14766103193082" y="-209.0"/>
      <point x="253.77547644686513" y="-75.0"/>
      <point x="370.7754764468651" y="-75.0" type="qcurve" smooth="yes"/>
      <point x="486.7754764468651" y="-75.0"/>
      <point x="585.1476610319309" y="-209.0"/>
      <point x="568.0439439032098" y="-306.0" type="qcurve" smooth="yes"/>
      <point x="551.8218616780309" y="-398.0"/>
      <point x="406.54670022451353" y="-530.0"/>
      <point x="290.54670022451353" y="-530.0" type="qcurve" smooth="yes"/>
      <point x="173.54670022451353" y="-530.0"/>
      <point x="75.82186167803093" y="-398.0"/>
    </contour>
  </outline>
</glyph>
<glyph name="commaaccentcomb" format="2">
  <advance width="1024"/>
  <unicode hex="0326"/>
  <anchor x="512.0" y="0" name="_bottom"/>
  <anchor x="512.0" y="-500.0" name="bottom"/>
  <outline>
    <contour>
      <point x="-43.63450941210709" y="-497.0" type="line"/>
      <point x="8.93778544653253" y="-386.0"/>
      <point x="76.21050557209381" y="-237.0"/>
      <point x="126.19097494844505" y="-101.0" type="qcurve"/>
      <point x="722.5436289098619" y="-99.0" type="line"/>
      <point x="506.8365096457675" y="-500.0" type="line"/>
    </contour>
  </outline>
</glyph>
<glyph name="brevebelowcomb" format="2">
  <advance width="1022"/>
  <unicode hex="032E"/>
  <anchor x="511.0" y="0" name="_bottom"/>
  <anchor x="511.0" y="-576.0" name="bottom"/>
  <outline>
    <contour>
      <point x="596.9542447555297" y="-91.0" type="qcurve"/>
      <point x="857.4954323374355" y="-173.0" type="line"/>
      <point x="777.8700582504573" y="-324.0"/>
      <point x="471.4356591119242" y="-576.0"/>
      <point x="283.43565911192417" y="-576.0" type="qcurve" smooth="yes"/>
      <point x="114.43565911192417" y="-576.0"/>
      <point x="-114.48015438300348" y="-343.0"/>
      <point x="-148.15191370114752" y="-171.0" type="qcurve"/>
      <point x="154.95424475552966" y="-91.0" type="line"/>
      <point x="181.54851156577416" y="-133.0"/>
      <point x="279.02929593547316" y="-204.0"/>
      <point x="352.02929593547316" y="-204.0" type="qcurve" smooth="yes"/>
      <point x="432.0292959354731" y="-204.0"/>
      <point x="554.1958576043572" y="-135.0"/>
    </contour>
  </outline>
</glyph>
<glyph name="numeralsign" format="2">
  <advance width="621"/>
  <unicode hex="0374"/>
  <outline>
    <contour>
      <point x="450.85352032263427" y="1020.0" type="line"/>
      <point x="154.7857931265591" y="1082.0" type="line"/>
      <point x="338.9566074646599" y="1531.0" type="line"/>
      <point x="739.4398331623149" y="1443.0" type="line"/>
    </contour>
  </outline>
</glyph>
<glyph name="lownumeralsign" format="2">
  <advance width="621"/>
  <unicode hex="0375"/>
  <outline>
    <contour>
      <point x="122.14647967736573" y="338.0" type="line"/>
      <point x="418.2142068734409" y="276.0" type="line"/>
      <point x="234.0433925353401" y="-173.0" type="line"/>
      <point x="-166.43983316231493" y="-85.0" type="line"/>
    </contour>
  </outline>
</glyph>
<glyph name="tonos" format="2">
  <advance width="905"/>
  <unicode hex="0384"/>
  <outline>
    <contour>
      <point x="585.7931171104274" y="1031.0" type="line"/>
      <point x="256.72050725844" y="1127.0" type="line"/>
      <point x="445.4203025386662" y="1579.0" type="line"/>
      <point x="890.6716806993181" y="1467.0" type="line"/>
    </contour>
  </outline>
</glyph>
<glyph name="dieresistonos" format="2">
  <advance width="1125"/>
  <unicode hex="0385"/>
  <outline>
    <contour>
      <point x="268.96944409113587" y="1032.0" type="qcurve" smooth="yes"/>
      <point x="168.96944409113587" y="1032.0"/>
      <point x="83.8364310269416" y="1139.0"/>
      <point x="97.4136085414934" y="1216.0" type="qcurve" smooth="yes"/>
      <point x="111.34344001746214" y="1295.0"/>
      <point x="235.6814460111425" y="1399.0"/>
      <point x="334.6814460111425" y="1399.0" type="qcurve" smooth="yes"/>
      <point x="431.6814460111425" y="1399.0"/>
      <point x="521.3434400174622" y="1295.0"/>
      <point x="507.41360854149343" y="1216.0" type="qcurve" smooth="yes"/>
      <point x="493.83643102694157" y="1139.0"/>
      <point x="366.96944409113587" y="1032.0"/>
    </contour>
    <contour>
      <point x="720.9694440911359" y="1032.0" type="line"/>
      <point x="487.8486376667221" y="1054.0" type="line"/>
      <point x="574.7247599276567" y="1507.0" type="line"/>
      <point x="933.8431250241144" y="1502.0" type="line"/>
    </contour>
    <contour>
      <point x="991.9694440911358" y="1032.0" type="qcurve" smooth="yes"/>
      <point x="893.9694440911359" y="1032.0"/>
      <point x="806.8364310269416" y="1139.0"/>
      <point x="820.4136085414934" y="1216.0" type="qcurve" smooth="yes"/>
      <point x="834.3434400174622" y="1295.0"/>
      <point x="959.6814460111425" y="1399.0"/>
      <point x="1057.6814460111425" y="1399.0" type="qcurve" smooth="yes"/>
      <point x="1157.6814460111425" y="1399.0"/>
      <point x="1245.3434400174622" y="1295.0"/>
      <point x="1231.4136085414934" y="1216.0" type="qcurve" smooth="yes"/>
      <point x="1217.8364310269417" y="1139.0"/>
      <point x="1092.9694440911358" y="1032.0"/>
    </contour>
  </outline>
</glyph>
<glyph name="Delta" format="2">
  <advance width="2022"/>
  <unicode hex="0394"/>
  <outline>
    <contour>
      <point x="-51.0" y="0.0" type="line"/>
      <point x="-3.7443691701313924" y="268.0" type="line"/>
      <point x="839.3190267379011" y="1465.0" type="line"/>
      <point x="1454.3190267379011" y="1465.0" type="line"/>
      <point x="1866.0793038491602" y="267.0" type="line"/>
      <point x="1819.0" y="0.0" type="line"/>
    </contour>
    <contour>
      <point x="734.6467160518876" y="412.0" type="line"/>
      <point x="1151.6467160518876" y="412.0" type="line"/>
      <point x="1038.5374862805588" y="763.0" type="line" smooth="yes"/>
      <point x="1029.6509687211042" y="792.0"/>
      <point x="1020.2354702195244" y="818.0"/>
      <point x="1016.9987400266091" y="828.0" type="qcurve"/>
      <point x="1014.9987400266091" y="828.0" type="line"/>
      <point x="1009.2354702195244" y="818.0"/>
      <point x="991.8272957018128" y="793.0"/>
      <point x="972.5374862805588" y="763.0" type="qcurve" smooth="yes"/>
    </contour>
  </outline>
</glyph>
<glyph name="Theta" format="2">
  <advance width="2154"/>
  <unicode hex="0398"/>
  <outline>
    <contour>
      <point x="942.710190578746" y="-30.0" type="qcurve" smooth="yes"/>
      <point x="499.71019057874605" y="-30.0"/>
      <point x="-44.048826559121906" y="340.0"/>
      <point x="25.07134987859635" y="732.0" type="qcurve" smooth="yes"/>
      <point x="27.187273647097953" y="744.0" type="line" smooth="yes"/>
      <point x="93.66254537418925" y="1121.0"/>
      <point x="767.021893332779" y="1486.0"/>
      <point x="1210.021893332779" y="1486.0" type="qcurve" smooth="yes"/>
      <point x="1653.021893332779" y="1486.0"/>
      <point x="2199.6625453741894" y="1121.0"/>
      <point x="2133.1872736470978" y="744.0" type="qcurve" smooth="yes"/>
      <point x="2131.0713498785963" y="732.0" type="line" smooth="yes"/>
      <point x="2061.951173440878" y="340.0"/>
      <point x="1385.710190578746" y="-30.0"/>
    </contour>
    <contour>
      <point x="1012.948732112922" y="357.0" type="qcurve" smooth="yes"/>
      <point x="1209.0670972093797" y="352.0"/>
      <point x="1467.5112616597373" y="536.0"/>
      <point x="1500.6607340329288" y="724.0" type="qcurve" smooth="yes"/>
      <point x="1504.187273647098" y="744.0" type="line" smooth="yes"/>
      <point x="1535.0444952710793" y="919.0"/>
      <point x="1337.4331391651422" y="1080.0"/>
      <point x="1141.3147740686845" y="1085.0" type="qcurve" smooth="yes"/>
      <point x="941.1964089722269" y="1090.0"/>
      <point x="688.0444952710793" y="919.0"/>
      <point x="657.3636006278064" y="745.0" type="qcurve" smooth="yes"/>
      <point x="654.189714975054" y="727.0" type="line" smooth="yes"/>
      <point x="620.5112616597372" y="536.0"/>
      <point x="813.8303670164644" y="362.0"/>
    </contour>
    <contour>
      <point x="782.3276106951605" y="586.0" type="line"/>
      <point x="827.9962986986529" y="845.0" type="line"/>
      <point x="1362.996298698653" y="845.0" type="line"/>
      <point x="1317.3276106951605" y="586.0" type="line"/>
    </contour>
  </outline>
</glyph>
<glyph name="Xi" format="2">
  <advance width="1776"/>
  <unicode hex="039E"/>
  <outline>
    <contour>
      <point x="12.0" y="0.0" type="line"/>
      <point x="87.82060170463996" y="430.0" type="line"/>
      <point x="1613.82060170464" y="430.0" type="line"/>
      <point x="1538.0" y="0.0" type="line"/>
    </contour>
    <contour>
      <point x="189.15860769832028" y="534.0" type="line"/>
      <point x="255.81020640612007" y="912.0" type="line"/>
      <point x="1596.81020640612" y="912.0" type="line"/>
      <point x="1530.1586076983203" y="534.0" type="line"/>
    </contour>
    <contour>
      <point x="189.3849425927158" y="1006.0" type="line"/>
      <point x="268.732083911525" y="1456.0" type="line"/>
      <point x="1775.732083911525" y="1456.0" type="line"/>
      <point x="1696.3849425927158" y="1006.0" type="line"/>
    </contour>
  </outline>
</glyph>
<glyph name="Sigma" format="2">
  <advance width="1776"/>
  <unicode hex="03A3"/>
  <outline>
    <contour>
      <point x="13.0" y="0.0" type="line"/>
      <point x="81.23854153417597" y="387.0" type="line"/>
      <point x="685.479524396308" y="757.0" type="line"/>
      <point x="666.5521342482954" y="661.0" type="line"/>
      <point x="240.0878091875935" y="1027.0" type="line"/>
      <point x="315.732083911525" y="1456.0" type="line"/>
      <point x="1765.732083911525" y="1456.0" type="line"/>
      <point x="1686.3849425927158" y="1006.0" type="line"/>
      <point x="618.3849425927158" y="1006.0" type="line"/>
      <point x="660.9279415158823" y="1321.0" type="line"/>
      <point x="1362.7790991293864" y="719.0" type="line"/>
      <point x="1360.4868483801763" y="706.0" type="line"/>
      <point x="351.5143329743888" y="105.0" type="line"/>
      <point x="393.8206017046399" y="430.0" type="line"/>
      <point x="1613.82060170464" y="430.0" type="line"/>
      <point x="1538.0" y="0.0" type="line"/>
    </contour>
  </outline>
</glyph>
<glyph name="Phi" format="2">
  <advance width="2534"/>
  <unicode hex="03A6"/>
  <outline>
    <contour>
      <point x="1699.2586235256942" y="1476.0" type="line"/>
      <point x="1672.1042684965907" y="1322.0" type="line"/>
      <point x="1788.1042684965907" y="1322.0" type="line" smooth="yes"/>
      <point x="2195.1042684965905" y="1322.0"/>
      <point x="2553.4429044769668" y="1012.0"/>
      <point x="2503.7186959171795" y="730.0" type="qcurve" smooth="yes"/>
      <point x="2456.8157190487277" y="464.0"/>
      <point x="2003.5674122027276" y="145.0"/>
      <point x="1567.5674122027274" y="145.0" type="qcurve" smooth="yes"/>
      <point x="1464.5674122027274" y="145.0" type="line"/>
      <point x="1435.4734603858308" y="-20.0" type="line"/>
      <point x="835.4734603858307" y="-20.0" type="line"/>
      <point x="864.5674122027274" y="145.0" type="line"/>
      <point x="761.5674122027274" y="145.0" type="line" smooth="yes"/>
      <point x="325.56741220272744" y="145.0"/>
      <point x="-15.184280951272257" y="464.0"/>
      <point x="31.718695917179446" y="730.0" type="qcurve" smooth="yes"/>
      <point x="81.44290447696656" y="1012.0"/>
      <point x="549.1042684965907" y="1322.0"/>
      <point x="956.1042684965907" y="1322.0" type="qcurve" smooth="yes"/>
      <point x="1072.1042684965907" y="1322.0" type="line"/>
      <point x="1099.2586235256942" y="1476.0" type="line"/>
    </contour>
    <contour>
      <point x="1711.2232635797438" y="903.0" type="qcurve" smooth="yes"/>
      <point x="1598.2232635797438" y="903.0" type="line"/>
      <point x="1532.1006458140696" y="528.0" type="line"/>
      <point x="1645.1006458140696" y="528.0" type="line" smooth="yes"/>
      <point x="1768.1006458140696" y="528.0"/>
      <point x="1887.2043629427906" y="625.0"/>
      <point x="1903.250118187261" y="716.0" type="qcurve" smooth="yes"/>
      <point x="1920.7064892773988" y="815.0"/>
      <point x="1834.2232635797438" y="903.0"/>
    </contour>
    <contour>
      <point x="885.2232635797438" y="903.0" type="line" smooth="yes"/>
      <point x="762.2232635797438" y="903.0"/>
      <point x="644.706489277399" y="815.0"/>
      <point x="627.2501181872609" y="716.0" type="qcurve" smooth="yes"/>
      <point x="611.2043629427906" y="625.0"/>
      <point x="696.1006458140695" y="528.0"/>
      <point x="819.1006458140695" y="528.0" type="qcurve" smooth="yes"/>
      <point x="932.1006458140696" y="528.0" type="line"/>
      <point x="998.2232635797438" y="903.0" type="line"/>
    </contour>
  </outline>
</glyph>
<glyph name="Psi" format="2">
  <advance width="2534"/>
  <unicode hex="03A8"/>
  <outline>
    <contour>
      <point x="839.0" y="0.0" type="line"/>
      <point x="1095.732083911525" y="1456.0" type="line"/>
      <point x="1696.732083911525" y="1456.0" type="line"/>
      <point x="1440.0" y="0.0" type="line"/>
    </contour>
    <contour>
      <point x="1151.3184753700316" y="240.0" type="line"/>
      <point x="1061.3184753700316" y="240.0" type="line" smooth="yes"/>
      <point x="437.3184753700316" y="240.0"/>
      <point x="7.914553521536675" y="595.0"/>
      <point x="62.046936599035405" y="902.0" type="qcurve" smooth="yes"/>
      <point x="159.73208391152502" y="1456.0" type="line"/>
      <point x="757.732083911525" y="1456.0" type="line"/>
      <point x="657.2257049077" y="886.0" type="line" smooth="yes"/>
      <point x="634.832178357725" y="759.0"/>
      <point x="862.8517089813737" y="623.0"/>
      <point x="1096.8517089813736" y="623.0" type="qcurve" smooth="yes"/>
      <point x="1218.8517089813736" y="623.0" type="line"/>
    </contour>
    <contour>
      <point x="1208.3184753700316" y="240.0" type="line"/>
      <point x="1275.8517089813736" y="623.0" type="line"/>
      <point x="1413.8517089813736" y="623.0" type="line" smooth="yes"/>
      <point x="1641.8517089813736" y="623.0"/>
      <point x="1910.8321783577248" y="759.0"/>
      <point x="1933.2257049076998" y="886.0" type="qcurve" smooth="yes"/>
      <point x="2033.732083911525" y="1456.0" type="line"/>
      <point x="2630.732083911525" y="1456.0" type="line"/>
      <point x="2533.0469365990352" y="902.0" type="line" smooth="yes"/>
      <point x="2478.9145535215366" y="595.0"/>
      <point x="1922.3184753700316" y="240.0"/>
      <point x="1298.3184753700316" y="240.0" type="qcurve" smooth="yes"/>
    </contour>
  </outline>
</glyph>
<glyph name="Omega" format="2">
  <advance width="2154"/>
  <unicode hex="03A9"/>
  <outline>
    <contour>
      <point x="-104.0" y="0.0" type="line"/>
      <point x="-24.82918566189923" y="449.0" type="line"/>
      <point x="621.1708143381007" y="449.0" type="line"/>
      <point x="629.1055284699817" y="494.0" type="line"/>
      <point x="321.27941412273407" y="512.0"/>
      <point x="28.774216473474127" y="753.0"/>
      <point x="64.92124751870944" y="958.0" type="qcurve"/>
      <point x="64.03961261516713" y="953.0" type="line"/>
      <point x="108.29768477299183" y="1204.0"/>
      <point x="703.9059695642774" y="1474.0"/>
      <point x="1213.9059695642773" y="1474.0" type="qcurve"/>
      <point x="1718.9059695642773" y="1474.0"/>
      <point x="2214.297684772992" y="1204.0"/>
      <point x="2170.0396126151672" y="953.0" type="qcurve"/>
      <point x="2170.9212475187096" y="958.0" type="line"/>
      <point x="2134.774216473474" y="753.0"/>
      <point x="1757.2794141227341" y="512.0"/>
      <point x="1443.1055284699817" y="494.0" type="qcurve"/>
      <point x="1435.1708143381009" y="449.0" type="line"/>
      <point x="2081.1708143381006" y="449.0" type="line"/>
      <point x="2002.0" y="0.0" type="line"/>
      <point x="1016.0" y="0.0" type="line"/>
      <point x="1125.4990550199568" y="621.0" type="line"/>
      <point x="1315.2623248270413" y="631.0"/>
      <point x="1503.6582927049726" y="741.0"/>
      <point x="1523.4069145443207" y="853.0" type="qcurve"/>
      <point x="1525.3465113321138" y="864.0" type="line"/>
      <point x="1545.9767680750042" y="981.0"/>
      <point x="1363.3147740686845" y="1085.0"/>
      <point x="1139.3147740686845" y="1085.0" type="qcurve"/>
      <point x="916.3147740686845" y="1085.0"/>
      <point x="697.9767680750042" y="981.0"/>
      <point x="677.3465113321138" y="864.0" type="qcurve"/>
      <point x="675.4069145443207" y="853.0" type="line"/>
      <point x="655.4819657242641" y="740.0"/>
      <point x="803.2623248270414" y="631.0"/>
      <point x="988.4990550199568" y="621.0" type="qcurve"/>
      <point x="879.0" y="0.0" type="line"/>
    </contour>
  </outline>
</glyph>
